<?xml version="1.0" encoding="utf-8"?>
<!-- Generator: Adobe Illustrator 17.1.0, SVG Export Plug-In . SVG Version: 6.00 Build 0)  -->
<!DOCTYPE svg PUBLIC "-//W3C//DTD SVG 1.1//EN" "http://www.w3.org/Graphics/SVG/1.1/DTD/svg11.dtd">
<svg version="1.1" id="Layer_1" xmlns="http://www.w3.org/2000/svg" xmlns:xlink="http://www.w3.org/1999/xlink" x="0px" y="0px"
	 viewBox="0 0 40 40" enable-background="new 0 0 40 40" xml:space="preserve">
<rect x="0" y="0" fill="#E4454E" width="40" height="40"/>
<g>
	<g>
		<path fill="#FFFFFF" d="M8,33l1,1h22l1-1l1.4-13H6.6L8,33z M26,22.5c0-1.1,0.7-1.5,1.5-1.5c0.8,0,1.5,0.3,1.5,1.5v8
			c0,1.1-0.7,1.5-1.5,1.5c-0.8,0-1.5-0.4-1.5-1.5V22.5z M21,22.5c0-1.1,0.7-1.5,1.5-1.5c0.8,0,1.5,0.3,1.5,1.5v8
			c0,1.1-0.7,1.5-1.5,1.5c-0.8,0-1.5-0.4-1.5-1.5V22.5z M16,22.5c0-1.1,0.7-1.5,1.5-1.5c0.8,0,1.5,0.3,1.5,1.5v8
			c0,1.1-0.7,1.5-1.5,1.5c-0.8,0-1.5-0.4-1.5-1.5V22.5z M11,22.5c0-1.1,0.7-1.5,1.5-1.5c0.8,0,1.5,0.3,1.5,1.5v8
			c0,1.1-0.7,1.5-1.5,1.5c-0.8,0-1.5-0.4-1.5-1.5V22.5z"/>
	</g>
</g>
<path fill="#FFFFFF" d="M34,15h-5.3L22,5.6l-0.7-0.9h-2.7L18,5.5L11,15H6c-1.1,0-2,0.9-2,2s0.9,1.5,2,1.5h0.4h27.2H34
	c1.1,0,2-0.4,2-1.5S35.1,15,34,15z M13.3,15l5.4-7.4c0-0.7,0.6-1.3,1.3-1.3c0.3,0,0.5,0.1,0.7,0.3h0l0,0C21,6.8,21.2,7,21.3,7.3
	l5.1,7.7H13.3z"/>
<rect x="-42.3" y="-69.6" fill="none" stroke="#E83944" stroke-miterlimit="10" width="292.5" height="186"/>
</svg>
