<?xml version="1.0" encoding="utf-8"?>
<!-- Generator: Adobe Illustrator 17.1.0, SVG Export Plug-In . SVG Version: 6.00 Build 0)  -->
<!DOCTYPE svg PUBLIC "-//W3C//DTD SVG 1.1//EN" "http://www.w3.org/Graphics/SVG/1.1/DTD/svg11.dtd">
<svg version="1.1" id="Layer_1" xmlns="http://www.w3.org/2000/svg" xmlns:xlink="http://www.w3.org/1999/xlink" x="0px" y="0px"
	 viewBox="0 0 293.6 83.9" enable-background="new 0 0 293.6 83.9" xml:space="preserve">
<g>
	<g>
		<path d="M0,68.5c0-0.2,0.2-0.4,0.4-0.4h8.9c0.2,0,0.4,0.2,0.4,0.4v1.3c0,0.2-0.2,0.4-0.4,0.4H2.3v5.2h6c0.2,0,0.4,0.2,0.4,0.4V77
			c0,0.2-0.2,0.4-0.4,0.4h-6v5.9c0,0.2-0.2,0.4-0.4,0.4H0.4c-0.2,0-0.4-0.2-0.4-0.4V68.5z"/>
		<path d="M25.1,67.8c4.5,0,8,3.6,8,8.1c0,4.5-3.6,8-8,8c-4.5,0-8-3.6-8-8C17.1,71.4,20.6,67.8,25.1,67.8z M25.1,81.7
			c3.2,0,5.8-2.6,5.8-5.8c0-3.2-2.6-5.8-5.8-5.8c-3.2,0-5.8,2.7-5.8,5.8C19.3,79.1,21.9,81.7,25.1,81.7z"/>
		<path d="M41.9,68.5c0-0.2,0.2-0.4,0.4-0.4h6.1c2.7,0,4.9,2.1,4.9,4.8c0,2.1-1.4,3.8-3.3,4.5l3.1,5.7c0.2,0.3,0,0.6-0.4,0.6h-1.7
			c-0.2,0-0.3-0.1-0.4-0.2l-3-5.9h-3.4v5.7c0,0.2-0.2,0.4-0.4,0.4h-1.5c-0.2,0-0.4-0.2-0.4-0.4V68.5z M48.3,75.7
			c1.5,0,2.7-1.2,2.7-2.8c0-1.5-1.3-2.7-2.7-2.7h-4v5.4H48.3z"/>
		<path d="M63.5,68.5c0-0.2,0.2-0.4,0.4-0.4h8.9c0.2,0,0.4,0.2,0.4,0.4v1.3c0,0.2-0.2,0.4-0.4,0.4h-7.1v5.2h6c0.2,0,0.4,0.2,0.4,0.4
			V77c0,0.2-0.2,0.4-0.4,0.4h-6v5.9c0,0.2-0.2,0.4-0.4,0.4h-1.5c-0.2,0-0.4-0.2-0.4-0.4V68.5z"/>
		<path d="M80.2,83.1l6.9-15c0.1-0.1,0.3-0.2,0.4-0.2h0.2c0.1,0,0.3,0.1,0.4,0.2l6.8,15c0.1,0.3,0,0.6-0.4,0.6h-1.4
			c-0.3,0-0.4-0.1-0.5-0.3l-1.4-3.1h-7.3c-0.4,1-0.9,2-1.4,3.1c-0.1,0.2-0.2,0.3-0.5,0.3h-1.4C80.3,83.7,80.1,83.4,80.2,83.1z
			 M90.4,78.4l-2.7-6.1h-0.1l-2.7,6.1H90.4z"/>
		<path d="M105.1,70.2h-3.6c-0.2,0-0.4-0.2-0.4-0.4v-1.3c0-0.2,0.2-0.4,0.4-0.4h9.6c0.2,0,0.4,0.2,0.4,0.4v1.3
			c0,0.2-0.2,0.4-0.4,0.4h-3.6v13.1c0,0.2-0.2,0.4-0.4,0.4h-1.5c-0.2,0-0.4-0.2-0.4-0.4V70.2z"/>
		<path d="M123.2,70.2h-3.6c-0.2,0-0.4-0.2-0.4-0.4v-1.3c0-0.2,0.2-0.4,0.4-0.4h9.6c0.2,0,0.4,0.2,0.4,0.4v1.3
			c0,0.2-0.2,0.4-0.4,0.4h-3.6v13.1c0,0.2-0.2,0.4-0.4,0.4h-1.5c-0.2,0-0.4-0.2-0.4-0.4V70.2z"/>
		<path d="M138.7,68.5c0-0.2,0.2-0.4,0.4-0.4h8.9c0.2,0,0.4,0.2,0.4,0.4v1.3c0,0.2-0.2,0.4-0.4,0.4H141v4.6h6c0.2,0,0.4,0.2,0.4,0.4
			v1.3c0,0.2-0.2,0.4-0.4,0.4h-6v4.8h7.1c0.2,0,0.4,0.2,0.4,0.4v1.2c0,0.2-0.2,0.4-0.4,0.4h-8.9c-0.2,0-0.4-0.2-0.4-0.4V68.5z"/>
		<path d="M158.6,68.5c0-0.2,0.2-0.4,0.4-0.4h6.1c2.7,0,4.9,2.1,4.9,4.8c0,2.1-1.4,3.8-3.3,4.5l3.1,5.7c0.2,0.3,0,0.6-0.4,0.6h-1.7
			c-0.2,0-0.3-0.1-0.4-0.2l-3-5.9h-3.4v5.7c0,0.2-0.2,0.4-0.4,0.4H159c-0.2,0-0.4-0.2-0.4-0.4V68.5z M164.9,75.7
			c1.5,0,2.7-1.2,2.7-2.8c0-1.5-1.3-2.7-2.7-2.7h-4v5.4H164.9z"/>
		<path d="M179.1,81.4c0.2-0.3,0.4-0.6,0.6-0.9c0.2-0.3,0.5-0.4,0.8-0.2c0.1,0.1,1.9,1.5,3.6,1.5c1.5,0,2.5-0.9,2.5-2.1
			c0-1.3-1.2-2.2-3.4-3.1c-2.3-1-4.1-2.1-4.1-4.7c0-1.7,1.3-4.1,4.9-4.1c2.2,0,3.9,1.2,4.1,1.3c0.2,0.1,0.4,0.4,0.1,0.8
			c-0.2,0.3-0.4,0.6-0.6,0.8c-0.2,0.3-0.5,0.4-0.8,0.2c-0.2-0.1-1.7-1.1-3-1.1c-1.9,0-2.5,1.2-2.5,2c0,1.3,1,2.1,2.8,2.8
			c2.6,1.1,4.8,2.3,4.8,5c0,2.3-2.1,4.2-5,4.2c-2.7,0-4.4-1.4-4.8-1.8C179,82,178.9,81.8,179.1,81.4z"/>
		<path d="M198.8,68.6c0-0.3,0.2-0.5,0.5-0.5h1.3c0.3,0,0.5,0.2,0.5,0.5v6.2l6.3-6.5c0.1-0.1,0.2-0.2,0.4-0.2h1.7
			c0.4,0,0.6,0.5,0.3,0.8l-6.5,6.6l6.8,7.5c0.2,0.2,0.1,0.7-0.4,0.7h-1.8c-0.2,0-0.4-0.1-0.4-0.2l-6.5-7.3v7c0,0.3-0.2,0.5-0.5,0.5
			h-1.3c-0.3,0-0.5-0.2-0.5-0.5V68.6z"/>
		<path d="M226,67.8c4.5,0,8,3.6,8,8.1c0,4.5-3.6,8-8,8c-4.5,0-8-3.6-8-8C218,71.4,221.5,67.8,226,67.8z M226,81.7
			c3.2,0,5.8-2.6,5.8-5.8c0-3.2-2.6-5.8-5.8-5.8c-3.2,0-5.8,2.7-5.8,5.8C220.2,79.1,222.8,81.7,226,81.7z"/>
		<path d="M243.9,68.5c0-0.2,0.2-0.4,0.4-0.4h1.5c0.2,0,0.4,0.2,0.4,0.4v13.1h6.1c0.2,0,0.4,0.2,0.4,0.4v1.2c0,0.2-0.2,0.4-0.4,0.4
			h-8c-0.2,0-0.4-0.2-0.4-0.4V68.5z"/>
		<path d="M261.8,68.5c0-0.2,0.2-0.4,0.4-0.4h8.9c0.2,0,0.4,0.2,0.4,0.4v1.3c0,0.2-0.2,0.4-0.4,0.4h-7.1v4.6h6
			c0.2,0,0.4,0.2,0.4,0.4v1.3c0,0.2-0.2,0.4-0.4,0.4h-6v4.8h7.1c0.2,0,0.4,0.2,0.4,0.4v1.2c0,0.2-0.2,0.4-0.4,0.4h-8.9
			c-0.2,0-0.4-0.2-0.4-0.4V68.5z"/>
		<path d="M281.7,68.2c0-0.2,0.2-0.4,0.4-0.4h0.6l9.7,11.2h0V68.5c0-0.2,0.2-0.4,0.4-0.4h1.4c0.2,0,0.4,0.2,0.4,0.4v15
			c0,0.2-0.2,0.4-0.4,0.4h-0.6l-9.7-11.5h0v10.9c0,0.2-0.2,0.4-0.4,0.4h-1.4c-0.2,0-0.4-0.2-0.4-0.4V68.2z"/>
	</g>
	<g>
		<polygon fill="#852635" points="150.7,3.6 150.7,45.6 173.4,40 173.4,0 		"/>
		<polygon fill="#E83944" points="150.7,3.6 150.7,45.6 128,40 128,0 		"/>
	</g>
</g>
</svg>
