<?xml version="1.0" encoding="utf-8"?>
<!-- Generator: Adobe Illustrator 17.1.0, SVG Export Plug-In . SVG Version: 6.00 Build 0)  -->
<!DOCTYPE svg PUBLIC "-//W3C//DTD SVG 1.1//EN" "http://www.w3.org/Graphics/SVG/1.1/DTD/svg11.dtd">
<svg version="1.1" id="Layer_1" xmlns="http://www.w3.org/2000/svg" xmlns:xlink="http://www.w3.org/1999/xlink" x="0px" y="0px"
	 viewBox="0 0 25.7 34.3" enable-background="new 0 0 25.7 34.3" xml:space="preserve">
<g>
	<path fill="none" stroke="#E83944" stroke-width="1.5" stroke-miterlimit="10" d="M25,30.7c0,1.6-1.3,2.9-2.9,2.9H3.6
		c-1.6,0-2.9-1.3-2.9-2.9V3.6C0.8,2,2,0.8,3.6,0.8h18.5C23.7,0.8,25,2,25,3.6V30.7z"/>
	<path fill="none" stroke="#E83944" stroke-width="1.5" stroke-miterlimit="10" d="M12.9,29.3c-0.8,0-1.4,0.6-1.4,1.4
		c0,0.8,0.6,1.4,1.4,1.4c0.8,0,1.4-0.6,1.4-1.4C14.3,29.9,13.7,29.3,12.9,29.3L12.9,29.3z"/>
	<rect x="3.6" y="5" fill="none" stroke="#E83944" stroke-width="1.5" stroke-miterlimit="10" width="18.5" height="22.8"/>
	<path fill="none" stroke="#E83944" stroke-width="1.5" stroke-miterlimit="10" d="M12.9,2.2c-0.4,0-0.7,0.3-0.7,0.7
		c0,0.4,0.3,0.7,0.7,0.7c0.4,0,0.7-0.3,0.7-0.7C13.6,2.5,13.3,2.2,12.9,2.2L12.9,2.2z"/>
</g>
</svg>
