<?xml version="1.0" encoding="UTF-8"?>
<svg xmlns="http://www.w3.org/2000/svg" xmlns:xlink="http://www.w3.org/1999/xlink" height="120" viewBox="0 0 220 120" width="220">
  <linearGradient id="a">
    <stop offset="0" stop-color="#fddfb8"></stop>
    <stop offset="1" stop-color="#f6c890"></stop>
  </linearGradient>
  <linearGradient id="b" x1="100.000653%" x2="-12.682087%" xlink:href="#a" y1="45.77763%" y2="45.77763%"></linearGradient>
  <linearGradient id="c" x1=".001422%" x2="116.909727%" xlink:href="#a" y1="47.7765%" y2="47.7765%"></linearGradient>
  <mask id="d" fill="#fff">
    <path d="m6.647 9.614c-1.158 5.596-1.736 9.745-1.448 13.219.29 3.474.321 4.259-2.123 6.174-2.248 1.765-3.086 2.027-2.218 3.378.868 1.351 1.929 2.026 2.027 2.991.096.965-.583 2.605.721 3.28 0 1.23-.191 1.905 1.593 3.69 1.955 1.955.441 4.943 2.46 6.688 2.642 2.285 11.379.273 11.379.273s1.888 6.331 1.02 12.505c6.078.097 20.455-3.087 26.629-5.788-1.833-6.176-6.367-13.219-3.762-21.805 2.605-8.588 5.21-7.623 5.692-18.236.483-10.613-12.06-14.086-21.612-15.051-.455-.046-.913-.068-1.372-.068-9.185 0-18.986 8.75-18.986 8.75" fill="#fff" fill-rule="evenodd"></path>
  </mask>
  <mask id="e" fill="#fff">
    <path d="m3.076 2.007c-1.056.829-1.8 1.327-2.203 1.761 4.377.65 13.901.831 14.242-1.389.231-1.512-1.787-1.366-4.301-1.22-2.066.12-4.468.239-6.233-.56-.344.437-.83.88-1.505 1.408" fill="#fff" fill-rule="evenodd"></path>
  </mask>
  <mask id="f" fill="#fff">
    <path d="m21.63.271c-9.552.965-22.095 4.438-21.612 15.051.482 10.612 4.01 10.201 7.298 18.55 3.83 9.725.917 17.056-.917 23.231 6.175 2.701 17.517 6.481 23.597 6.384-.87-6.174.782-12.608.782-12.608s7.068 1.296 9.031-.848c1.6-1.747-.868-3.631.868-5.464 1.736-1.833 1.349-2.383 1.108-3.735 1.859-.609.917-2.022 1.027-3.247.087-.967 3.712-1.365 4.086-2.927.293-1.221-.578-1.733-2.412-3.473-3.157-2.999-2.073-4.498-1.051-9.014.979-4.328-.3-9.318-3.188-13.218-3.024-4.081-8.135-8.799-16.342-8.799-.733 0-1.492.038-2.275.117z" fill="#fff" fill-rule="evenodd"></path>
  </mask>
  <mask id="g" fill="#fff">
    <path d="m4.898 1.433c-2.66-.248-4.828-.495-4.597 1.012.327 2.133 9.574 2.05 14.274 1.749-.313-.289-.677-.618-1.089-1.009-.889-.845-1.442-1.57-1.754-2.278-1.804.958-4.507.742-6.834.526" fill="#fff" fill-rule="evenodd"></path>
  </mask>
  <mask id="h" fill="#fff">
    <path d="m22.864.991s-9.574 7.916-22.75 10.906c.176 1.95.212 4.015-.056 5.915 6.078.097 20.455-3.087 26.629-5.788-1.003-3.381-2.81-7.024-3.818-11.034" fill="#fff" fill-rule="evenodd"></path>
  </mask>
  <mask id="i" fill="#fff">
    <path d="m5.76 2.495c-.802 1.525-3.376 7.234-5.113 13.119s7.719.098 17.951 1.737c10.232 1.641 24.019 4.632 24.019 4.632s.098-3.341.014-5.144c-.062-1.285-.039-2.856-.159-4.136-.434-4.614.869-7.943-13.942-10.593-6.047-1.083-10.849-1.513-14.462-1.513-5.024 0-7.746.833-8.308 1.898" fill="#fff" fill-rule="evenodd"></path>
  </mask>
  <mask id="j" fill="#fff">
    <path d="m5.76 2.495c-.802 1.525-3.376 7.234-5.113 13.119s7.719.098 17.951 1.737c10.232 1.641 24.019 4.632 24.019 4.632s.098-3.341.014-5.144c-.062-1.285-.039-2.856-.159-4.136-.434-4.614.869-7.943-13.942-10.593-6.047-1.083-10.849-1.513-14.462-1.513-5.024 0-7.746.833-8.308 1.898" fill="#fff" fill-rule="evenodd"></path>
  </mask>
  <mask id="k" fill="#fff">
    <path d="m5.76 2.495c-.802 1.525-3.376 7.234-5.113 13.119s7.719.098 17.951 1.737c10.232 1.641 24.019 4.632 24.019 4.632s.098-3.341.014-5.144c-.062-1.285-.039-2.856-.159-4.136-.434-4.614.869-7.943-13.942-10.593-6.047-1.083-10.849-1.513-14.462-1.513-5.024 0-7.746.833-8.308 1.898z" fill="#fff" fill-rule="evenodd"></path>
  </mask>
  <g fill="none" fill-rule="evenodd" transform="translate(29 9)">
    <g transform="translate(21 18.0198)">
      <path d="m39.7847 10.4189c0 5.675-5.292 10.275-11.819 10.275-6.528 0-11.82-4.6-11.82-10.275s5.292-10.276 11.82-10.276c6.527 0 11.819 4.601 11.819 10.276" fill="#92acbf"></path>
      <path d="m43.8717 17.2602c0 5.675-4.601 10.275-10.275 10.275-5.676 0-10.276-4.6-10.276-10.275s4.6-10.275 10.276-10.275c5.674 0 10.275 4.6 10.275 10.275" fill="#92acbf"></path>
      <path d="m36.5513 13.8813-.077 12.557 1.558.079c2.935-1.409 5.093-4.165 5.674-7.472-3.661-4.34-7.155-5.164-7.155-5.164" fill="#6b8295"></path>
      <path d="m12.2574 47.7681c.358 2.635-1.978 5.128-5.218 5.569-3.24.442-6.158-1.336-6.516-3.971-.36-2.635 1.976-5.128 5.217-5.57 3.241-.441 6.159 1.337 6.517 3.972" fill="#92acbf"></path>
      <path d="m66.151 20.7114c1.026.757 4.263 1.786 8.234 2.799 3.119.796 6.689 1.581 9.998 2.218 7.527 1.447 2.099-8.587 2.099-8.587l-17.234 2.087-2.56.945z" fill="#a68602"></path>
      <path d="m82.647 20.6147c-1.158 5.596-1.736 9.745-1.447 13.218.289 3.474.32 4.26-2.123 6.175-2.249 1.765-3.087 2.026-2.219 3.377s1.93 2.026 2.026 2.991c.097.965-.582 2.605.722 3.281 0 1.229-.191 1.904 1.594 3.69 1.954 1.954.44 4.942 2.459 6.688 2.642 2.285 11.379.272 11.379.272s1.888 6.33 1.02 12.505c6.078.097 20.454-3.087 26.629-5.788-1.833-6.176-6.367-13.219-3.763-21.805 2.606-8.588 5.21-7.623 5.693-18.236.482-10.613-12.06-14.086-21.613-15.051-9.551-.965-20.357 8.683-20.357 8.683" fill="#fedfb8"></path>
    </g>
    <path d="m19.0377 49.3071s2.679-.512 8.618-2.45c3.402-1.11-2.05 7.239-9.721 9.795-3.28-1.543 1.103-7.345 1.103-7.345" fill="#f7c991" mask="url(#d)" transform="translate(97 29.0198)"></path>
    <path d="m3.076 2.007c-1.056.829-1.8 1.327-2.203 1.761 4.377.65 13.901.831 14.242-1.389.231-1.512-1.787-1.366-4.301-1.22-2.066.12-4.468.239-6.233-.56-.344.437-.83.88-1.505 1.408" fill="url(#b)" mask="url(#e)" transform="translate(97 56.0198)"></path>
    <path d="m59.2467 33.9734c2.889 3.899 4.167 8.89 3.188 13.218-1.021 4.515-2.106 6.015 1.051 9.013 1.834 1.74 2.705 2.252 2.412 3.473-.374 1.562-3.999 1.961-4.086 2.927-.11 1.225.832 2.638-1.027 3.248.241 1.351.629 1.901-1.107 3.735-1.737 1.833.731 3.716-.868 5.463-1.964 2.144-9.032.848-9.032.848s-1.651 6.434-.782 12.609c-6.079.096-17.422-3.683-23.597-6.385 1.834-6.174 4.747-13.506.917-23.23-3.288-8.349-6.815-7.938-7.298-18.551-.482-10.613 12.06-14.086 21.613-15.051 9.552-.965 15.322 4.237 18.616 8.683" fill="#fedfb8"></path>
    <path d="m30.7779 50.8784s-6.494-1.367-11.092-4.593c3.871 5.243 6.33 7.863 9.658 9.093 3.329 1.231 2.921-2.801 2.921-2.801z" fill="#f7c991" mask="url(#f)" transform="translate(19 25.0198)"></path>
    <path d="m4.898 1.433c-2.66-.248-4.828-.495-4.597 1.012.327 2.133 9.574 2.05 14.274 1.749-.313-.289-.677-.618-1.089-1.009-.889-.845-1.442-1.57-1.754-2.278-1.804.958-4.507.742-6.834.526" fill="url(#c)" mask="url(#g)" transform="translate(50 53.0198)"></path>
    <g transform="translate(109 29.0198)">
      <path d="m15.0045.9316c-4.404-.445-9.073 1.368-12.829 3.45l-1.45001654 2.725s-.07298346 8.466 9.47901654 10.854c.29 4.848 2.394 14.255 2.394 14.255s8.172 6.223 13.382 8.901c3.67 1.887 4.382 2.061 4.485 2-.005-.028-.008-.056-.013-.084-.004-.004-.007-.008-.007-.008l.005-.005c-.47-2.751-.475-5.673.474-8.801 2.605-8.588 5.21-7.623 5.692-18.236.483-10.613-12.06-14.086-21.612-15.051" fill="#384652"></path>
      <path d="m20.8619 31.6186c-.812 3.565-3.328 6.033-5.619 5.511s-3.489-3.835-2.677-7.401c.813-3.565 3.328-6.032 5.619-5.51s3.489 3.835 2.677 7.4" fill="#fedfb8"></path>
      <path d="m8.0582 61.812c6.078.097 20.454-3.087 26.629-5.789-1.003-3.38-2.811-7.023-3.818-11.034l-.004.001s-9.575 7.917-22.751 10.906c.175 1.951.212 4.016-.056 5.916" fill="#6b8295"></path>
    </g>
    <path d="m-3.3139 15.1118c8.886-1.2 15.085-3.818 19.717-6.021 4.632-2.204 10.977-6.696 10.977-6.696" mask="url(#h)" stroke="#5a6c7a" stroke-width="2" transform="translate(117 73.0198)"></path>
    <g transform="translate(13 .0198)">
      <path d="m97.2281 38.9785c2.777-2.486-6.581-.364-6.581-.364-.529 2.56-.931 4.804-1.19 6.832.077-.143 2.937-5.395 7.771-6.468" fill="#17222a"></path>
      <path d="m68.0592.98c-12.509 0-22.308 5.36-22.308 12.202 0 4.12 3.472 7.785 9.391 10.023l-.743 2.708c-.227.822.094 1.697.798 2.179.341.234.736.35 1.13.35.419 0 .837-.131 1.191-.393l4.24-3.143c2.041.316 4.156.477 6.301.477s4.26-.161 6.301-.477l4.24 3.143c.354.262.772.393 1.191.393.394 0 .789-.116 1.13-.35.704-.482 1.025-1.357.798-2.179l-.743-2.708c5.919-2.238 9.391-5.903 9.391-10.023 0-6.842-9.799-12.202-22.308-12.202m0 2c11.216 0 20.308 4.567 20.308 10.202 0 3.705-3.935 6.949-9.819 8.735l1.243 4.525-4.922-3.649c-2.129.381-4.421.59-6.81.59s-4.681-.209-6.81-.59l-4.922 3.649 1.243-4.525c-5.884-1.786-9.819-5.03-9.819-8.735 0-5.635 9.092-10.202 20.308-10.202" fill="#92acbf"></path>
      <path d="m87.6109 67.5561c1.399-.048 2.806-.116 4.188-.34 1.395-.154 2.755-.486 4.1-.884.045-.013.093.013.107.058.005.021.003.043-.005.061l-.033.069c-.423.901-1.056 1.49-1.733 1.899-.676.432-1.414.678-2.162.778-.75.096-1.513.069-2.27-.158-.752-.207-1.506-.558-2.202-1.283l-.05-.053c-.033-.034-.032-.089.002-.123.017-.015.037-.023.058-.024" fill="#cf9544"></path>
      <path d="m47.7896 65.9326c-.695.725-1.45 1.076-2.202 1.283-.757.227-1.52.254-2.27.157-.747-.1-1.486-.345-2.162-.777-.677-.41-1.309-.998-1.733-1.899l-.032-.069c-.021-.043-.002-.094.041-.114.019-.009.042-.011.061-.005 1.344.398 2.704.73 4.099.884 1.383.224 2.789.291 4.188.34.049.002.086.042.0840774.09 0 .022-.0100774.042-.0230774.057z" fill="#cf9544"></path>
      <path d="m36.7467 64.4165c-.113-.785.001-1.304.186-1.719.175-.433.457-.721.792-.921.336-.193.739-.29 1.208-.223.458.049.98.223 1.578.744l.085.075c.028.024.031.067.006.096-.004.006-.011.011-.018.015-.625.345-1.267.644-1.866 1.029-.635.323-1.226.723-1.853 1.065-.034.019-.076.006-.095-.027-.003-.008-.005-.016-.007-.024z" fill="#f7c991"></path>
      <path d="m93.6002 49.6743-.457 2.837 6.368.767s1.926-1.136 1.776-2.718c-.148-1.54-1.016-2.406-1.016-2.406z" fill="#f7c991"></path>
      <path d="m101.0133 48.4839c-1.297.048-2.602.14-3.869.414-1.283.208-2.515.622-3.699 1.154-.043.019-.093 0-.113-.043-.008-.019-.009-.039-.005-.057l.022-.076c.255-.924.796-1.573 1.405-2.032.606-.481 1.304-.774 2.014-.909.713-.134 1.446-.13 2.17.081.719.192 1.44.537 2.086 1.268l.051.057c.031.036.028.09-.008.122-.016.013-.034.02-.054.021" fill="#384652"></path>
      <path d="m99.4947 53.3769c-1.066-.089-2.12-.261-3.183-.357-1.055-.166-2.117-.253-3.174-.409-.043-.006-.074-.046-.067-.089.002-.016.009-.03.019-.041l.06-.069c.58-.666 1.163-.989 1.732-1.183.572-.214 1.132-.255 1.675-.193.543.069 1.073.242 1.573.586.502.324.984.771 1.398 1.558l.043.081c.021.039.006.087-.033.107-.014.008-.028.01-.043.009" fill="#17222a"></path>
      <path d="m96.3277 53.833c0 1.099-.413 1.99-.923 1.99s-.923-.891-.923-1.99.413-1.99.923-1.99.923.891.923 1.99" fill="#17222a"></path>
      <path d="m45.5396 46.8027-1.683 2.327-6.368.767s-1.925-1.136-1.774-2.718c.146-1.541 1.137-2.177 1.137-2.177l4.616-.279z" fill="#f7c991"></path>
      <path d="m36.8472 44.9023c.735-.736 1.544-1.083 2.353-1.274.813-.21 1.638-.21 2.445-.067.806.153 1.601.461 2.305.974.702.5 1.34 1.197 1.64 2.181l.022.068c.013.047-.013.096-.059.11-.022.007-.046.004-.065-.006-1.321-.671-2.738-1.126-4.203-1.361-1.453-.292-2.944-.386-4.427-.425-.049-.002-.088-.042-.0860736-.091 0-.024.0100736-.045.0250736-.06z" fill="#384652"></path>
      <path d="m40.6734 50.4512c0 1.099.413 1.99.923 1.99.509 0 .922-.891.922-1.99s-.413-1.99-.922-1.99c-.51 0-.923.891-.923 1.99" fill="#5a6c7a"></path>
      <path d="m110.2574 61.3608c.416-.75.781-1.383.908-1.954.067-.281.082-.526.06-.76-.015-.118-.027-.233-.061-.351l-.127-.48c-.125-.51-.124-1.095.071-1.616.187-.52.526-.962.939-1.259.409-.305.897-.462 1.371-.49.476-.007.973.126 1.26.47-.836.178-1.256.687-1.526 1.138-.254.477-.279.855-.17 1.29-.004.052.106.401.129.626.029.256.038.519.003.78-.064.523-.276 1.018-.572 1.4-.606.764-1.429 1.152-2.285 1.206" fill="#cf9544"></path>
      <path d="m21.4449 54.8618c0 6.064-4.601 10.981-10.275 10.981-5.675 0-10.276-4.917-10.276-10.981 0-6.065 4.601-10.981 10.276-10.981 5.674 0 10.275 4.916 10.275 10.981" fill="#92acbf"></path>
      <path d="m44.6978 33.6055c0 5.675-4.601 10.275-10.276 10.275s-10.276-4.6-10.276-10.275 4.601-10.275 10.276-10.275 10.276 4.6 10.276 10.275" fill="#92acbf"></path>
      <path d="m14.7388 56.3896c.812 3.565 3.328 6.033 5.619 5.511s3.489-3.836 2.677-7.401c-.813-3.565-3.328-6.032-5.619-5.51s-3.489 3.835-2.677 7.4" fill="#fedfb8"></path>
      <path d="m11.3482 73.9927s.232 5.464-1.463 9.333c-.824 1.878-3.264 2.461-2.599 2.699 3.857 1.381 21.887 5.511 30.634 6.378-.311-5.283.573-9.213.748-10.793.071-.636-.326-1.224-.939-1.405l-24.705-7.273c-.765-.225-1.553.274-1.676 1.061" fill="#edc001"></path>
      <path d="m47.1431 74.7637c-1.978-.05-5.047 5.801-5.047 5.801s-.529 6.351-.529 7.1 2.247 6.742 2.247 6.742l15.217.737s1.928-6.813 1.928-8.312c0-1.498.75-3.745-1.997-5.326-1.728-.996-2.717-2.255-3.933-3.052-.715-.468-2.143-.777-2.143-.777s-.157-3.373-.178-4.044c-.041-1.379-1.153-2.1050046-2.069-2.1050046-.634-.0009954-2.045.1610046-2.268 1.8390046-.176 1.323-.395 2.978-.395 2.978s.187-1.556-.833-1.581" fill="#fedfb8"></path>
      <path d="m125.7672 37.4121c0 5.89-6.502 10.665-14.521 10.665-8.02 0-14.521-4.775-14.521-10.665s6.501-10.665 14.521-10.665c8.019 0 14.521 4.775 14.521 10.665" fill="#17222a"></path>
      <path d="m114.0924 42.8945c0 3.904 4.708 7.069 10.517 7.069 3.112 0 5.899-.914 7.825-2.358.077-.79.138-1.657.182-2.623.162-3.531-1.126-6.268-3.259-8.389-1.428-.488-3.037-.768-4.748-.768-5.809 0-10.517 3.165-10.517 7.069" fill="#17222a"></path>
      <path d="m90.647 38.6147c1.736-5.885 4.311-11.595 5.113-13.12.965-1.831 8.312-2.974 22.771-.385 14.809 2.651 13.508 5.98 13.941 10.593.12 1.28.098 2.851.158 4.136.085 1.803-.013 5.144-.013 5.144s-13.787-2.991-24.019-4.631-17.951-1.737-17.951-1.737" fill="#edc001"></path>
    </g>
    <path d="m46.3297 31.4292-13.71-2.327c-1.284-.217-2.148-1.435-1.931-2.718l1.638-9.65c.218-1.284 1.436-2.148 2.719-1.93l13.71 2.327c1.284.217 2.147 1.435 1.929 2.718l-1.636 9.65c-.218 1.284-1.436 2.148-2.719 1.93" fill="#a68602" mask="url(#i)" transform="translate(103 23.0198)"></path>
    <path d="m1.0357 9.0615c-.656 1.889-1.415 4.486-2.007 6.517-.224.77.323 1.544 1.124 1.587 2.978.163 9.809.623 17.084 1.716.728.109 2.302.448 2.3040379-.288.0039621-1.242-.3100379-6.452-.4430379-7.924-.055-.608-.36-1.155-.955-1.294-2.532-.593-9.898-1.805-16.083-1.145-.472.05-.868.382-1.024.831" fill="#fff" mask="url(#j)" transform="translate(103 23.0198)"></path>
    <path d="m1.0357 9.0615c-.656 1.889-1.415 4.486-2.007 6.517-.224.77.323 1.544 1.124 1.587 2.978.163 9.809.623 17.084 1.716.728.109 2.302.448 2.3040379-.288.0039621-1.242-.3100379-6.452-.4430379-7.924-.055-.608-.36-1.155-.955-1.294-2.532-.593-9.898-1.805-16.083-1.145-.472.05-.868.382-1.024.831z" mask="url(#k)" stroke="#a68602" stroke-width="2" transform="translate(103 23.0198)"></path>
    <g transform="translate(0 20.0198)">
      <path d="m121.5982 20.3515c-8.378-.239-13.45.71-19.167-.469-1.825-.376-4.359-1.182-7.362-1.689-5.409-.912-7.683.386-7.918.518v-.561c1.174-.579 3.404-1.047 4.158-1.194 4.981-.971 11.591-2.102 16.173-1.815 8.756.548 14.116 5.21 14.116 5.21" fill="#edc001"></path>
      <path d="m.4996 58.0596c19.63 10.69 48.443 17.44 80.56 17.44 32.116 0 60.929-6.75 80.559-17.44" stroke="#edc001" stroke-linecap="round" stroke-linejoin="round" stroke-width="3"></path>
      <path d="m34.567 39.7197c-.857-.053-1.68-.442-2.285-1.206-.297-.382-.509-.877-.572-1.4-.036-.26-.026-.524.003-.779.022-.226.133-.575.128-.626.109-.436.085-.814-.169-1.29-.27-.451-.69-.961-1.526-1.139.287-.344.783-.477 1.259-.47.475.029.963.185 1.372.49.413.297.751.739.939 1.259.194.522.195 1.107.07 1.616l-.127.48c-.034.118-.045.233-.061.351-.022.234-.006.479.061.76.126.571.492 1.204.908 1.954" fill="#cf9544"></path>
      <path d="m50.4722 29.7978c.414-.787.897-1.234 1.399-1.558.5-.344 1.03-.517 1.573-.586.544-.062 1.103-.021 1.674.193.57.195 1.152.517 1.733 1.183l.06.07c.029.032.026.082-.007.111-.012.01-.027.017-.04.019-1.059.155-2.121.242-3.175.408-1.064.097-2.117.268-3.183.357-.044.004-.082-.029-.086-.072-.001-.016.002-.031.009-.043z" fill="#17222a"></path>
      <path d="m28.9732 57.3042c1.391 1.317 2.745 2.448 4.125 3.532 1.376 1.081 2.783 2.071 4.218 3.033 1.467.914 2.929 1.847 4.477 2.711.753.479 1.562.851 2.336 1.349.788.468 1.608.88 2.404 1.458-.957.069-1.911.029-2.861-.058-.931-.151-1.887-.279-2.792-.574-1.84-.509-3.583-1.352-5.209-2.378-1.598-1.073-3.058-2.371-4.248-3.892-1.168-1.521-2.147-3.256-2.45-5.181" fill="#a68602"></path>
      <path d="m35.6422 32.8857s-1.075 6.125 4.491 8.123c-1.049-2.46-.791-7.678.189-9.344-2.167.512-4.68 1.221-4.68 1.221" fill="#6b8295"></path>
      <path d="m48.4127 15.9219c1.486 8.609-2.299 18.819-13.909 20.255-10.109 1.251-18.443-7.35-18.443-17.535s8.257-18.442 18.443-18.442c10.185 0 12.402 6.997 13.909 15.722" fill="#92acbf"></path>
      <path d="m50.6393417 13.1606c.0048583 1.229-.1221417 2.465-.4351417 3.667-.349 1.191-.887 2.327-1.59 3.353-1.41 2.06-3.519 3.587-5.821 4.486-1.157.443-2.359.767-3.581.942-1.215.223-2.482.23-3.706.073-2.431-.321-4.9-1.187-6.666-2.979-.055-.056-.055-.146.002-.202.041-.04.101-.051.151-.031l.061.023c1.208.463 2.323.701 3.453.822 1.115.138 2.222.127 3.271.084.526-.016 1.039-.113 1.529-.185.496-.068.92-.167 1.459-.331.518-.138 1.006-.323 1.504-.46.476-.191.974-.324 1.427-.534.935-.37 1.8-.82 2.615-1.335.83-.498 1.583-1.094 2.309-1.773.2-.159.353-.352.527-.538.178-.183.34-.379.495-.586.362-.388.655-.834.967-1.297.632-.933 1.119-2 1.729-3.199l.032-.064c.036-.069.122-.097.191-.061.049.024.0771417.074.0771417.125" fill="#fff"></path>
      <path d="m61.0748 56.3613c-.103.88-.328 1.754-.674 2.574-.337.822-.715 1.614-1.064 2.413-.362.794-.683 1.606-.955 2.435-.263.83-.523 1.669-.696 2.52-.009.05-.058.082-.108.072-.028-.006-.052-.025-.064-.05l-.025-.052c-.474-.992-.554-1.983-.532-2.942.036-.961.222-1.908.56-2.776.349-.871.816-1.636 1.365-2.255.537-.63 1.109-1.226 1.996-1.972l.052-.045c.038-.031.093-.026.124.011.017.019.023.044.021.067" fill="#f7c991"></path>
    </g>
  </g>
</svg>
