<?xml version="1.0" encoding="UTF-8"?>
<svg xmlns="http://www.w3.org/2000/svg" xmlns:xlink="http://www.w3.org/1999/xlink" height="120" viewBox="0 0 220 120" width="220">
  <mask id="a" fill="#fff">
    <path d="m.816 5.308c.122 6.113 2.722 13.709 5.87 18.704 3.546 5.628 2.812 11.375 1.834 15.043-.979 3.668-3.488 6.113-3.488 6.113h33.933s6.724-10.759 7.458-13.449c.734-2.69 2.078-6.237.979-14.061 1.222-4.403 2.023-8.193 1.045-14.918-.26-1.787-3.746-2.443-8.721-2.443-13.754-.001-38.91 5.011-38.91 5.011" fill="#fff" fill-rule="evenodd"></path>
  </mask>
  <mask id="b" fill="#fff">
    <path d="m.821 4.404c.123 6.113 2.722 13.708 5.869 18.704 1.226 1.946 1.933 3.905 2.302 5.79l.005.001h11.347s3.424-3.261 6.765-8.886c-.57-6.683 1.875-8.232 2.935-8.151 1.06.082 2.875 1.06 3.526 4.891 7.337-6.929 6.337-13.205 6.337-13.205l-16.835-2.785c-11.377 1.483-22.251 3.641-22.251 3.641" fill="#fff" fill-rule="evenodd"></path>
  </mask>
  <mask id="c" fill="#fff">
    <path d="m.574 12.12s7.513 5.945 29.061 4.243c6.319-.499 11.991-2.715 9.332-5.099-9.538-6.399-23.314-9.985-32.524-11.098-1.609 5.695-5.869 11.954-5.869 11.954" fill="#fff" fill-rule="evenodd"></path>
  </mask>
  <mask id="d" fill="#fff">
    <path d="m11.973 1.557c-3.862.49-8.548 4.07-10.174 11.108-1.482 6.417-.888 11.42-.888 11.42h48.112s-1.152-8.932-3.372-17.17c-.7-2.596-3.833-5.257-9.272-5.663-2.703-.203-6.331-.298-10.036-.298-5.57 0-11.316.215-14.37.603" fill="#fff" fill-rule="evenodd"></path>
  </mask>
  <mask id="e" fill="#fff">
    <path d="m-.0018.719h11.897v11.6808h-11.897z" fill="#fff" fill-rule="evenodd"></path>
  </mask>
  <g fill="none" fill-rule="evenodd" transform="translate(33 24)">
    <path d="m.8163 25.5892c.122 6.113 2.722 13.709 5.869 18.704 3.546 5.628 2.813 11.375 1.834 15.043-.978 3.668-3.487 6.113-3.487 6.113h33.932s6.725-10.759 7.459-13.45c.734-2.689 2.079-6.235.978-14.06 1.223-4.403 2.023-8.193 1.045-14.918-.979-6.725-47.63 2.568-47.63 2.568" fill="#fedfb8"></path>
    <path d="m47.9999 1.8178-15.158-1.105c-1.692.133-3.444.303-5.218.5-1.954 2.059.995 6.985 7.941 11.799 10.919-3.189 12.47-3.379 13.487-3.751.191-2.149-.028-1.69-.029-2.176-.001-.398-.671-4.978-1.023-5.267" fill="#cf9544" mask="url(#a)" transform="translate(0 20.2812)"></path>
    <g transform="translate(0 21.2812)">
      <path d="m27.1093 20.0131-11.493-3.016-9.775 4.667c.279.499.56.986.849 1.444 3.499 5.553 2.83 11.219 1.871 14.893 4.569 1.687 14.491 4.913 16.044 1.739 2.24-4.582 4.766-10.7 5.683-13.491-1.834-.836-3.057-4.116-3.179-6.236" fill="#cf9544"></path>
      <path d="m23.0722.7631c-11.377 1.483-22.251 3.641-22.251 3.641.122 6.113 2.722 13.709 5.869 18.704 1.226 1.946 1.933 3.905 2.302 5.79l.005.001h11.346s3.424-3.261 6.766-8.886c-.57-6.684 1.875-8.232 2.935-8.151 1.059.082 2.875 1.06 3.526 4.891 7.337-6.928 6.337-13.205 6.337-13.205z" fill="#384652"></path>
    </g>
    <path d="m42.5351 7.7338c0 3.807-14.447 6.892-32.268 6.892s-32.267-3.085-32.267-6.892c0-3.806 14.446-6.891 32.267-6.891s32.268 3.085 32.268 6.891" fill="#17222a" mask="url(#b)" transform="translate(0 21.2812)"></path>
    <g transform="translate(2 47.2812)">
      <path d="m28.288.2494c-.184 2.976-1.039 7.193 1.406 9.944 2.446 2.751 7.844 7.153 7.844 7.153l-2.722 3.301-18.327-1.65 3.362-11.832z" fill="#cf9544"></path>
      <path d="m.5732 19.1195s4.261-6.259 5.869-11.954c9.211 1.113 22.987 4.699 32.525 11.099 2.659 2.383-3.013 4.6-9.332 5.098-21.548 1.702-29.062-4.243-29.062-4.243" fill="#6b8295"></path>
    </g>
    <path d="m2.0742 5.2807c6.401.997 20.866 3.408 39.322 12.72" mask="url(#c)" stroke="#5a6c7a" stroke-linecap="round" stroke-width="2" transform="translate(2 54.2812)"></path>
    <path d="m.9111 27.3656h48.112s-1.152-8.932-3.372-17.17c-.7-2.596-3.833-5.256-9.271-5.663-6.768-.507-19.321-.341-24.406.306-3.863.49-8.549 4.069-10.175 11.108-1.482 6.416-.888 11.419-.888 11.419" fill="#edc001"></path>
    <path d="m.9111 24.0844h22.233v-3.292c0-2.41-1.954-4.363-4.363-4.363h-17.828c-.329 4.241-.042 7.655-.042 7.655" fill="#a68602" mask="url(#d)" transform="translate(0 3.2812)"></path>
    <g transform="translate(29 .2812)">
      <path d="m13.7158 27.0844 20.354.232s.06-.489-.12-.761c-.507-.77-7.164-3.311-14.736-4.712 0 0-.126 2.053-2.203 3.017-3.219 1.496-3.295 2.224-3.295 2.224" fill="#a68602"></path>
      <path d="m3.5751 44.1098c-.927-.392-1.672-1.184-2.093-2.172-.421-.992-.443-2.16-.154-3.184.19-.713.274-1.425.152-2.139-.061-.352-.157-.715-.351-1.02-.183-.32-.448-.596-.969-.63.166-.179.436-.327.732-.334.291-.011.592.07.853.199.517.275.928.711 1.199 1.209.556 1 .604 2.212.309 3.258-.201.737-.308 1.46-.254 2.244.042.789.266 1.614.576 2.569" fill="#cf9544"></path>
      <path d="m78.4306 27.5268c0-4.576-3.71-8.286-8.286-8.286s-8.286 3.71-8.286 8.286c0 4.577 3.71 8.287 8.286 8.287s8.286-3.71 8.286-8.287" fill="#fff"></path>
      <path d="m69.0976 40.5961c10.89 1.781 18.584 6.51 27.023 8.828 3.04-3.241 4.915-7.589 4.915-12.383 0-10.009-8.114-18.124-18.124-18.124-10.009 0-18.124 8.115-18.124 18.124 0 1.024.106 2.021.269 2.998 1.325.156 2.666.332 4.041.557" fill="#edc001"></path>
      <path d="m109.0712 30.2416c0-4.577-3.71-8.286-8.286-8.286-4.577 0-8.287 3.709-8.287 8.286 0 4.576 3.71 8.286 8.287 8.286 4.576 0 8.286-3.71 8.286-8.286" fill="#fff"></path>
      <path d="m117.3574 32.6654c0-4.576-3.71-8.286-8.286-8.286-4.577 0-8.286 3.71-8.286 8.286 0 4.577 3.709 8.287 8.286 8.287 4.576 0 8.286-3.71 8.286-8.287" fill="#fff"></path>
      <path d="m5.9472 12.3998c-.874-2.811-3.118-5.013-5.949-5.84 2.831-.828 5.075-3.03 5.949-5.841.874 2.811 3.118 5.013 5.948 5.841-2.83.827-5.074 3.029-5.948 5.84" fill="#edc001" mask="url(#e)" transform="translate(81)"></path>
      <path d="m99.2451 19.3197c-.583-1.876-2.081-3.346-3.97-3.897 1.889-.552 3.387-2.022 3.97-3.898.583 1.876 2.08 3.346 3.969 3.898-1.889.551-3.386 2.021-3.969 3.897" fill="#f7c991"></path>
      <path d="m71.9726 13.8256c-.345-1.107-1.229-1.975-2.344-2.301 1.115-.326 1.999-1.193 2.344-2.301.344 1.108 1.228 1.975 2.343 2.301-1.115.326-1.999 1.194-2.343 2.301" fill="#edc001"></path>
      <path d="m69.0976 40.5961c4.91.803 9.171 2.206 13.143 3.718l3.362-3.363-24.67-24.668-25.866 25.868c8.34-2.35 19.844-3.875 34.031-1.555" fill="#a68602"></path>
      <path d="m107.8525 50.6449c7.298-.583 12.631-3.208 16.273-5.879l-22.204-22.164-9.508 9.51-3.114-3.113-13.211 13.211c11.625 3.434 19.909 9.382 31.764 8.435" fill="#f7c991"></path>
      <path d="m29.0849 44.8422c1.553 1.574 2.583 2.419 3.488 3.728 1.671 2.415 1.289 6.489 7.566 10.157 6.276 3.668 8.002 8.733 8.002 8.733s2.577 1.553 6.776 1c3.735-.49 4.863-2.37 4.863-2.37s-7.379-19.762-8.838-24.155-3.724-5.921-5.379-6.277c-2.036-.436-18.009-3.676-20.144-4.109-.179-.036-.355.015-.49.137-.271.245-.64.751-.479 1.609-.519-.087-1.344-.243-1.804-.331-.204-.039-.393.092-.443.292-.308 1.233-.267 3.079 2.247 4.114 2.772 1.142 6.2 2.359 6.2 2.359s-2.419-.472-3.159.998c-.873 1.731.4 2.904 1.594 4.115" fill="#fedfb8"></path>
      <path d="m30.6982 39.641c1.136-.177 2.118-.016 3.029.267.923.266 1.754.701 2.516 1.238.758.541 1.446 1.195 2.004 1.99.567.781 1.032 1.691 1.19 2.82l-.14.143c-1.342-1.185-2.729-2.315-4.21-3.323-1.443-1.062-2.966-2.009-4.485-2.959z" fill="#f7c991"></path>
    </g>
  </g>
</svg>
