<?xml version="1.0" encoding="UTF-8"?>
<svg xmlns="http://www.w3.org/2000/svg" xmlns:xlink="http://www.w3.org/1999/xlink" height="120" viewBox="0 0 220 120" width="220">
  <mask id="a" fill="#fff">
    <path d="m.1772.1737h21.9458v21.947h-21.9458z" fill="#fff" fill-rule="evenodd"></path>
  </mask>
  <g fill="none" fill-rule="evenodd" transform="translate(48 19)">
    <g stroke="#6b8295" stroke-linecap="round" stroke-width="3">
      <path d="m22.0519 6.5444c.767-.225 1.743-.485 2.897-.769"></path>
      <path d="m32.6857 4.0908c19.205-3.745 54.118-7.733 58.745 5.866 8.378 24.619-77.928 34.757-66.669 60.974 9.047 21.068 56.568-.171 80.695-.239" stroke-dasharray="5.939 7.918"></path>
      <path d="m109.4113 70.9062c1.049.129 2.03.318 2.939.576"></path>
    </g>
    <path d="m17.7355 10.7651c0-4.897-3.971-8.868-8.868-8.868s-8.867 3.971-8.867 8.868 3.97 8.868 8.867 8.868 8.868-3.971 8.868-8.868" fill="#17222a"></path>
    <path d="m3.6262 22.1207-3.449-3.449 18.498-18.498 3.448 3.448z" fill="#17222a" mask="url(#a)" transform="translate(101 58.7479)"></path>
    <path d="m101.1838 62.372 3.45-3.449 18.489 18.496-3.45 3.449z" fill="#17222a"></path>
    <path d="m61.6867 40.5795c0-4.074-3.303-7.376-7.377-7.376s-7.376 3.302-7.376 7.376 3.302 7.376 7.376 7.376 7.377-3.302 7.377-7.376" fill="#f7f7f6"></path>
    <path d="m41.5304 24.2011c0 9.691 11 19.086 11 19.086s11-9.395 11-19.086c0-6.076-4.926-11-11-11s-11 4.924-11 11" fill="#edc001"></path>
    <path d="m57.5304 24.2441c0-2.762-2.238-5-5-5s-5 2.238-5 5 2.238 5 5 5 5-2.238 5-5" fill="#fff"></path>
  </g>
</svg>
