<?xml version="1.0" encoding="UTF-8"?>
<svg xmlns="http://www.w3.org/2000/svg" xmlns:xlink="http://www.w3.org/1999/xlink" height="120" viewBox="0 0 220 120" width="220">
  <mask id="a" fill="#fff">
    <path d="m.326 13.949 17.835 46.041 39.772-7.514s.402 1.758 4.208 1.12c3.807-.64 3.709-2.718 3.709-2.718l27.47-7.354 1.969-9.113-54.873-24.619-31.29-9.271" fill="#fff" fill-rule="evenodd"></path>
  </mask>
  <mask id="b" fill="#fff">
    <path d="m.326 13.949 17.835 46.041 39.772-7.514s.402 1.758 4.208 1.12c3.807-.64 3.709-2.718 3.709-2.718l27.47-7.354 1.969-9.113-54.873-24.619-31.29-9.271" fill="#fff" fill-rule="evenodd"></path>
  </mask>
  <mask id="c" fill="#fff">
    <path d="m.326 13.949 17.835 46.041 39.772-7.514s.402 1.758 4.208 1.12c3.807-.64 3.709-2.718 3.709-2.718l27.47-7.354 1.969-9.113-54.873-24.619-31.29-9.271" fill="#fff" fill-rule="evenodd"></path>
  </mask>
  <mask id="d" fill="#fff">
    <path d="m.326 13.949 17.835 46.041 39.772-7.514s.402 1.758 4.208 1.12c3.807-.64 3.709-2.718 3.709-2.718l27.47-7.354 1.969-9.113-54.873-24.619-31.29-9.271z" fill="#fff" fill-rule="evenodd"></path>
  </mask>
  <mask id="e" fill="#fff">
    <path d="m47.766 6.164c-10.128 5.749-10.929 8.952-10.929 8.952s-6.543-6.555-19.682-7.194c-9.031-.44-17.029 1.599-17.029 1.599l18.369 43.802s22.346-7.513 34.42 4.476 11.787-17.904 33.374-14.388c-3.525-9.308-16.9-43.163-16.9-43.163s-12.047.481-21.623 5.916" fill="#fff" fill-rule="evenodd"></path>
  </mask>
  <mask id="f" fill="#fff">
    <path d="m47.766 6.164c-10.128 5.749-10.929 8.952-10.929 8.952s-6.543-6.555-19.682-7.194c-9.031-.44-17.029 1.599-17.029 1.599l18.369 43.802s22.346-7.513 34.42 4.476 11.787-17.904 33.374-14.388c-3.525-9.308-16.9-43.163-16.9-43.163s-12.047.481-21.623 5.916z" fill="#fff" fill-rule="evenodd"></path>
  </mask>
  <mask id="g" fill="#fff">
    <path d="m1.881 15.481c-2.065 1.191-1.565 5.923 1.118 10.567 2.681 4.645 6.528 7.445 8.593 6.253l23.58-14.707-9.712-16.821" fill="#fff" fill-rule="evenodd"></path>
  </mask>
  <mask id="h" fill="#fff">
    <path d="m1.881 15.481c-2.065 1.191-1.565 5.923 1.118 10.567 2.681 4.645 6.528 7.445 8.593 6.253l23.58-14.707-9.712-16.821" fill="#fff" fill-rule="evenodd"></path>
  </mask>
  <mask id="i" fill="#fff">
    <path d="m.38516597.58796522h36.42783403v32.51796708h-36.42783403z" fill="#fff" fill-rule="evenodd"></path>
  </mask>
  <mask id="j" fill="#fff">
    <path d="m9.187 2.383c-5.395 2.804-7.509 4.006-8.589 6.828-.451 1.18-.207 3.104.932 4.967 1.138 1.863 8.692 9.83 11.07 11.977 2.381 2.146 5.175 1.371 6.106.854 2.587 6.208 9.312 6.0961358 9.312 6.0961358l8.795-6.9501358s-13.348-19.013-16.659-22.531c-1.886-2.004-3.433-3.037-5.412-3.03600072-1.495 0-3.236.58900072-5.555 1.79500072" fill="#fff" fill-rule="evenodd"></path>
  </mask>
  <g fill="none" fill-rule="evenodd" transform="translate(39 10)">
    <path d="m9.1257 30.0229-8.8 13.428 17.835 46.041 39.772-7.514s.402 1.758 4.209 1.119c3.806-.639 3.708-2.718 3.708-2.718l27.47-7.353 1.969-9.112-54.873-24.619z" fill="#6b8295"></path>
    <g stroke="#384652" stroke-linecap="round" stroke-width="2">
      <path d="m16.092 29.2094 6.346 15.132" mask="url(#a)" transform="translate(0 29.502)"></path>
      <path d="m5.6008 4.39 6.346 15.132" mask="url(#b)" transform="translate(0 29.502)"></path>
      <path d="m2.6052 8.7421 16.608 40.244" mask="url(#c)" transform="translate(0 29.502)"></path>
    </g>
    <path d="m18.1604 59.9896 9.334-15.667 57.106-12.824 10.688 2.913-1.969 9.112-33.636 22.399z" fill="#5a6c7a" mask="url(#d)" transform="translate(0 29.502)"></path>
    <g transform="translate(0 20.502)">
      <path d="m.3259 22.9491 17.834 46.041 39.772-7.514s.403 1.758 4.209 1.119c3.807-.64 3.709-2.718 3.709-2.718l27.47-7.353" stroke="#384652" stroke-linecap="round" stroke-linejoin="round" stroke-width="2"></path>
      <path d="m78.3889.2484s-12.047.48-21.623 5.915c-10.128 5.75-10.928 8.953-10.928 8.953s-6.544-6.555-19.682-7.194c-9.032-.44-17.03 1.598-17.03 1.598l18.368 43.803s22.347-7.514 34.421 4.476c0 0 11.787-17.905 33.374-14.388-3.525-9.309-16.9-43.163-16.9-43.163" fill="#92acbf"></path>
    </g>
    <path d="m36.8298 12.2714 16.882 44.817" mask="url(#e)" stroke="#5a6c7a" stroke-linecap="round" stroke-width="2" transform="translate(9 20.502)"></path>
    <path d="m67.2126 19.8266c12.553 5.014 18.186 13.745 25.429 20.459 3.701 8.419-14.504 8.846-14.504 8.846l-12.788-11.315z" fill="#6b8295" mask="url(#f)" transform="translate(9 20.502)"></path>
    <g transform="translate(39 .502)">
      <path d="m.0378 5.3881 3.929 17.798 1.964-10.338z" fill="#92acbf"></path>
      <path d="m6.9196 26.744.719-4.823 4.807-2.284z" fill="#6b8295"></path>
      <path d="m11.2004 52.6742 29.273-26.37 5.644 8.442z" fill="#384652"></path>
      <path d="m74.4602.7728-23.58 14.708c-2.064 1.191-1.564 5.923 1.118 10.568s6.529 7.444 8.594 6.252l23.579-14.707z" fill="#edc001"></path>
    </g>
    <path d="m31.6618 20.9398c-2.759 1.593-7.39-1.262-10.343-6.377s-3.111-10.553-.351-12.146" mask="url(#g)" stroke="#a68602" stroke-width="2" transform="translate(88 .502)"></path>
    <path d="m18.3483 29.2865c-2.759 1.593-7.39-1.262-10.343-6.377-2.954-5.115-3.111-10.553-.351-12.146" mask="url(#h)" stroke="#a68602" stroke-width="2" transform="translate(88 .502)"></path>
    <g transform="translate(17 .502)">
      <path d="m105.0539 7.0253c2.682 4.645 3.182 9.377 1.118 10.569-2.065 1.192-5.912-1.608-8.594-6.253s-3.182-9.377-1.118-10.568c2.065-1.192 5.912 1.607 8.594 6.252" fill="#a68602"></path>
      <path d="m67.5549 28.8466c1.625 2.291 1.983 4.867.802 5.754-1.182.887-3.457-.252-5.082-2.542-1.624-2.291-1.983-4.867-.802-5.754 1.182-.887 3.457.251 5.082 2.542" fill="#5a6c7a"></path>
      <path d="m92.3166 22.7172c-1.425.798-1.933 2.601-1.135 4.026l10.692 19.083 5.16-2.891-10.692-19.083c-.798-1.426-2.6-1.933-4.025-1.135" fill="#17222a"></path>
      <path d="m55.0754 32.9686-2.244 2.021c.755 1.912 2.157 4.158 4.857 5.111l4.245-2.18s2.446.899 3.77 3.711c1.414 2.999-.289 9.982 2.079 13.987.183.31.495 1.321 1.122 2.133 3.681 4.763 13.761 16.16 13.761 16.16s-4.824-1.748-8.096 3.441c-2.613 4.143-8.284 3.543-8.284 3.543l-11.306-17.366s-9.356-9.417-10.475-10.855c-1.119-1.439-4.267-4.636-3.659-8.806.302-2.071.537-3.244.971-4.171.574-1.227 2.106-1.441 2.106-1.441s0-1.871 1.186-3.3c1.035-1.247 2.473-1.189 2.473-1.189s.46-1.331 1.666-1.855c2.906-1.263 5.828 1.056 5.828 1.056" fill="#fedfb8"></path>
      <path d="m18.05 43.6684c.03.647-.47 1.172-1.117 1.172-.648 0-1.197-.525-1.228-1.172-.03-.647.47-1.172 1.117-1.172.648 0 1.198.525 1.228 1.172" fill="#6b8295"></path>
      <g fill="#5a6c7a">
        <path d="m2.3996 34.7963c.03.647-.47 1.172-1.117 1.172-.648 0-1.197-.525-1.228-1.172-.03-.647.47-1.172 1.117-1.172.648 0 1.197.525 1.228 1.172"></path>
        <path d="m9.8273 35.9686c.013.279-.203.506-.482.506-.28 0-.517-.227-.53-.506-.013-.28.202-.506.482-.506s.517.226.53.506"></path>
        <path d="m18.9421 62.6122c.013.28-.203.506-.482.506-.28 0-.518-.226-.531-.506s.203-.506.483-.506.517.226.53.506"></path>
        <path d="m35.9382 35.9686c.013.279-.203.506-.482.506-.28 0-.517-.227-.53-.506-.013-.28.202-.506.482-.506s.517.226.53.506"></path>
        <path d="m50.5715 26.9452c.013.279-.203.506-.482.506-.28 0-.518-.227-.531-.506-.013-.28.203-.506.483-.506s.517.226.53.506"></path>
      </g>
      <path d="m25.8581 40.3026c.013.28-.203.506-.482.506-.28 0-.518-.226-.531-.506s.203-.506.483-.506.517.226.53.506" fill="#6b8295"></path>
      <path d="m11.195 50.8622c.03.647-.47 1.172-1.117 1.172-.648 0-1.197-.525-1.228-1.172-.03-.647.47-1.172 1.117-1.172.648 0 1.197.525 1.228 1.172" fill="#5a6c7a"></path>
      <path d="m33.0925 66.2421c.031.647-.47 1.172-1.117 1.172-.648 0-1.197-.525-1.228-1.172-.03-.647.47-1.172 1.117-1.172.648 0 1.198.525 1.228 1.172" fill="#5a6c7a"></path>
      <path d="m25.9343 52.6742c.054 1.147-.833 2.078-1.98 2.078-1.148 0-2.123-.931-2.176-2.078-.054-1.148.832-2.078 1.98-2.078s2.122.93 2.176 2.078" fill="#5a6c7a"></path>
      <path d="m49.3825 66.2421c.031.647-.469 1.172-1.117 1.172-.647 0-1.197-.525-1.227-1.172-.031-.647.469-1.172 1.117-1.172.647 0 1.197.525 1.227 1.172" fill="#6b8295"></path>
      <path d="m.5983 9.2118c1.08-2.823 3.194-4.025 8.588-6.829 5.389-2.801 7.657-2.276 10.968 1.242s16.659 22.53 16.659 22.53l-8.795 6.9511323s-6.726.1108677-9.313-6.0971323c-.931.517-3.725 1.292-6.105-.854-2.379-2.147-9.933-10.114-11.071-11.977-1.138-1.862-1.382-3.786-.931-4.966" fill="#fedfb8" mask="url(#i)" transform="translate(91 35)"></path>
    </g>
    <path d="m13.6438 10.3764c2.477 2.921 6.503 7.809 7.703 9.328 1.198 1.519 1.55 3.9.559 4.876-.886.872-1.524 1.26-3.2 2.428s-1.755 9.543-12.067 0c-10.311-9.542-13.908-16.496-10.391-19.134 3.517-2.638 7.914-3.277 7.914-3.277s1.937 8.807 2.158 9.592c.251.891.649 1.025 1.599.879.73-.113 2.009-1.441 1.707-4.445-.317-3.154 1.787-2.824 2.59-1.885.368.43 1.115 1.268 1.428 1.638" fill="#f7c991" mask="url(#j)" transform="translate(108 35.502)"></path>
    <g transform="translate(20 24.502)">
      <path d="m11.008 2.4008-2.082 2.807-2.911-2.215 2.082-2.806z" fill="#f7f7f6"></path>
      <path d="m72.8005 16.766-2.214 2.806-2.807-2.214 2.214-2.806z" fill="#f7f7f6"></path>
      <path d="m17.7395 48.369-2.082 2.807-2.911-2.215 2.082-2.806z" fill="#5a6c7a"></path>
      <path d="m4.9904 57.3627-3.497.595-.761-3.525 3.497-.595z" fill="#6b8295"></path>
      <g fill="#f7c991">
        <path d="m54.6882 16.1005s2.344.666 7.717.961c-.585-.997-1.073-1.672-2.593-2.717-.317-.218-.691-.52-.691-.52z"></path>
        <path d="m44.6814 9.7763c.002.954-.103 1.897-.15 2.847-.12.943-.181 1.89-.35 2.829l-.199-.018c-.659-.534-.984-1.04-1.192-1.534-.228-.498-.286-.979-.251-1.453.043-.473.186-.937.496-1.386.29-.451.7-.892 1.447-1.303z"></path>
        <path d="m41.0227 14.2567c.086.849.064 1.698.1 2.547-.036.849-.014 1.698-.1 2.547h-.2c-.704-.425-1.071-.849-1.321-1.274-.271-.424-.372-.849-.378-1.273.001-.424.103-.849.372-1.274.249-.424.619-.849 1.327-1.273z"></path>
      </g>
    </g>
  </g>
</svg>
