<?xml version="1.0" encoding="UTF-8"?>
<svg xmlns="http://www.w3.org/2000/svg" xmlns:xlink="http://www.w3.org/1999/xlink" height="140" viewBox="0 0 220 140" width="220">
  <mask id="a" fill="#fff">
    <path d="m0 0h12.9513253v13.1993204h-12.9513253z" fill="#fff" fill-rule="evenodd"></path>
  </mask>
  <mask id="b" fill="#fff">
    <path d="m0 0h12.9513072v13.199523h-12.9513072z" fill="#fff" fill-rule="evenodd"></path>
  </mask>
  <mask id="c" fill="#fff">
    <path d="m0 4.86196078c0 2.68509804 1.959 4.86176471 4.37576471 4.86176471 2.41658823 0 4.3757647-2.17666667 4.3757647-4.86176471 0-2.68529411-1.95917647-4.86196078-4.3757647-4.86196078-2.41676471 0-4.37576471 2.17666667-4.37576471 4.86196078" fill="#fff" fill-rule="evenodd"></path>
  </mask>
  <mask id="d" fill="#fff">
    <path d="m0 4.6132093c0 1.1732093.4013617 2.24334884 1.06144681 3.05730233-.41889362-.71627907-.6626383-1.56669768-.6626383-2.47981396 0-2.54790697 1.88953192-4.6132093 4.22059575-4.6132093 1.25770212 0 2.38604255.60186047 3.15914893 1.55572093-.74961702-1.2824186-2.06229787-2.1332093-3.55795745-2.1332093-2.33106383 0-4.22059574 2.06530233-4.22059574 4.6132093" fill="#fff" fill-rule="evenodd"></path>
  </mask>
  <mask id="e" fill="#fff">
    <path d="m0 0h12.9513253v13.1993204h-12.9513253z" fill="#fff" fill-rule="evenodd"></path>
  </mask>
  <mask id="f" fill="#fff">
    <path d="m0 0h12.9513072v13.199523h-12.9513072z" fill="#fff" fill-rule="evenodd"></path>
  </mask>
  <mask id="g" fill="#fff">
    <path d="m0 4.86196078c0 2.68509804 1.959 4.86176471 4.37576471 4.86176471 2.41658823 0 4.3757647-2.17666667 4.3757647-4.86176471 0-2.68529411-1.95917647-4.86196078-4.3757647-4.86196078-2.41676471 0-4.37576471 2.17666667-4.37576471 4.86196078" fill="#fff" fill-rule="evenodd"></path>
  </mask>
  <mask id="h" fill="#fff">
    <path d="m0 4.6132093c0 1.1732093.4013617 2.24334884 1.06144681 3.05730233-.41889362-.71627907-.6626383-1.56669768-.6626383-2.47981396 0-2.54790697 1.88953192-4.6132093 4.22059575-4.6132093 1.25770212 0 2.38604255.60186047 3.15914893 1.55572093-.74961702-1.2824186-2.06229787-2.1332093-3.55795745-2.1332093-2.33106383 0-4.22059574 2.06530233-4.22059574 4.6132093" fill="#fff" fill-rule="evenodd"></path>
  </mask>
  <mask id="i" fill="#fff">
    <path d="m0 0h12.9513253v13.1993204h-12.9513253z" fill="#fff" fill-rule="evenodd"></path>
  </mask>
  <mask id="j" fill="#fff">
    <path d="m0 0h12.9513072v13.199523h-12.9513072z" fill="#fff" fill-rule="evenodd"></path>
  </mask>
  <mask id="k" fill="#fff">
    <path d="m0 4.86196078c0 2.68509804 1.959 4.86176471 4.37576471 4.86176471 2.41658823 0 4.3757647-2.17666667 4.3757647-4.86176471 0-2.68529411-1.95917647-4.86196078-4.3757647-4.86196078-2.41676471 0-4.37576471 2.17666667-4.37576471 4.86196078" fill="#fff" fill-rule="evenodd"></path>
  </mask>
  <mask id="l" fill="#fff">
    <path d="m0 4.6132093c0 1.1732093.4013617 2.24334884 1.06144681 3.05730233-.41889362-.71627907-.6626383-1.56669768-.6626383-2.47981396 0-2.54790697 1.88953192-4.6132093 4.22059575-4.6132093 1.25770212 0 2.38604255.60186047 3.15914893 1.55572093-.74961702-1.2824186-2.06229787-2.1332093-3.55795745-2.1332093-2.33106383 0-4.22059574 2.06530233-4.22059574 4.6132093" fill="#fff" fill-rule="evenodd"></path>
  </mask>
  <g fill="none" fill-rule="evenodd" transform="translate(17 25.350695)">
    <path d="m147.918321 35.1122696h-50.60876c-.1080902 0-.1956198.0859092-.1956198.1918798v49.6163364c0 .1059706.0875296.1917838.1956198.1917838h29.213057c2.966314 0 4.061707-1.657423 8.255785-1.657423 4.194177 0 5.289569 1.657423 8.255883 1.657423h4.884035c.108091 0 .19562-.0858132.19562-.1917838v-49.6163364c0-.1059706-.087529-.1918798-.19562-.1918798" fill="#92acbf"></path>
    <path d="m100 37.98782h45v32h-45z" fill="#cbd6de"></path>
    <path d="m177.80438 4.98781961h-50.60876c-.10809 0-.19562.08590917-.19562.19187981v49.61633638c0 .1059706.08753.1917838.19562.1917838h29.213057c2.966314 0 4.061707-1.657423 8.255785-1.657423 4.194176 0 5.289569 1.657423 8.255883 1.657423h4.884035c.10809 0 .19562-.0858132.19562-.1917838v-49.61633638c0-.10597064-.08753-.19187981-.19562-.19187981" fill="#edac01"></path>
    <g transform="translate(22.000062)">
      <path d="m64.8625 0h-64.61275c-.138 0-.24975.11227032-.24975.25063251v5.32688162h2.6135c.27825-.5755265.8645-.97317667 1.54475-.97317667.948875 0 1.718125.77184275 1.718125 1.72419611 0 .95222791-.76925 1.72419611-1.718125 1.72419611-.68025 0-1.2665-.39790106-1.54475-.97342756h-2.6135v6.02471378h2.6135c.27825-.5755265.8645-.9731767 1.54475-.9731767.948875 0 1.718125.7718428 1.718125 1.7241961 0 .952228-.76925 1.7241961-1.718125 1.7241961-.68025 0-1.2665-.397901-1.54475-.9734275h-2.6135v6.0247138h2.6135c.27825-.5755265.8645-.9731767 1.54475-.9731767.948875 0 1.718125.7718427 1.718125 1.7241961 0 .9522279-.76925 1.7241961-1.718125 1.7241961-.68025 0-1.2665-.397901-1.54475-.9734275h-2.6135v6.0247137h2.6135c.27825-.575401.8645-.9731766 1.54475-.9731766.948875 0 1.718125.7718427 1.718125 1.7241961 0 .9522279-.76925 1.7241961-1.718125 1.7241961-.68025 0-1.2665-.3979011-1.54475-.9734276h-2.6135v6.0247138h2.6135c.27825-.5754011.8645-.9731767 1.54475-.9731767.948875 0 1.718125.7718428 1.718125 1.7241961 0 .952228-.76925 1.7241961-1.718125 1.7241961-.68025 0-1.2665-.397901-1.54475-.9734275h-2.6135v6.0247138h2.6135c.27825-.5754011.8645-.9731767 1.54475-.9731767.948875 0 1.718125.7718427 1.718125 1.7241961 0 .9522279-.76925 1.7241961-1.718125 1.7241961-.68025 0-1.2665-.397901-1.54475-.9734275h-2.6135v6.0247137h2.6135c.27825-.575401.8645-.9731766 1.54475-.9731766.948875 0 1.718125.7718427 1.718125 1.7241961 0 .9522279-.76925 1.7241961-1.718125 1.7241961-.68025 0-1.2665-.3979011-1.54475-.9734276h-2.6135v6.0247138h2.6135c.27825-.5754011.8645-.9731767 1.54475-.9731767.948875 0 1.718125.7718428 1.718125 1.7241961 0 .952228-.76925 1.7241961-1.718125 1.7241961-.68025 0-1.2665-.397901-1.54475-.9734275h-2.6135v9.0902579c0 .1383622.11175.2506325.24975.2506325h64.61275c.138 0 .249875-.1122703.249875-.2506325v-68.60443989c0-.13836219-.111875-.25063251-.249875-.25063251" fill="#cbd6de"></path>
      <g stroke-width="2">
        <path d="m65.112375 10.090279h-65.112375" stroke="#96a7b5"></path>
        <path d="m65.112375 17.616417-65.112375-.000125" stroke="#96a7b5"></path>
        <path d="m65.112375 25.14243h-65.112375" stroke="#96a7b5"></path>
        <path d="m65.112375 32.668442h-65.112375" stroke="#96a7b5"></path>
        <path d="m65.112375 40.19458-65.112375-.000125" stroke="#96a7b5"></path>
        <path d="m65.112375 47.72058h-65.112375" stroke="#96a7b5"></path>
        <path d="m65.112375 55.246593h-65.112375" stroke="#96a7b5"></path>
        <path d="m65.112375 62.772731h-65.112375" stroke="#96a7b5"></path>
        <path d="m8.856875 0v69.105705" stroke="#edac01"></path>
      </g>
    </g>
    <g stroke="#fff" stroke-linecap="round" stroke-linejoin="round" stroke-width="2">
      <path d="m133 14.98782h37"></path>
      <path d="m133 22.98782h37"></path>
      <path d="m133 30.98782h37"></path>
      <path d="m133 38.98782h37"></path>
    </g>
    <path d="m5.5 30.8970353 65 55.5882039 56-53.9218693" stroke="#9f6100" stroke-width="3"></path>
    <g transform="translate(0 21.077941)">
      <path d="m12.9513253 6.59966939c0-3.6449949-2.8991566-6.59966939-6.47566265-6.59966939-3.57650602 0-6.47566265 2.95467449-6.47566265 6.59966939 0 3.64481071 2.89915663 6.59966941 6.47566265 6.59966941 3.57650605 0 6.47566265-2.9548587 6.47566265-6.59966941" fill="#384652" mask="url(#a)" opacity=".497442" transform="translate(2.008482 4.760559)"></path>
      <path d="m13.3128434 10.4855213c0-3.64499492-2.8993374-6.5998536-6.47566268-6.5998536-3.57650602 0-6.47566265 2.95485868-6.47566265 6.5998536 0 3.6448107 2.89915663 6.5996694 6.47566265 6.5996694 3.57632528 0 6.47566268-2.9548587 6.47566268-6.5996694" fill="#724100"></path>
      <path d="m12.9513072 6.59985357c0-3.6449949-2.8991566-6.59985357-6.47566262-6.59985357-3.5763253 0-6.47566265 2.95485867-6.47566265 6.59985357 0 3.64481073 2.89933735 6.59966943 6.47566265 6.59966943 3.57650602 0 6.47566262-2.9548587 6.47566262-6.59966943" fill="#d18900" mask="url(#b)" transform="translate(0 3.027353)"></path>
      <path d="m10.2738976 9.62720694c0 2.13781986-1.70060242 3.87098826-3.79825302 3.87098826s-3.79825301-1.7331684-3.79825301-3.87098826c0-2.1378199 1.70060241-3.87117245 3.79825301-3.87117245s3.79825302 1.73335255 3.79825302 3.87117245" fill="#9f6100"></path>
      <path d="m6.47571687 3.02744546c-.08674699 0-.17295181.00331531-.25879518.00663061-1.21120482 1.1992199-1.96481928 2.87602806-1.96481928 4.73296786 0 3.64481067 2.89933735 6.59966937 6.47566269 6.59966937.0867469 0 .172771-.0033153.2587951-.0066306 1.2112049-1.1994041 1.9648193-2.8758439 1.9648193-4.73278367 0-3.64517908-2.8993373-6.59985357-6.47566263-6.59985357" fill="#9f6100"></path>
      <path d="m10.2116024 5.20355714c0-2.87381785-2.28596385-5.20355714-5.10578312-5.20355714-2.81981928 0-5.10578314 2.32973929-5.10578314 5.20355714 0 2.87400204 2.28596386 5.20374136 5.10578314 5.20374136 2.81981927 0 5.10578312-2.32973932 5.10578312-5.20374136" fill="#edac01"></path>
    </g>
    <path d="m0 4.86196078c0 2.68509804 1.959 4.86176471 4.37576471 4.86176471 2.41658823 0 4.3757647-2.17666667 4.3757647-4.86176471 0-2.68529411-1.95917647-4.86196078-4.3757647-4.86196078-2.41676471 0-4.37576471 2.17666667-4.37576471 4.86196078" mask="url(#c)" transform="translate(1.080471 21.17331)"></path>
    <path d="m0 4.6132093c0 1.1732093.4013617 2.24334884 1.06144681 3.05730233-.41889362-.71627907-.6626383-1.56669768-.6626383-2.47981396 0-2.54790697 1.88953192-4.6132093 4.22059575-4.6132093 1.25770212 0 2.38604255.60186047 3.15914893 1.55572093-.74961702-1.2824186-2.06229787-2.1332093-3.55795745-2.1332093-2.33106383 0-4.22059574 2.06530233-4.22059574 4.6132093" mask="url(#d)" transform="translate(1.077617 22.16382)"></path>
    <g transform="translate(65 76.077941)">
      <path d="m12.9513253 6.59966939c0-3.6449949-2.8991566-6.59966939-6.47566265-6.59966939-3.57650602 0-6.47566265 2.95467449-6.47566265 6.59966939 0 3.64481071 2.89915663 6.59966941 6.47566265 6.59966941 3.57650605 0 6.47566265-2.9548587 6.47566265-6.59966941" fill="#384652" mask="url(#e)" opacity=".497442" transform="translate(2.008482 4.760559)"></path>
      <path d="m13.3128434 10.4855213c0-3.64499492-2.8993374-6.5998536-6.47566268-6.5998536-3.57650602 0-6.47566265 2.95485868-6.47566265 6.5998536 0 3.6448107 2.89915663 6.5996694 6.47566265 6.5996694 3.57632528 0 6.47566268-2.9548587 6.47566268-6.5996694" fill="#724100"></path>
      <path d="m12.9513072 6.59985357c0-3.6449949-2.8991566-6.59985357-6.47566262-6.59985357-3.5763253 0-6.47566265 2.95485867-6.47566265 6.59985357 0 3.64481073 2.89933735 6.59966943 6.47566265 6.59966943 3.57650602 0 6.47566262-2.9548587 6.47566262-6.59966943" fill="#d18900" mask="url(#f)" transform="translate(0 3.027353)"></path>
      <path d="m10.2738976 9.62720694c0 2.13781986-1.70060242 3.87098826-3.79825302 3.87098826s-3.79825301-1.7331684-3.79825301-3.87098826c0-2.1378199 1.70060241-3.87117245 3.79825301-3.87117245s3.79825302 1.73335255 3.79825302 3.87117245" fill="#9f6100"></path>
      <path d="m6.47571687 3.02744546c-.08674699 0-.17295181.00331531-.25879518.00663061-1.21120482 1.1992199-1.96481928 2.87602806-1.96481928 4.73296786 0 3.64481067 2.89933735 6.59966937 6.47566269 6.59966937.0867469 0 .172771-.0033153.2587951-.0066306 1.2112049-1.1994041 1.9648193-2.8758439 1.9648193-4.73278367 0-3.64517908-2.8993373-6.59985357-6.47566263-6.59985357" fill="#9f6100"></path>
      <path d="m10.2116024 5.20355714c0-2.87381785-2.28596385-5.20355714-5.10578312-5.20355714-2.81981928 0-5.10578314 2.32973929-5.10578314 5.20355714 0 2.87400204 2.28596386 5.20374136 5.10578314 5.20374136 2.81981927 0 5.10578312-2.32973932 5.10578312-5.20374136" fill="#edac01"></path>
    </g>
    <path d="m0 4.86196078c0 2.68509804 1.959 4.86176471 4.37576471 4.86176471 2.41658823 0 4.3757647-2.17666667 4.3757647-4.86176471 0-2.68529411-1.95917647-4.86196078-4.3757647-4.86196078-2.41676471 0-4.37576471 2.17666667-4.37576471 4.86196078" mask="url(#g)" transform="translate(66.080471 76.17331)"></path>
    <path d="m0 4.6132093c0 1.1732093.4013617 2.24334884 1.06144681 3.05730233-.41889362-.71627907-.6626383-1.56669768-.6626383-2.47981396 0-2.54790697 1.88953192-4.6132093 4.22059575-4.6132093 1.25770212 0 2.38604255.60186047 3.15914893 1.55572093-.74961702-1.2824186-2.06229787-2.1332093-3.55795745-2.1332093-2.33106383 0-4.22059574 2.06530233-4.22059574 4.6132093" mask="url(#h)" transform="translate(66.077617 77.16382)"></path>
    <g transform="translate(120 22.077941)">
      <path d="m12.9513253 6.59966939c0-3.6449949-2.8991566-6.59966939-6.47566265-6.59966939-3.57650602 0-6.47566265 2.95467449-6.47566265 6.59966939 0 3.64481071 2.89915663 6.59966941 6.47566265 6.59966941 3.57650605 0 6.47566265-2.9548587 6.47566265-6.59966941" fill="#384652" mask="url(#i)" opacity=".497442" transform="translate(2.008482 4.760559)"></path>
      <path d="m13.3128434 10.4855213c0-3.64499492-2.8993374-6.5998536-6.47566268-6.5998536-3.57650602 0-6.47566265 2.95485868-6.47566265 6.5998536 0 3.6448107 2.89915663 6.5996694 6.47566265 6.5996694 3.57632528 0 6.47566268-2.9548587 6.47566268-6.5996694" fill="#724100"></path>
      <path d="m12.9513072 6.59985357c0-3.6449949-2.8991566-6.59985357-6.47566262-6.59985357-3.5763253 0-6.47566265 2.95485867-6.47566265 6.59985357 0 3.64481073 2.89933735 6.59966943 6.47566265 6.59966943 3.57650602 0 6.47566262-2.9548587 6.47566262-6.59966943" fill="#d18900" mask="url(#j)" transform="translate(0 3.027353)"></path>
      <path d="m10.2738976 9.62720694c0 2.13781986-1.70060242 3.87098826-3.79825302 3.87098826s-3.79825301-1.7331684-3.79825301-3.87098826c0-2.1378199 1.70060241-3.87117245 3.79825301-3.87117245s3.79825302 1.73335255 3.79825302 3.87117245" fill="#9f6100"></path>
      <path d="m6.47571687 3.02744546c-.08674699 0-.17295181.00331531-.25879518.00663061-1.21120482 1.1992199-1.96481928 2.87602806-1.96481928 4.73296786 0 3.64481067 2.89933735 6.59966937 6.47566269 6.59966937.0867469 0 .172771-.0033153.2587951-.0066306 1.2112049-1.1994041 1.9648193-2.8758439 1.9648193-4.73278367 0-3.64517908-2.8993373-6.59985357-6.47566263-6.59985357" fill="#9f6100"></path>
      <path d="m10.2116024 5.20355714c0-2.87381785-2.28596385-5.20355714-5.10578312-5.20355714-2.81981928 0-5.10578314 2.32973929-5.10578314 5.20355714 0 2.87400204 2.28596386 5.20374136 5.10578314 5.20374136 2.81981927 0 5.10578312-2.32973932 5.10578312-5.20374136" fill="#edac01"></path>
    </g>
    <path d="m0 4.86196078c0 2.68509804 1.959 4.86176471 4.37576471 4.86176471 2.41658823 0 4.3757647-2.17666667 4.3757647-4.86176471 0-2.68529411-1.95917647-4.86196078-4.3757647-4.86196078-2.41676471 0-4.37576471 2.17666667-4.37576471 4.86196078" mask="url(#k)" transform="translate(121.080471 22.17331)"></path>
    <path d="m0 4.6132093c0 1.1732093.4013617 2.24334884 1.06144681 3.05730233-.41889362-.71627907-.6626383-1.56669768-.6626383-2.47981396 0-2.54790697 1.88953192-4.6132093 4.22059575-4.6132093 1.25770212 0 2.38604255.60186047 3.15914893 1.55572093-.74961702-1.2824186-2.06229787-2.1332093-3.55795745-2.1332093-2.33106383 0-4.22059574 2.06530233-4.22059574 4.6132093" mask="url(#l)" transform="translate(121.077617 23.16382)"></path>
  </g>
</svg>
