<?xml version="1.0" encoding="UTF-8"?>
<svg xmlns="http://www.w3.org/2000/svg" xmlns:xlink="http://www.w3.org/1999/xlink" height="140" viewBox="0 0 220 140" width="220">
  <defs>
    <path id="a" d="m17.9394 18.0189s4.72 11.322.845 25.26c6.544 4.169 11.837 8.364 15.321 14.307 2.89-1.631 4.69-2.649 4.69-2.649s1.8-1.017 4.69-2.649c-3.422-6.96-4.154-15.152-4.583-20.381-13.939-3.875-20.963-13.888-20.963-13.888"></path>
    <mask id="b" fill="#fff">
      <use fill="#fff" fill-rule="evenodd" xlink:href="#a"></use>
    </mask>
    <mask id="c" fill="#fff">
      <path d="m18.179 10.461c-7.914 4.229-18.179 7.508-18.179 7.508 10.646 2.956 22.593 4.954 35.331 5.766v-23.735s-7.965 5.551-17.152 10.461" fill="#fff" fill-rule="evenodd"></path>
    </mask>
    <mask id="d" fill="#fff">
      <path d="m0 23.735c12.74-.812 24.685-2.81 35.333-5.766s-10.265-3.279-18.18-7.508c-9.187-4.91-17.153-10.461-17.153-10.461" fill="#fff" fill-rule="evenodd"></path>
    </mask>
  </defs>
  <g fill="none" fill-rule="evenodd" transform="translate(38.3309 24.70315)">
    <use fill="#6b8295" xlink:href="#a"></use>
    <path d="m31.8808 36.2387c1.416 2.506 1.325 5.237-.202 6.101-1.527.862-3.914-.47-5.33-2.976-1.415-2.507-1.325-5.237.203-6.101 1.527-.863 3.913.469 5.329 2.976" fill="#17222a" mask="url(#b)"></path>
    <path d="m17.9394 18.0189 10.587 18.74" mask="url(#b)" stroke="#17222a" stroke-width="2"></path>
    <path d="m50.0664 56.6352c2.438 4.316.916 9.793-3.401 12.232-4.318 2.439-9.794.916-12.233-3.401-2.438-4.316-.916-9.794 3.401-12.232 4.317-2.439 9.794-.916 12.233 3.401" fill="#17222a"></path>
    <path d="m62.5771 78.7816-12.511-22.146-15.634 8.831 6.395 11.318c6.982.937 14.246 1.605 21.75 1.997" fill="#384652"></path>
    <path d="m52.4443 60.8451-15.633 8.832-2.379-4.211 15.634-8.831z" fill="#6b8295"></path>
    <path d="m59.3341 85.9378h25.561v-34.534h-25.561z" fill="#384652"></path>
    <path d="m59.3349 75.2953c3.758 1.19 8.121 1.875 12.78 1.875s9.023-.685 12.781-1.875v-23.893h-25.561z" fill="#f7c991"></path>
    <path d="m48.789 43.3402c1.258 3.783 4.248 6.194 6.679 5.386 2.43-.808 3.381-4.53 2.123-8.312-1.258-3.783-4.248-6.194-6.679-5.387-2.431.809-3.382 4.531-2.123 8.313" fill="#f7c991"></path>
    <path d="m95.4414 43.3402c-1.258 3.783-4.248 6.194-6.679 5.386-2.43-.808-3.381-4.53-2.123-8.312 1.258-3.783 4.248-6.194 6.679-5.387 2.431.809 3.382 4.531 2.123 8.313" fill="#f7c991"></path>
    <path d="m50.5976 26.5951c1.3 11.808 3.321 27.449 7.942 31.757 4.621 4.306 8.521 7.672 13.576 7.672 5.054 0 8.953-3.366 13.575-7.672 4.621-4.308 6.642-19.949 7.942-31.757z" fill="#fedfb8"></path>
    <path d="m53.6064 27.0287c-.4532 3.9713 2.193 11.007 6.998 11.519 6.316.672 7.636-3.662 11.511-3.662s5.194 4.334 11.511 3.662c4.804-.512 7.0427-7.5477 6.998-11.646z" fill="#f7c991"></path>
    <path d="m61.6211 31.0141c.767-.668 1.574-.94 2.365-1.06.798-.135 1.587-.062 2.342.15.753.213 1.478.586 2.093 1.141.621.534 1.155 1.256 1.378 2.231l.016.071c.011.047-.018.094-.065.105-.022.005-.044.001-.062-.009-.62-.346-1.247-.67-1.899-.942-.654-.264-1.322-.499-2.008-.674-1.352-.417-2.762-.644-4.167-.813-.048-.006-.082-.049-.077-.096.003-.023.014-.042.029-.056z" fill="#384652"></path>
    <path d="m82.6162 31.2143c-1.405.169-2.814.396-4.167.812-.686.176-1.354.411-2.008.675-.653.272-1.28.596-1.899.942-.042.023-.095.008-.118-.034-.011-.02-.014-.041-.009-.062l.016-.071c.223-.975.756-1.698 1.377-2.231.617-.555 1.341-.928 2.094-1.141.755-.212 1.544-.286 2.342-.15.791.119 1.599.392 2.365 1.06l.054.048c.037.031.04.087.009.123-.015.016-.035.027-.056.029" fill="#384652"></path>
    <path d="m59.3349 85.518v-23.735s-7.966 5.55-17.152 10.461c-7.915 4.229-18.18 7.507-18.18 7.507 10.646 2.956 22.593 4.955 35.332 5.767" fill="#5a6c7a"></path>
    <path d="m28.3318 1.8377-5.91 19.592" mask="url(#c)" stroke="#6b8295" stroke-linecap="round" stroke-width="2" transform="translate(24.0031 61.7828)"></path>
    <path d="m84.8955 85.518v-23.735s7.966 5.55 17.152 10.461c7.915 4.229 18.18 7.507 18.18 7.507-10.647 2.956-22.593 4.955-35.332 5.767" fill="#5a6c7a"></path>
    <path d="m7.0004 1.8377 5.91 19.592" mask="url(#d)" stroke="#6b8295" stroke-linecap="round" stroke-width="2" transform="translate(84.8951 61.7828)"></path>
    <path d="m93.6328 26.5951c-.35-2.9839-2.009-15.2857-2.592-16.8187-.522-1.372-2.653-3.014-6.206-4.08-3.852-1.155-8.593-1.696-12.72-1.696s-8.867.541-12.719 1.696c-3.553 1.066-5.768 2.679-6.206 4.08-.509 1.628-2.243 13.8348-2.592 16.8187" fill="#edac01"></path>
    <g fill="#17222a">
      <path d="m63.8125 35.5092c0-1.197-.972-2.169-2.17-2.169-1.197 0-2.169.972-2.169 2.169 0 1.198.972 2.17 2.169 2.17 1.198 0 2.17-.972 2.17-2.17"></path>
      <path d="m57.3496 33.8363c.725-.726 1.471-1.103 2.218-1.354.749-.271 1.502-.367 2.254-.355.752.019 1.506.144 2.247.443.74.282 1.476.695 2.162 1.451l.05.054c.032.035.029.09-.006.122-.017.016-.038.023-.06.023-1.477-.025-2.951-.104-4.428-.094l-4.432-.09c-.047-.001-.085-.04-.0840193-.088.0010193-.022.0100193-.043.0250193-.058z"></path>
      <path d="m51.9267 41.0082 3.782-14.413h-5.111z"></path>
      <path d="m92.3037 41.0082-3.782-14.413h5.111z"></path>
      <path d="m80.418 35.5092c0-1.197.972-2.169 2.169-2.169 1.198 0 2.17.972 2.17 2.169 0 1.198-.972 2.17-2.17 2.17-1.197 0-2.169-.972-2.169-2.17"></path>
      <path d="m86.876 34.0365-4.432.09c-1.477-.01-2.951.069-4.428.0940188-.048.0009812-.0880758-.0380188-.0880758-.0850188-.0009242-.023.0080758-.043.0210758-.06l.051-.055c.686-.755 1.422-1.169 2.162-1.45.741-.3 1.495-.425 2.246-.443.753-.012 1.506.084 2.254.355.748.251 1.494.628 2.219 1.354l.054.054c.033.033.033.087 0 .121-.017.016-.038.024-.059.025"></path>
    </g>
    <path d="m66.4961 52.4604c.86.395 1.812.58 2.754.726.947.134 1.907.18 2.865.173.958.007 1.918-.039 2.865-.172.943-.147 1.894-.331 2.754-.727.046-.021.101-.001.122.045.013.027.011.058-.002.082l-.026.05c-.589 1.094-1.624 1.715-2.607 2.119-1.003.428-2.059.593-3.106.602-1.047-.004-2.102-.17-3.106-.597-.984-.404-2.02-1.027-2.607-2.124l-.026-.049c-.024-.046-.007-.102.038-.126.026-.014.057-.014.082-.002" fill="#cf9544"></path>
    <path d="m73.918 48.1537c.196-.61.333-1.248.41-1.881.067-.635.039-1.279-.141-1.871-.177-.584-.519-1.19-.644-1.865-.153-.673-.062-1.38.175-2.005.016-.042.063-.064.106-.048.019.007.033.021.042.036l.042.072c.483.835.854 1.268 1.186 1.607.341.361.65.618 1.009 1.631.277.966.169 1.887-.193 2.637-.346.75-.9 1.39-1.808 1.764l-.07.029c-.044.018-.093-.002-.112-.046-.008-.02-.009-.041-.002-.06" fill="#cf9544"></path>
    <path d="m85.0068 14.6566c-.067-.336-.331-.597-.67-.655-1.464-.252-5.752-.878-12.222-.878-6.469 0-10.757.626-12.221.878-.339.058-.603.319-.67.655l-1.724 9.565c-.102.513.286.993.809.998h27.613c.522-.005.911-.485.808-.998z" fill="#fff"></path>
    <path d="m85.0068 14.6566c-.067-.336-.331-.597-.67-.655-1.464-.252-5.752-.878-12.222-.878-6.469 0-10.757.626-12.221.878-.339.058-.603.319-.67.655l-1.724 8.565c-.102.513.286.993.809.998h27.613c.522-.005.911-.485.808-.998z" stroke="#d18900" stroke-width="2"></path>
    <path d="m50.5972 26.5952 21.518.6139 21.518-.6139c-2.4734-3.132-10.9398015-6.8321-21.518-6.8321-10.5785876 0-19.0446 3.7001-21.518 6.8321z" fill="#edac01"></path>
    <path d="m93.6328 26.5952s-5.618 2.4832-21.518 2.4832c-16.755 0-21.517-2.4832-21.517-2.4832" fill="#edac01"></path>
    <g transform="translate(27.9061 31.976404)">
      <path d="m30.2403811 1.19690153s-1.92-1.64500001-3.9-1.078c-1.407.402-14.0173811 7.89929439-15.4483811 8.92729439-.863.619-1.431 1.67199998-1.408 2.81299998.022 1.14-.003 20.025-.003 20.025l-5.481 8.944 12.002 5.134 6.132-12.146s3.498-3.13 2.968-12.234c-.312-5.341 1.249-10.223 1.298-12.99699998.041-2.313.317-4.759.317-4.759z" fill="#fedfb8"></path>
      <path d="m26.717 3.82619592c-.0181389.16291889-.2773667 2.5231-.317 4.759-.049 2.77399998-1.61 7.65599998-1.298 12.99699998.4795238 8.2369524-2.3382494 11.5836236-2.8793176 12.1463732l-.0656991.0660272c-.0050171.004834-.0092432.0088454-.0126481.0120453l-.0103352.0095543-.1758381.3514956c.4613353-2.9864658.1761966-5.9741643-.8554159-8.9630956-1.0589027-3.068-2.6846839-7.4616666-4.8773437-13.181z" fill="#f7c991"></path>
      <path d="m7.5372 35.0551959s10.857 3.4 16.553 11.75c-.7676476 1.0274821-3.8774045 6.8900638-5.5714 6.4476-6.6962984-1.7490422-18.5188-5.4201179-18.5188-5.4201179z" fill="#6b8295"></path>
    </g>
    <g transform="matrix(-1 0 0 1 116.906099 31.976404)">
      <path d="m30.2403811 1.19690153s-1.92-1.64500001-3.9-1.078c-1.407.402-14.0173811 7.89929439-15.4483811 8.92729439-.863.619-1.431 1.67199998-1.408 2.81299998.022 1.14-.003 20.025-.003 20.025l-5.481 8.944 12.002 5.134 6.132-12.146s3.498-3.13 2.968-12.234c-.312-5.341 1.249-10.223 1.298-12.99699998.041-2.313.317-4.759.317-4.759z" fill="#fedfb8"></path>
      <path d="m26.717 3.82619592c-.0181389.16291889-.2773667 2.5231-.317 4.759-.049 2.77399998-1.61 7.65599998-1.298 12.99699998.4795238 8.2369524-2.3382494 11.5836236-2.8793176 12.1463732l-.0656991.0660272c-.0050171.004834-.0092432.0088454-.0126481.0120453l-.0103352.0095543-.1758381.3514956c.4613353-2.9864658.1761966-5.9741643-.8554159-8.9630956-1.0589027-3.068-2.6846839-7.4616666-4.8773437-13.181z" fill="#f7c991"></path>
      <path d="m7.5372 35.0551959s10.857 3.4 16.553 11.75c-.7676476 1.0274821-3.8774045 6.8900638-5.5714 6.4476-6.6962984-1.7490422-18.5188-5.4201179-18.5188-5.4201179z" fill="#6b8295"></path>
    </g>
    <path d="m61.6691 31h22v9h-22z" fill="#17222a"></path>
    <circle cx="61.6691" cy="39" fill="#17222a" r="8"></circle>
    <circle cx="82.6691" cy="39" fill="#17222a" r="8"></circle>
    <circle cx="61.6691" cy="39" fill="#afbfcf" r="6" transform="matrix(.8660254 .5 -.5 .8660254 27.762093 -25.609541)"></circle>
    <path d="m61.2671762 34.5c3.3137085 0 6 2.6862915 6 6s-2.6862915 6-6 6z" fill="#6c8195" transform="matrix(.8660254 .5 -.5 .8660254 28.860169 -26.707617)"></path>
    <circle cx="82.6691" cy="39" fill="#afbfcf" r="6" transform="matrix(.8660254 .5 -.5 .8660254 30.575559 -36.109541)"></circle>
    <path d="m82.2671762 34.5c3.3137085 0 6 2.6862915 6 6s-2.6862915 6-6 6z" fill="#6c8195" transform="matrix(.8660254 .5 -.5 .8660254 31.673635 -37.207617)"></path>
    <path d="m0 70.3256c17.572 9.57 43.366 15.612 72.115 15.612s54.543-6.042 72.115-15.612" stroke="#edac01" stroke-linecap="round" stroke-linejoin="round" stroke-width="3"></path>
    <path d="m114.3821 32.182c-.986-3.172-3.519-5.657-6.713-6.591 3.194-.933 5.727-3.419 6.713-6.591.985 3.172 3.518 5.658 6.712 6.591-3.194.934-5.727 3.419-6.712 6.591" fill="#edc001"></path>
    <path d="m42.1481 8.796c-.658-2.117-2.348-3.775-4.479-4.398 2.131-.623 3.821-2.281 4.479-4.398.658 2.117 2.348 3.775 4.479 4.398-2.131.623-3.821 2.281-4.479 4.398" fill="#f7c991"></path>
    <path d="m9.3821 57.181c-.986-3.172-3.519-5.657-6.713-6.591 3.194-.933 5.727-3.419 6.713-6.59.985 3.171 3.518 5.657 6.712 6.59-3.194.934-5.727 3.419-6.712 6.591" fill="#edc001"></path>
  </g>
</svg>
