<?xml version="1.0" encoding="UTF-8"?>
<svg xmlns="http://www.w3.org/2000/svg" height="140" viewBox="0 0 220 140" width="220">
  <g fill="none" fill-rule="evenodd" transform="translate(9 19.847833)">
    <path d="m52.479 16.398c-.658-2.117-2.348-3.775-4.479-4.398 2.131-.623 3.821-2.281 4.479-4.398.658 2.117 2.348 3.775 4.479 4.398-2.131.623-3.821 2.281-4.479 4.398" fill="#f7c991"></path>
    <path d="m22.479 6c-.4407234-1.44406548-1.5726725-2.57503411-3-3 1.4273275-.42496589 2.5592766-1.55593452 3-3 .4407234 1.44406548 1.5726725 2.57503411 3 3-1.4273275.42496589-2.5592766 1.55593452-3 3" fill="#edac01"></path>
    <g transform="matrix(.96592583 -.25881905 .25881905 .96592583 10.221157 14.707331)">
      <path d="m18.5769394 41.5867203-6.2143461-1.851244-.0011736-.0000009-1.8461561 6.1985224 4.0308375-2.1742228 2.1846822 4.0254676z" fill="#9f6100" transform="matrix(.95881973 -.28401534 .28401534 .95881973 -11.829601 5.933379)"></path>
      <path d="m26 0h5v41h-5z" fill="#fff"></path>
      <path d="m2 0h24v41h-24c-1.1045695 0-2-.8954305-2-2v-37c0-1.1045695.8954305-2 2-2z" fill="#edac01"></path>
      <path d="m31 0h2v41h-2z" fill="#edac01"></path>
      <path d="m4 0h2v41h-2z" fill="#d18900"></path>
    </g>
    <path d="m15.9321289 35.2367656 2.3979492 9.7080078 33.3310547-3.6601562z" fill="#d18900"></path>
    <path d="m56.8149603 31.3618355 2.579-1.066c.556-.23.915-.556 1.078-.98.162-.421.156-.85-.024-1.282-.187-.453-.488-.768-.906-.945-.416-.178-.898-.153-1.444.072l-2.578 1.066zm-1.959-4.741 2.424-1.003c.546-.225.9-.525 1.065-.901.164-.375.159-.773-.015-1.195-.179-.433-.456-.716-.83-.85-.375-.135-.836-.089-1.382.137l-2.424 1.002zm.859 7.112c-.102.043-.205.043-.306 0-.102-.041-.174-.115-.217-.217l-4.155-10.054c-.047-.112-.049-.22-.007-.322.041-.102.114-.174.218-.217l4.478-1.851c.834-.345 1.566-.5 2.194-.465.63.036 1.163.223 1.597.56.436.339.775.802 1.018 1.39.161.39.233.761.216 1.111-.018.353-.089.662-.213.93-.125.267-.264.494-.416.678.478.02.961.181 1.448.486.488.304.855.756 1.102 1.353.255.617.344 1.226.266 1.825-.078.598-.334 1.147-.766 1.646-.433.498-1.051.912-1.854 1.244z" fill="#edac01"></path>
    <path d="m4.61398566 31.49474 3.646 1.044-.41-5.488zm-4.358 3.201c-.088-.025-.156-.079-.206-.163-.052-.085-.063-.175-.035-.271.012-.043.036-.088.073-.136l6.84-9.251c.062-.099.151-.175.264-.229.114-.054.252-.058.413-.012l1.751.502c.161.046.273.121.334.226.064.105.101.217.112.336l.90400004 11.471c-.006.056-.014.106-.027.149-.027.096-.082.167-.164.213-.083.046-.168.057-.254.032l-1.39600004-.401c-.15-.042-.249-.108-.3-.197-.05-.091-.076-.17-.079-.241l-.193-2.176-4.771-1.366-1.316 1.743c-.04.058-.105.111-.195.161-.089.05-.209.053-.359.011z" fill="#d18900"></path>
    <path d="m34 82.602c0 5.5228475 4.4771525 10 10 10h16c5.5228475 0 10-4.4771525 10-10v-14-44c0-5.5228475 4.4771525-10 10-10s10 4.4771525 10 10v44c0 5.5228475 4.4771525 10 10 10 5.522847 0 10-4.4771525 10-10v-44c0-5.5228475 4.477153-10 10-10s10 4.4771525 10 10v44c0 5.5228475 4.477153 10 10 10s10-4.4771525 10-10v-44c0-5.5228475 4.477153-10 10-10 3.138772 0 6.261165 1.9480926 8.596069 4.2196045 1.486735 1.4463704 4.091512 4.850057 8.207398 9.5601807" stroke="#cbd6de" stroke-width="3"></path>
    <path d="m34 82.602c0 5.5228475 4.4771525 10 10 10h16c5.5228475 0 10-4.4771525 10-10v-14-44c0-5.5228475 4.4771525-10 10-10s10 4.4771525 10 10v44c0 5.5228475 4.4771525 10 10 10 5.522847 0 10-4.4771525 10-10v-44c0-5.5228475 4.477153-10 10-10s10 4.4771525 10 10v44c0 5.5228475 4.477153 10 10 10s10-4.4771525 10-10v-44c0-5.5228475 4.477153-10 10-10 3.138772 0 6.261165 1.9480926 8.596069 4.2196045 1.486735 1.4463704 4.288046 4.5246175 8.403931 9.2347412" stroke="#d18900" stroke-dasharray="0 10" stroke-linecap="round" stroke-linejoin="round" stroke-width="3"></path>
    <path d="m49.75 66.352v5h-29.5c-1.1045695 0-2-.8954305-2-2v-1c0-1.1045695.8954305-2 2-2z" fill="#6b8295" transform="matrix(0 1 -1 0 102.852 34.852)"></path>
    <path d="m57 42.602-20.909 30h-4.182l-20.909-30z" fill="#92acbf" stroke="#92acbf" stroke-linejoin="round" stroke-width="3"></path>
    <g transform="translate(158 21.602)">
      <path d="m36 39c0 9.9411255-8.0588745 18-18 18s-18-8.0588745-18-18z" fill="#edac01"></path>
      <g fill="#fff">
        <path d="m25.8484106 44.3546786c-.4723502 1.2977856-1.9055091 1.9660857-3.2032806 1.4937304-1.296208-.4717862-1.9660646-1.9055296-1.4937143-3.2033151.4723502-1.2977855 1.9070726-1.9655165 3.2032806-1.4937303 1.2977716.4723553 1.9660645 1.9055295 1.4937143 3.203315"></path>
        <path d="m12.6357598 45.7677432c.1888137-.519004-.0784226-1.092362-.5971839-1.281264s-1.0929717.0780512-1.2817854.5970552.079543 1.09277.5983043 1.281672c.5187614.188902 1.0918513-.0784593 1.280665-.5974632"></path>
        <path d="m20.879032 51.682454c-.3784226 1.039734-1.5250821 1.5744438-2.5647897 1.1960115-1.0337663-.3762697-1.571433-1.5240397-1.1930104-2.5637737.3773414-1.0367634 1.5269715-1.5703919 2.5607378-1.1941221 1.0397076.3784322 1.5744037 1.525121 1.1970623 2.5618843"></path>
      </g>
      <path d="m23 11 .0008002 10.7037642c7.5081535 2.16695 12.9991998 9.0903416 12.9991998 17.2962358 0 9.9411255-8.0588745 18-18 18s-18-8.0588745-18-18c0-8.2062587 5.4915342-15.129901 13.0002005-17.2965245l-.0002005-10.7034755z" stroke="#92acbf" stroke-linejoin="round" stroke-width="3"></path>
      <path d="m23 11.9411581-9.9511932.0588419-.0488068-5.94067316 9.9496028-.05932684z" fill="#384652" stroke="#384652" stroke-width="3"></path>
      <rect fill="#f9f9f9" height="6" rx="3" stroke="#92acbf" stroke-linejoin="round" stroke-width="3" width="18" x="9"></rect>
    </g>
    <path d="m45.9468096 43.2675273h7.7471507l-17.1939603 26.7602907z" fill="#cbd6de"></path>
    <path d="m173 49.892567c0 2.8989896 3 5.709433 3 5.709433s3-2.8104434 3-5.709433c0-1.8175895-1.343455-3.290567-3-3.290567s-3 1.4729775-3 3.290567" fill="#edac01" transform="matrix(-1 0 0 -1 352 102.204)"></path>
  </g>
</svg>
