<?xml version="1.0" encoding="UTF-8"?>
<svg xmlns="http://www.w3.org/2000/svg" xmlns:xlink="http://www.w3.org/1999/xlink" height="120" viewBox="0 0 220 120" width="220">
  <mask id="a" fill="#fff">
    <path d="m.6709.742h20.034v19.6689h-20.034z" fill="#fff" fill-rule="evenodd"></path>
  </mask>
  <mask id="b" fill="#fff">
    <path d="m14.915 1.051-14.583 5.308c6.577-2.394 14.947 4.012 18.695 14.308 3.746 10.296 1.453 20.584-5.124 22.978l14.584-5.308c6.577-2.394 8.87-12.682 5.122-22.978-3.216-8.837-9.839-14.809-15.81-14.81-.985 0-1.952.163-2.884.502" fill="#fff" fill-rule="evenodd"></path>
  </mask>
  <mask id="c" fill="#fff">
    <path d="m14.915 1.051-14.583 5.308c6.577-2.394 14.947 4.012 18.695 14.308 3.746 10.296 1.453 20.584-5.124 22.978l14.584-5.308c6.577-2.394 8.87-12.682 5.122-22.978-3.216-8.837-9.839-14.809-15.81-14.81-.985 0-1.952.163-2.884.502" fill="#fff" fill-rule="evenodd"></path>
  </mask>
  <mask id="d" fill="#fff">
    <path d="m14.915 1.051-14.583 5.308c6.577-2.394 14.947 4.012 18.695 14.308 3.746 10.296 1.453 20.584-5.124 22.978l14.584-5.308c6.577-2.394 8.87-12.682 5.122-22.978-3.216-8.837-9.839-14.809-15.81-14.81-.985 0-1.952.163-2.884.502" fill="#fff" fill-rule="evenodd"></path>
  </mask>
  <mask id="e" fill="#fff">
    <path d="m14.915 1.051-14.583 5.308c6.577-2.394 14.947 4.012 18.695 14.308 3.746 10.296 1.453 20.584-5.124 22.978l14.584-5.308c6.577-2.394 8.87-12.682 5.122-22.978-3.216-8.837-9.839-14.809-15.81-14.81-.985 0-1.952.163-2.884.502" fill="#fff" fill-rule="evenodd"></path>
  </mask>
  <mask id="f" fill="#fff">
    <path d="m14.915 1.051-14.583 5.308c6.577-2.394 14.947 4.012 18.695 14.308 3.746 10.296 1.453 20.584-5.124 22.978l14.584-5.308c6.577-2.394 8.87-12.682 5.122-22.978-3.216-8.837-9.839-14.809-15.81-14.81-.985 0-1.952.163-2.884.502" fill="#fff" fill-rule="evenodd"></path>
  </mask>
  <g fill="none" fill-rule="evenodd" transform="translate(24 20)">
    <g transform="translate(0 .2583)">
      <path d="m171.3466 34.5721c-.016-.248-.024-.492-.046-.742h-54.571c-1.6 2.483-3.951 4.723-8.471 6.368l5.457 14.996c1.744-.635 3.298-.995 4.71-1.148.942-.102 1.821-.112 2.653-.05 4.572.343 7.689 2.87 11.766 4.274.033.013.214.072.214.072 2.154.764 4.322.86 6.325.131l25.103-9.136c4.101-1.493 6.517-8.823 6.86-14.765" fill="#f7c991"></path>
      <path d="m45.8808 42.2151c-4.319 11.866-13.965 19.249-21.545 16.49l7.086 2.579c7.58 2.759 17.226-4.624 21.544-16.49 4.32-11.867 1.676-23.723-5.904-26.482l-7.085-2.579c7.579 2.759 10.223 14.615 5.904 26.482" fill="#f7c991"></path>
      <path d="m45.8808 42.2151c-4.319 11.866-13.965 19.249-21.545 16.49l7.086 2.579c7.58 2.759 17.226-4.624 21.544-16.49 4.32-11.867 1.676-23.723-5.904-26.482l-7.085-2.579c7.579 2.759 10.223 14.615 5.904 26.482z" stroke="#f7c991" stroke-linecap="round" stroke-linejoin="round" stroke-width="3"></path>
      <path d="m38.851 58.3347s.181-.059.214-.071c5.93-2.042 9.83-6.461 19.129-3.076l5.458-14.996c-9.299-3.384-9.447-9.276-12.676-14.652-.017-.031-.118-.192-.118-.192-1.159-1.97-2.758-3.438-4.761-4.167l-25.103-9.137c-6.577-2.394-14.947 4.013-18.694 14.309-3.748 10.296-1.454 20.584 5.123 22.977l25.103 9.137c2.003.729 4.171.632 6.325-.132" fill="#f7f7f6"></path>
      <path d="m39.2514 58.1941c.304-.108.606-.219.901-.338.04-.016.079-.034.119-.05 5.247-2.145 9.212-5.702 17.725-2.683 0 0 .001 0 .002.001v-18.075c-1.529-1.29-2.576-2.719-3.417-4.219h-53.852c-.052.407-.107.815-.14 1.216.44 5.964 2.84 13.83 6.834 15.284l25.103 9.136c1.001.365 2.044.523 3.105.495.797-.022 1.604-.148 2.412-.371.269-.075.539-.16.808-.255 0 0 .011-.004.028-.01.036-.011.095-.03.138-.045.022-.007.039-.013.047-.016.064-.022.124-.048.187-.07" fill="#edc001"></path>
      <path d="m34.5482 4.5999s4.112 5.263 1.99 11.953" stroke="#cf9544" stroke-linecap="round" stroke-width="6"></path>
      <path d="m36.4315 14.0506s4.474-4.959 11.43-4.025" stroke="#fedfb8" stroke-linecap="round" stroke-width="6"></path>
      <path d="m39.4066 13.033c0-1.929-1.563-3.492-3.492-3.492-1.928 0-3.491 1.563-3.491 3.492 0 1.928 1.563 3.492 3.491 3.492 1.929 0 3.492-1.564 3.492-3.492" fill="#f7c991"></path>
      <path d="m35.0155 59.0564c.074.002.147.003.221.004 1.606-.173 2.686-1.552 2.608-3.645-.104-2.792-2.228-5.798-4.744-6.714l-32.616-11.871c.136 5.498 2.14 10.052 5.681 12.042l27.31 9.94c.228.083.445.124.663.167.218.032.437.058.657.073.074.001.149.007.22.004" fill="#a68602"></path>
      <path d="m2.2997 26.3523c-.771 2.118-1.272 4.23-1.547 6.279l32.764 11.925c3.337 1.214 7.026-.506 8.241-3.843 1.214-3.336-.507-7.026-3.843-8.24l-32.764-11.925c-1.106 1.746-2.08 3.687-2.851 5.804" fill="#f7f7f6"></path>
      <path d="m7.6444 17.159 32.616 11.872c2.516.915 6.075-.022 7.949-2.094 1.405-1.553 1.464-3.303.346-4.468-.065-.054-.13-.108-.197-.16-.046-.041-.097-.078-.146-.117-.178-.132-.364-.252-.551-.369-.195-.106-.387-.214-.614-.296l-27.311-9.94c-3.991-.752-8.453 1.447-12.092 5.572" fill="#edc001"></path>
      <path d="m38.851 58.3347s.181-.059.214-.071c5.93-2.042 9.83-6.461 19.129-3.076l5.458-14.996c-9.299-3.384-9.447-9.276-12.676-14.652-.017-.031-.118-.192-.118-.192-1.159-1.97-2.758-3.438-4.761-4.167l-25.103-9.137c-6.577-2.394-14.947 4.013-18.694 14.309-3.748 10.296-1.454 20.584 5.123 22.977l25.103 9.137c2.003.729 4.171.632 6.325-.132z" stroke="#92acbf" stroke-width="3"></path>
      <path d="m18.431 32.2239c4.319-11.867 13.965-19.25 21.545-16.491l-7.086-2.578c-7.579-2.76-17.226 4.624-21.544 16.49-4.32 11.867-1.676 23.723 5.904 26.481l7.086 2.579c-7.58-2.758-10.224-14.615-5.905-26.481" fill="#fedfb8"></path>
      <path d="m18.431 32.2239c4.319-11.867 13.965-19.25 21.545-16.491l-7.086-2.578c-7.579-2.76-17.226 4.624-21.544 16.49-4.32 11.867-1.676 23.723 5.904 26.481l7.086 2.579c-7.58-2.758-10.224-14.615-5.905-26.481z" stroke="#fedfb8" stroke-linecap="round" stroke-linejoin="round" stroke-width="3"></path>
      <path d="m58.8363 37.698c-2.229 1.348-4.287 3.928-5.49 7.234s-1.285 6.605-.444 9.071c1.569.109 3.301.46 5.291 1.184l5.458-14.995c-1.99-.724-3.543-1.569-4.815-2.494" fill="#384652"></path>
      <path d="m58.8363 37.698c-2.229 1.348-4.287 3.928-5.49 7.234s-1.285 6.605-.444 9.071c1.569.109 3.301.46 5.291 1.184l5.458-14.995c-1.99-.724-3.543-1.569-4.815-2.494z" stroke="#384652" stroke-width="3"></path>
      <path d="m75.9159 53.1468c2.092-5.748.812-11.491-2.86-12.827l-5.954-2.167c-3.672-1.337-8.344 2.24-10.436 7.987-2.092 5.748-.812 11.491 2.86 12.827l5.954 2.167c3.672 1.337 8.344-2.239 10.436-7.987" fill="#6b8295"></path>
      <path d="m65.5697 61.1668c-3.622-1.318-4.862-7.046-2.771-12.794 2.093-5.748 6.725-9.339 10.347-8.02 3.622 1.318 4.862 7.046 2.77 12.794s-6.724 9.338-10.346 8.02" fill="#a68602"></path>
      <path d="m121.0522 25.3538s-.101.162-.118.192c-3.23 5.376-3.377 11.268-12.676 14.653l5.458 14.995c9.298-3.384 13.198 1.035 19.128 3.077.033.012.214.071.214.071 2.154.764 4.323.861 6.325.132l25.104-9.137c6.576-2.394 8.87-12.681 5.123-22.978-3.748-10.296-12.118-16.702-18.695-14.308l-25.103 9.137c-2.002.728-3.601 2.196-4.76 4.166z" stroke="#92acbf" stroke-width="3"></path>
      <path d="m119.0077 54.0096c.841-2.465.759-5.765-.444-9.071s-3.262-5.887-5.491-7.234c-1.272.925-2.824 1.769-4.815 2.494l5.458 14.996c1.991-.725 3.723-1.076 5.292-1.185" fill="#384652"></path>
      <path d="m119.0077 54.0096c.841-2.465.759-5.765-.444-9.071s-3.262-5.887-5.491-7.234c-1.272.925-2.824 1.769-4.815 2.494l5.458 14.996c1.991-.725 3.723-1.076 5.292-1.185z" stroke="#384652" stroke-width="3"></path>
      <path d="m95.9936 53.1536c2.092 5.748 6.765 9.324 10.436 7.987l5.954-2.167c3.672-1.336 4.952-7.079 2.86-12.827-2.092-5.747-6.764-9.324-10.436-7.988l-5.954 2.168c-3.672 1.336-4.952 7.079-2.86 12.827" fill="#92acbf"></path>
      <path d="m98.7641 40.3587c3.622-1.318 8.254 2.273 10.346 8.021s.852 11.476-2.77 12.794-8.254-2.273-10.347-8.021c-2.091-5.747-.851-11.476 2.771-12.794" fill="#cf9544"></path>
      <path d="m141.4374 55.074-6.252 12.714c-.29.589-1.027.794-1.579.439l-18.607-11.96 6.795-13.818z" fill="#cf9544"></path>
      <path d="m95.477 64.5237c.748-3.104 2.3-5.182 2.3-5.182s-10.899 3.547-14.624 10.446c-.1.178-.191.361-.275.548-.016.034-.035.066-.05.101h.002c-.357.831-.557 1.744-.557 2.705 0 3.788 3.071 6.858 6.858 6.858s6.858-3.07 6.858-6.858c0-.73-.113-1.573-.328-2.093 0-.001-1.147-2.528-.184-6.525" fill="#fedfb8"></path>
      <path d="m76.434 64.5237c-.748-3.104-2.3-5.182-2.3-5.182s10.899 3.547 14.624 10.446c.1.178.191.361.275.548.016.034.035.066.05.101 0 0-.001 0-.002 0 .357.831.557 1.744.557 2.705 0 3.788-3.071 6.858-6.858 6.858-3.788 0-6.858-3.07-6.858-6.858 0-.73.113-1.573.328-2.093 0-.001 1.147-2.528.184-6.525" fill="#edc001"></path>
      <path d="m83.1527 69.7879c-.1.178-.191.361-.275.548-.016.034-.035.066-.05.1 0 0 .001.001.002.001-.357.83-.556 1.744-.556 2.705 0 2.641 1.494 4.929 3.682 6.075 2.187-1.146 3.682-3.434 3.682-6.075 0-.961-.199-1.875-.556-2.705 0 0 .001-.001.002-.001-.016-.034-.035-.066-.051-.1-.084-.187-.174-.37-.275-.548-.713-1.321-1.69-2.518-2.802-3.592-1.113 1.074-2.09 2.271-2.803 3.592" fill="#cf9544"></path>
      <g fill="#edc001">
        <path d="m78.7963 31.8538c-1.037-3.335-3.7-5.949-7.059-6.931 3.359-.982 6.022-3.595 7.059-6.931 1.037 3.336 3.7 5.949 7.059 6.931-3.359.982-6.022 3.596-7.059 6.931"></path>
        <path d="m10.6879 20.4109c-1.471-4.733-5.25-8.441-10.017-9.834 4.767-1.394 8.546-5.103 10.017-9.835 1.471 4.732 5.25 8.441 10.017 9.835-4.767 1.393-8.546 5.101-10.017 9.834" mask="url(#a)" transform="translate(88)"></path>
        <path d="m70.1337 51.0418c1.491-4.098 1.285-8.18-.268-10.667-2.789.906-5.574 3.897-7.066 7.998-1.493 4.101-1.282 8.184.273 10.67 2.788-.907 5.57-3.903 7.061-8.001"></path>
      </g>
      <path d="m101.7948 51.0418c-1.492-4.098-1.285-8.18.267-10.667 2.789.906 5.575 3.897 7.067 7.998 1.493 4.101 1.281 8.184-.274 10.67-2.787-.907-5.569-3.903-7.06-8.001" fill="#f7c991"></path>
      <path d="m147.7274 50.5179-5.623 11.436c-.27.548-.885.834-1.478.687l-25.627-6.373 6.795-13.819 25.081 6.236c.803.2 1.217 1.09.852 1.833" fill="#fff"></path>
      <path d="m124.2611 50.5862c0 .872-.708 1.58-1.58 1.58s-1.579-.708-1.579-1.58c0-.873.707-1.58 1.579-1.58s1.58.707 1.58 1.58" fill="#384652"></path>
      <path d="m155.8314 23.8748c0-2.893-2.345-5.238-5.238-5.238-.728 0-1.421.15-2.051.419l-.003-.01-20.787 7.565.008.022c-2.033.72-3.5 2.639-3.5 4.92 0 2.892 2.345 5.237 5.238 5.237.672 0 1.31-.138 1.901-.369l.004.011 20.786-7.566-.009-.025c2.111-.675 3.651-2.631 3.651-4.966" fill="#fff"></path>
      <path d="m155.0263 31.6673c3.748 10.296 1.454 20.583-5.124 22.978l14.584-5.309c6.577-2.394 8.871-12.681 5.123-22.977-3.747-10.296-12.117-16.702-18.694-14.309l-14.583 5.308c6.577-2.393 14.946 4.013 18.694 14.309" fill="#5a6c7a"></path>
    </g>
    <g transform="translate(136 11.2583)">
      <g>
        <path d="m23.5336 34.8157 11.309-4.116" fill="#fff" mask="url(#b)"></path>
        <path d="m23.5336 34.8157 11.309-4.116" mask="url(#b)" stroke="#384652" stroke-linecap="round" stroke-linejoin="round" stroke-width="3"></path>
      </g>
      <g>
        <path d="m13.2973 6.6922 11.309-4.116" fill="#fff" mask="url(#c)"></path>
        <path d="m13.2973 6.6922 11.309-4.116" mask="url(#c)" stroke="#384652" stroke-linecap="round" stroke-linejoin="round" stroke-width="3"></path>
      </g>
      <g>
        <path d="m19.0321 12.4104 11.309-4.116" fill="#fff" mask="url(#d)"></path>
        <path d="m19.0321 12.4104 11.309-4.116" mask="url(#d)" stroke="#384652" stroke-linecap="round" stroke-linejoin="round" stroke-width="3"></path>
      </g>
      <g>
        <path d="m24.1005 26.7044 11.309-4.116" fill="#fff" mask="url(#e)"></path>
        <path d="m24.1005 26.7044 11.309-4.116" mask="url(#e)" stroke="#384652" stroke-linecap="round" stroke-linejoin="round" stroke-width="3"></path>
      </g>
      <g>
        <path d="m22.5101 19.2635 11.309-4.116" fill="#fff" mask="url(#f)"></path>
        <path d="m22.5101 19.2635 11.309-4.116" mask="url(#f)" stroke="#384652" stroke-linecap="round" stroke-linejoin="round" stroke-width="3"></path>
      </g>
    </g>
    <path d="m155.0263 31.9256c3.748 10.296 1.454 20.583-5.124 22.978l14.584-5.309c6.577-2.394 8.871-12.681 5.123-22.977-3.747-10.296-12.117-16.702-18.694-14.309l-14.583 5.308c6.577-2.393 14.946 4.013 18.694 14.309z" stroke="#5a6c7a" stroke-linecap="round" stroke-linejoin="round" stroke-width="3"></path>
  </g>
</svg>
