<?xml version="1.0" encoding="UTF-8"?>
<svg xmlns="http://www.w3.org/2000/svg" height="140" viewBox="0 0 220 140" width="220">
  <g fill="none" fill-rule="evenodd" transform="translate(26 29.647383)">
    <path d="m51.7301 39.409h32.414c4.217-4.175 6.831-9.967 6.831-16.371 0-12.724-10.314-23.038-23.038-23.038-12.725 0-23.039 10.314-23.039 23.038 0 6.404 2.614 12.196 6.832 16.371" fill="#edac01"></path>
    <g fill="#fedfb8" transform="translate(34.351 1.7166)">
      <path d="m131.1897 30.9863h-5.315c.006-.171.025-.34.025-.514 0-6.459-5.236-11.695-11.695-11.695-1.744 0-3.391.391-4.876 1.075-.684-5.808-5.617-10.317-11.608-10.317-1.773 0-3.448.407-4.954 1.113-1.567-4.611-5.924-7.933-11.065-7.933-5.55 0-10.188 3.871-11.386 9.058-1.004-.281-2.059-.443-3.152-.443-6.459 0-11.696 5.237-11.696 11.696 0 6.46 5.237 11.696 11.696 11.696l8.473 3.97h38.319 8.564 8.67c2.128 0 3.854-1.725 3.854-3.853s-1.726-3.853-3.854-3.853"></path>
      <path d="m61.6213 1.772c0 .979-.793 1.771-1.771 1.771-.98 0-1.773-.792-1.773-1.771s.793-1.772 1.773-1.772c.978 0 1.771.793 1.771 1.772"></path>
      <path d="m114.6262 7.4014c0 .979-.793 1.771-1.771 1.771-.979 0-1.773-.792-1.773-1.771s.794-1.772 1.773-1.772c.978 0 1.771.793 1.771 1.772"></path>
      <path d="m67.3665 5.4717c0 .417-.339.755-.756.755s-.755-.338-.755-.755.338-.755.755-.755.756.338.756.755"></path>
      <path d="m6.925 10.5288c0 .417-.338.755-.755.755s-.755-.338-.755-.755.338-.755.755-.755.755.338.755.755"></path>
      <path d="m1.51 14.4746c0 .417-.338.755-.755.755s-.755-.338-.755-.755.338-.755.755-.755.755.338.755.755"></path>
    </g>
    <path d="m112.5241 25.0813c-.736-.606-1.8-.606-2.536 0l-6.54 5.377-18.227-14.985c-.738-.607-1.801-.607-2.539 0l-30.329 24.936h38.991 24.206 15.617z" fill="#f7f7f6"></path>
    <g transform="translate(35.2281 30.763)">
      <path d="m11.0929 44.2865h7.206v-18.79h-7.206z" fill="#f7c991"></path>
      <path d="m14.6964 0-14.696 20.09h29.392z" fill="#5a6c7a"></path>
      <path d="m14.6964 9.0454-14.696 22.09h29.392z" fill="#5a6c7a"></path>
      <path d="m11.0929 37.6284v-6.493h7.206z" fill="#cf9544"></path>
      <path d="m22.044 20.0903h-14.692l-7.352 11.045z" fill="#384652"></path>
    </g>
    <g transform="translate(129.228 30.763)">
      <path d="m11.0929 44.2865h7.206v-18.79h-7.206z" fill="#f7c991"></path>
      <path d="m14.6964 0-14.696 20.09h29.392z" fill="#5a6c7a"></path>
      <path d="m14.6964 9.0454-14.696 22.09h29.392z" fill="#5a6c7a"></path>
      <path d="m11.0929 37.6284v-6.493h7.206z" fill="#cf9544"></path>
      <path d="m22.044 20.0903h-14.692l-7.352 11.045z" fill="#384652"></path>
    </g>
    <g transform="translate(4.0001 7.1883)">
      <path d="m14.0919 67.8612h9.154v-24.572h-9.154z" fill="#f7c991"></path>
      <g fill="#384652">
        <path d="m18.669 0-16.097 23.228h32.194z"></path>
        <path d="m18.669 9.7578-18.669 26.939h37.338z"></path>
        <path d="m18.669 23.2275-18.669 26.938h37.338z"></path>
      </g>
      <path d="m14.0924 58.4663v-8.3h9.154z" fill="#cf9544"></path>
      <path d="m28.0035 36.6967h-18.669l-9.334 13.469z" fill="#17222a"></path>
    </g>
    <g transform="translate(98 7.1883)">
      <path d="m14.0919 67.8612h9.154v-24.572h-9.154z" fill="#f7c991"></path>
      <g fill="#384652">
        <path d="m18.669 0-16.097 23.228h32.194z"></path>
        <path d="m18.669 9.7578-18.669 26.939h37.338z"></path>
        <path d="m18.669 23.2275-18.669 26.938h37.338z"></path>
      </g>
      <path d="m14.0924 58.4663v-8.3h9.154z" fill="#cf9544"></path>
      <path d="m28.0035 36.6967h-18.669l-9.334 13.469z" fill="#17222a"></path>
    </g>
    <g fill="#f7c991" transform="translate(0 65.9996)">
      <path d="m95.5 0c5.289661 0 9.665745 3.91148998 10.393648 8.99986573h-20.7872955c.7279023-5.08837575 5.1039862-8.99986573 10.3936475-8.99986573z"></path>
      <path d="m83.5 5c2.3163788 0 4.2239814 1.7501788 4.4725684 4.00029704h-8.9451368c.248587-2.25011824 2.1561896-4.00029704 4.4725684-4.00029704z"></path>
      <path d="m4.47256844 5c2.31637875 0 4.22398135 1.7501788 4.47256843 4.00029704h-8.94513687c.24858709-2.25011824 2.15618968-4.00029704 4.47256844-4.00029704z"></path>
      <path d="m159.472568 5c2.316379 0 4.223982 1.7501788 4.472569 4.00029704h-8.945137c.248587-2.25011824 2.15619-4.00029704 4.472568-4.00029704z"></path>
    </g>
  </g>
</svg>
