<?xml version="1.0" encoding="UTF-8"?>
<svg xmlns="http://www.w3.org/2000/svg" xmlns:xlink="http://www.w3.org/1999/xlink" height="120" viewBox="0 0 220 120" width="220">
  <linearGradient id="a">
    <stop offset="0" stop-color="#fddfb8"></stop>
    <stop offset="1" stop-color="#f6c890"></stop>
  </linearGradient>
  <linearGradient id="b" x1="-.000042%" x2="112.681519%" xlink:href="#a" y1="45.778649%" y2="45.778649%"></linearGradient>
  <linearGradient id="c" x1="99.999088%" x2="-16.910362%" xlink:href="#a" y1="47.76472%" y2="47.76472%"></linearGradient>
  <mask id="d" fill="#fff">
    <path d="m.02 15.509c3.352 3.142 5.974 6.163 7.352 10.005 1.86-.634 3.019-1.029 3.019-1.029s1.159-.395 3.02-1.029c-1.23-4.426-.76-9.274-.438-12.365-7.688-3.781-10.681-10.378-10.681-10.378s1.507 7.107-2.272 14.796" fill="#fff" fill-rule="evenodd"></path>
  </mask>
  <mask id="e" fill="#fff">
    <path d="m.02 15.509c3.352 3.142 5.974 6.163 7.352 10.005 1.86-.634 3.019-1.029 3.019-1.029s1.159-.395 3.02-1.029c-1.23-4.426-.76-9.274-.438-12.365-7.688-3.781-10.681-10.378-10.681-10.378s1.507 7.107-2.272 14.796" fill="#fff" fill-rule="evenodd"></path>
  </mask>
  <mask id="f" fill="#fff">
    <path d="m22.108.872c-9.552.965-22.095 4.438-21.613 15.051.483 10.614 3.088 9.649 5.693 18.236 2.605 8.587-1.93 15.63-3.762 21.805 6.174 2.701 20.55 5.885 26.629 5.789-.868-6.175 1.02-12.506 1.02-12.506s8.737 2.013 11.379-.272c2.019-1.745.505-4.734 2.46-6.687 1.785-1.786 1.592-2.461 1.592-3.691 1.305-.676.627-2.316.723-3.281.096-.964 1.157-1.64 2.026-2.99.868-1.351.03-1.613-2.22-3.377-2.441-1.916-2.412-2.702-2.121-6.175.289-3.474-.291-7.623-1.447-13.218s-9.803-8.752-18.987-8.752c-.46 0-.917.022-1.372.068" fill="#fff" fill-rule="evenodd"></path>
  </mask>
  <mask id="g" fill="#fff">
    <path d="m5.3 1.099c-2.516-.146-4.534-.291-4.302 1.221.34 2.22 9.864 2.039 14.242 1.389-.403-.435-1.148-.932-2.205-1.76-.674-.53-1.16-.972-1.504-1.41-1.765.8-4.166.68-6.231.56" fill="#fff" fill-rule="evenodd"></path>
  </mask>
  <mask id="h" fill="#fff">
    <path d="m.623 15.43c.503.86 1.337 3.492 4.436 4.099 6.98 1.369 20.787-.864 24.996-.932-.267-1.9-.232-4.809-.057-6.76-13.175-2.99-22.751-10.906-22.751-10.906l-.002-.002c-1.009 4.012-2.989 9.357-6.622 14.501" fill="#fff" fill-rule="evenodd"></path>
  </mask>
  <mask id="i" fill="#fff">
    <path d="m14.583 2.049c-14.811 2.652-13.508 5.981-13.943 10.594-.119 1.28-.097 2.852-.158 4.137-.084 1.802.013 5.143.013 5.143s13.787-2.991 24.02-4.631c10.232-1.64 17.952-1.736 17.952-1.736-1.738-5.886-4.311-11.595-5.115-13.12-.561-1.066-3.284-1.89800174-8.31-1.89800174-3.612-.00099826-8.414.42900174-14.459 1.51100174" fill="#fff" fill-rule="evenodd"></path>
  </mask>
  <mask id="j" fill="#fff">
    <path d="m14.583 2.049c-14.811 2.652-13.508 5.981-13.943 10.594-.119 1.28-.097 2.852-.158 4.137-.084 1.802.013 5.143.013 5.143s13.787-2.991 24.02-4.631c10.232-1.64 17.952-1.736 17.952-1.736-1.738-5.886-4.311-11.595-5.115-13.12-.561-1.066-3.284-1.89800174-8.31-1.89800174-3.612-.00099826-8.414.42900174-14.459 1.51100174" fill="#fff" fill-rule="evenodd"></path>
  </mask>
  <mask id="k" fill="#fff">
    <path d="m14.583 2.049c-14.811 2.652-13.508 5.981-13.943 10.594-.119 1.28-.097 2.852-.158 4.137-.084 1.802.013 5.143.013 5.143s13.787-2.991 24.02-4.631c10.232-1.64 17.952-1.736 17.952-1.736-1.738-5.886-4.311-11.595-5.115-13.12-.561-1.066-3.284-1.89800174-8.31-1.89800174-3.612-.00099826-8.414.42900174-14.459 1.51100174z" fill="#fff" fill-rule="evenodd"></path>
  </mask>
  <mask id="l" fill="#fff">
    <path d="m7.403 8.895c-2.889 3.898-4.167 8.889-3.189 13.217 1.022 4.515 2.107 6.016-1.05 9.012-1.833 1.741-2.706 2.253-2.412 3.474.373 1.561 3.999 1.961 4.086 2.926.111 1.226-.833 2.639 1.027 3.249-.241 1.351-.629 1.902 1.107 3.734 1.738 1.834-.731 3.717.869 5.464 1.964 2.144 9.031.847 9.031.847s1.651 6.434.783 12.61c6.078.097 17.421-3.683 23.596-6.384-1.833-6.175-4.747-13.507-.917-23.231 3.288-8.349 6.816-7.937 7.298-18.551.482-10.613-12.06-14.086-21.612-15.052-.783-.079-1.541-.11600016-2.274-.11600016-8.207-.00099984-13.319 4.71900016-16.343 8.80100016z" fill="#fff" fill-rule="evenodd"></path>
  </mask>
  <mask id="m" fill="#fff">
    <path d="m1.164 3.124c-.412.392-.776.721-1.089 1.011 4.701.301 13.947.383 14.274-1.75.23-1.508-1.938-1.26-4.598-1.012-2.327.217-5.03.434-6.833-.525-.313.707-.865 1.433-1.754 2.276" fill="#fff" fill-rule="evenodd"></path>
  </mask>
  <g fill="none" fill-rule="evenodd">
    <g transform="translate(40 47.9162)">
      <path d="m138.4254 34.7225 2.859-9.665-19.218-5.715-6.613 22.344c8.292-1.856 16.005-4.202 22.972-6.964" fill="#fff"></path>
      <path d="m140.8931 33.6952 2.381-8.046-1.989-.591-2.86 9.664c.84-.333 1.65-.682 2.468-1.027" fill="#92acbf"></path>
      <path d="m133.4332 36.5775 3.768-12.734-17.977-5.347c-.686-.204-1.407.187-1.61.873l-6.897 23.306c8.122-1.594 15.739-3.648 22.716-6.098" fill="#92acbf"></path>
      <g fill="#6b8295">
        <path d="m115.3297 41.7157 6.63-22.405-1.988-.592-6.95 23.482c.77-.161 1.548-.316 2.308-.485"></path>
        <path d="m2.2916.7133s1.508 7.107-2.272 14.795c3.352 3.143 5.974 6.164 7.352 10.006 1.86-.634 3.02-1.03 3.02-1.03s1.159-.395 3.02-1.028c-1.23-4.426-.761-9.274-.438-12.365-7.689-3.781-10.682-10.378-10.682-10.378"></path>
      </g>
    </g>
    <path d="m8.4127 12.8441c.55 1.614.198 3.193-.785 3.529-.984.335-2.227-.702-2.778-2.316-.549-1.613-.198-3.193.787-3.528.983-.335 2.226.701 2.776 2.315" fill="#17222a" mask="url(#d)" transform="translate(40 47.9162)"></path>
    <g transform="translate(40 47.9162)">
      <path d="m2.2916.7133 4.111 12.066" fill="#fff" mask="url(#e)"></path>
      <path d="m2.2916.7133 4.111 12.066" mask="url(#e)" stroke="#17222a" stroke-width="2"></path>
    </g>
    <g transform="translate(46 29.9162)">
      <path d="m10.7662 44.7064c.946 2.78-.539 5.801-3.318 6.748-2.781.947-5.801-.539-6.748-3.318-.948-2.78.538-5.801 3.317-6.748 2.78-.948 5.802.538 6.749 3.318" fill="#17222a"></path>
      <path d="m15.6246 58.9667-4.858-14.26-10.067 3.429 2.483 7.289c3.963 1.31 8.117 2.493 12.442 3.542" fill="#384652"></path>
      <path d="m118.9625 9.6517c-1.027.757-4.264 1.786-8.234 2.799-3.119.796-6.69 1.582-9.999 2.218-7.526 1.447-2.099-8.587-2.099-8.587l17.234 2.087 2.561.945z" fill="#a68602"></path>
      <path d="m102.4664 9.5555c1.157 5.596 1.736 9.745 1.447 13.218-.29 3.473-.32 4.259 2.122 6.175 2.25 1.764 3.088 2.026 2.219 3.377-.868 1.351-1.93 2.026-2.025 2.991-.097.965.582 2.605-.723 3.28 0 1.23.192 1.905-1.593 3.691-1.954 1.954-.44 4.942-2.459 6.687-2.642 2.286-11.38.273-11.38.273s-1.888 6.33-1.019 12.505c-6.079.096-20.455-3.087-26.63-5.789 1.833-6.175 6.368-13.218 3.763-21.805s-5.21-7.622-5.693-18.235c-.482-10.614 12.061-14.087 21.613-15.052 9.551-.964 20.358 8.684 20.358 8.684" fill="#fedfb8"></path>
    </g>
    <path d="m30.0748 49.2474s-2.678-.512-8.618-2.45c-3.401-1.109 2.051 7.239 9.721 9.796 3.28-1.544-1.103-7.346-1.103-7.346" fill="#f7c991" mask="url(#f)" transform="translate(106 29.9162)"></path>
    <path d="m5.3 1.099c-2.516-.146-4.534-.291-4.302 1.221.34 2.22 9.864 2.039 14.242 1.389-.403-.435-1.148-.932-2.205-1.76-.674-.53-1.16-.972-1.504-1.41-1.765.8-4.166.68-6.231.56" fill="url(#b)" mask="url(#g)" transform="translate(139 56.9162)"></path>
    <g transform="translate(105 29.9162)">
      <path d="m23.108.8719c4.404-.445 9.074 1.368 12.829 3.45l1.4500165 2.725s.0729835 8.466-9.4790165 10.854c-.289 4.848-2.393 14.256-2.393 14.256s-8.172 6.223-13.382 8.9c-3.671 1.887-4.383 2.061-4.485 2 .005-.027.008-.056.013-.083.004-.005.007-.008.007-.008l-.006-.005c.47-2.752.475-5.673-.474-8.802-2.604-8.587-5.21-7.622-5.692-18.236-.483-10.613 12.06-14.086 21.612-15.051" fill="#384652"></path>
      <path d="m17.2506 31.5594c.812 3.565 3.328 6.032 5.619 5.51 2.291-.521 3.489-3.835 2.677-7.4-.813-3.565-3.328-6.032-5.619-5.51s-3.489 3.835-2.677 7.4" fill="#fedfb8"></path>
      <path d="m30.0553 62.5975c-4.21.067-18.017 2.3-24.996.932-3.1-.607-3.933-3.239-4.436-4.1 3.632-5.144 5.613-10.489 6.621-14.5l.003.001s9.576 7.917 22.751 10.907c-.175 1.95-.211 4.86.057 6.76" fill="#6b8295"></path>
    </g>
    <path d="m33.4263 15.0521c-8.886-1.2-15.084-3.818-19.716-6.021s-10.977-6.696-10.977-6.696" mask="url(#h)" stroke="#5a6c7a" stroke-width="2" transform="translate(105 73.9162)"></path>
    <g transform="translate(106 23.9162)">
      <g>
        <path d="m35.8853 15.9193c-2.778-2.486 6.581-.364 6.581-.364.529 2.559.93 4.804 1.19 6.832-.078-.143-2.937-5.395-7.771-6.468" fill="#17222a"></path>
        <path d="m45.5113 44.6967c-.695.725-1.45 1.076-2.202 1.283-.756.227-1.52.254-2.269.158-.748-.1-1.487-.346-2.162-.778-.678-.41-1.31-.997-1.734-1.899l-.032-.069c-.02-.043-.001-.094.041-.114.02-.009.042-.011.061-.005 1.344.398 2.705.73 4.099.884 1.383.225 2.789.291 4.189.34.048.002.085.042.0840198.09-.0010198.022-.0100198.042-.0240198.057z" fill="#cf9544"></path>
        <path d="m39.5133 26.6146.456 2.837-6.368.767s-1.925-1.136-1.775-2.717c.147-1.541 1.015-2.407 1.015-2.407z" fill="#f7c991"></path>
        <path d="m32.0885 25.2245c.646-.731 1.368-1.076 2.087-1.268.724-.211 1.457-.214 2.17-.082.71.136 1.407.429 2.014.91.609.459 1.15 1.108 1.405 2.032l.02.075c.013.046-.013.092-.059.105-.02.005-.039.003-.057-.004-1.184-.532-2.416-.947-3.699-1.154-1.268-.274-2.573-.366-3.87-.414-.047-.002-.084-.042-.0820774-.089 0-.021.0090774-.04.0200774-.054z" fill="#384652"></path>
        <path d="m33.5845 30.12c.414-.786.897-1.234 1.399-1.558.5-.344 1.03-.517 1.573-.586.544-.062 1.103-.021 1.674.193.57.195 1.152.517 1.733 1.183l.06.07c.029.033.026.083-.007.111-.012.011-.027.017-.04.019-1.059.155-2.121.242-3.175.408-1.064.097-2.117.268-3.183.357-.044.004-.082-.029-.086-.072-.001-.016.002-.03.009-.043z" fill="#17222a"></path>
        <path d="m36.7857 30.7733c0 1.099.413 1.99.923 1.99.509 0 .922-.891.922-1.99s-.413-1.99-.922-1.99c-.51 0-.923.891-.923 1.99" fill="#17222a"></path>
        <path d="m22.856 38.3011c-.857-.053-1.68-.442-2.285-1.206-.297-.382-.509-.877-.572-1.4-.036-.26-.026-.524.003-.779.022-.226.133-.575.128-.626.109-.436.085-.814-.169-1.29-.27-.451-.691-.961-1.526-1.139.287-.344.783-.477 1.259-.47.475.029.963.185 1.372.49.413.297.751.739.938 1.259.195.522.196 1.107.071 1.616l-.127.48c-.034.118-.045.234-.061.351-.022.234-.006.479.061.76.126.571.492 1.204.908 1.954" fill="#cf9544"></path>
        <path d="m7.3463 14.3524c0 5.89 6.501 10.665 14.521 10.665 8.019 0 14.52-4.775 14.52-10.665s-6.501-10.665-14.52-10.665c-8.02 0-14.521 4.775-14.521 10.665" fill="#17222a"></path>
        <path d="m19.0211 19.8353c0 3.904-4.709 7.069-10.518 7.069-3.111 0-5.898-.914-7.824-2.358-.077-.79-.139-1.657-.183-2.623-.161-3.531 1.126-6.269 3.259-8.39 1.428-.487 3.038-.767 4.748-.767 5.809 0 10.518 3.165 10.518 7.069" fill="#17222a"></path>
        <path d="m42.4664 15.5555c-1.737-5.886-4.311-11.595-5.114-13.12-.965-1.832-8.312-2.974-22.77-.386-14.81 2.652-13.508 5.98-13.942 10.594-.12 1.28-.098 2.851-.158 4.136-.084 1.803.013 5.144.013 5.144s13.787-2.991 24.02-4.632c10.232-1.64 17.951-1.736 17.951-1.736" fill="#edc001"></path>
      </g>
      <path d="m-3.2162 31.3695 13.71-2.326c1.283-.218 2.147-1.435 1.93-2.719l-1.638-9.65c-.218-1.284-1.435-2.147-2.719-1.93l-13.71 2.327c-1.283.217-2.147 1.435-1.929 2.718l1.637 9.65c.218 1.284 1.435 2.148 2.719 1.93" fill="#a68602" mask="url(#i)"></path>
      <path d="m42.0767 9.0023c.656 1.889 1.416 4.485 2.008 6.517.224.77-.324 1.544-1.125 1.587-2.978.163-9.809.623-17.083 1.715-.729.11-2.303.449-2.3050213-.288-.0029787-1.241.3110213-6.451.4430213-7.923.056-.608.36-1.155.955-1.294 2.533-.593 9.898-1.805 16.083-1.146.473.051.869.382 1.024.832" fill="#fff" mask="url(#j)"></path>
      <path d="m42.0767 9.0023c.656 1.889 1.416 4.485 2.008 6.517.224.77-.324 1.544-1.125 1.587-2.978.163-9.809.623-17.083 1.715-.729.11-2.303.449-2.3050213-.288-.0029787-1.241.3110213-6.451.4430213-7.923.056-.608.36-1.155.955-1.294 2.533-.593 9.898-1.805 16.083-1.146.473.051.869.382 1.024.832z" mask="url(#k)" stroke="#a68602" stroke-width="2"></path>
    </g>
    <g transform="translate(29 18.9162)">
      <path d="m101.5152 22.2919c8.378-.239 13.45.71 19.166-.469 1.825-.376 4.36-1.182 7.363-1.689 5.409-.912 7.682.386 7.918.518v-.561c-1.174-.579-3.404-1.047-4.159-1.194-4.98-.971-11.59-2.102-16.173-1.815-8.756.548-14.115 5.21-14.115 5.21" fill="#edc001"></path>
      <path d="m.4996 58.0594c19.63 10.691 48.443 17.44 80.56 17.44 32.116 0 60.929-6.749 80.559-17.44" stroke="#edc001" stroke-linecap="round" stroke-linejoin="round" stroke-width="3"></path>
      <path d="m36.8648 10.3593c0 5.675 5.292 10.275 11.819 10.275 6.528 0 11.82-4.6 11.82-10.275s-5.292-10.275-11.82-10.275c-6.527 0-11.819 4.6-11.819 10.275" fill="#92acbf"></path>
      <path d="m32.7789 17.2006c0 5.675 4.601 10.275 10.275 10.275 5.675 0 10.276-4.6 10.276-10.275s-4.601-10.275-10.276-10.275c-5.674 0-10.275 4.6-10.275 10.275" fill="#92acbf"></path>
      <path d="m40.0992 13.8217.076 12.557-1.558.079c-2.935-1.409-5.093-4.165-5.673-7.472 3.66-4.34 7.155-5.164 7.155-5.164" fill="#6b8295"></path>
      <path d="m64.3922 47.7084c-.358 2.635 1.978 5.128 5.218 5.57 3.24.441 6.158-1.337 6.517-3.972s-1.977-5.128-5.217-5.569c-3.241-.442-6.159 1.337-6.518 3.971" fill="#92acbf"></path>
      <path d="m38.4029 15.8944c-2.889 3.899-4.167 8.89-3.188 13.218 1.021 4.515 2.106 6.015-1.051 9.012-1.833 1.741-2.705 2.253-2.412 3.474.374 1.561 3.999 1.961 4.086 2.926.111 1.226-.832 2.639 1.027 3.249-.241 1.35-.629 1.901 1.107 3.734 1.738 1.833-.731 3.717.869 5.464 1.964 2.144 9.031.847 9.031.847s1.651 6.434.783 12.61c6.078.096 17.421-3.683 23.596-6.385-1.833-6.175-4.746-13.506-.917-23.231 3.288-8.349 6.816-7.937 7.298-18.55.483-10.614-12.06-14.087-21.612-15.052-9.552-.964-15.323 4.238-18.617 8.684" fill="#fedfb8"></path>
    </g>
    <path d="m16.8717 50.8187s6.495-1.366 11.093-4.593c-3.872 5.243-6.331 7.863-9.659 9.094-3.329 1.231-2.92-2.802-2.92-2.802z" fill="#f7c991" mask="url(#l)" transform="translate(60 25.9162)"></path>
    <path d="m1.164 3.124c-.412.392-.776.721-1.089 1.011 4.701.301 13.947.383 14.274-1.75.23-1.508-1.938-1.26-4.598-1.012-2.327.217-5.03.434-6.833-.525-.313.707-.865 1.433-1.754 2.276" fill="url(#c)" mask="url(#m)" transform="translate(62 53.9162)"></path>
    <g transform="translate(46 20.9162)">
      <path d="m19.8648 45.6732c1.433-.12 2.871-.299 4.259-.672.701-.155 1.387-.37 2.06-.617.671-.254 1.318-.562 1.955-.896.043-.023.096-.006.119.037.009.02.011.042.006.062l-.018.07c-.257.978-.825 1.692-1.476 2.209-.646.537-1.395.891-2.168 1.076-.774.182-1.575.23-2.379.066-.796-.146-1.604-.445-2.358-1.135l-.052-.048c-.036-.032-.038-.088-.006-.124.016-.017.037-.026.058-.028" fill="#cf9544"></path>
      <path d="m30.7847 44.5184c-.627-.342-1.218-.743-1.852-1.066-.6-.384-1.241-.684-1.867-1.028-.033-.019-.045-.06-.026-.094.004-.006.009-.013.015-.018l.085-.074c.598-.521 1.12-.696 1.578-.745.469-.066.871.031 1.209.224.334.199.616.488.791.921.184.415.298.934.185 1.718l-.015.111c-.006.038-.041.064-.08.059-.007-.002-.016-.005-.023-.008" fill="#f7c991"></path>
      <path d="m22.1109 26.743 1.682 2.327 6.368.767s1.926-1.136 1.774-2.718c-.146-1.54-1.137-2.177-1.137-2.177l-4.616-.279z" fill="#f7c991"></path>
      <path d="m30.7926 25.0424c-1.483.039-2.976.133-4.429.426-1.465.235-2.882.69-4.202 1.361-.043.022-.096.005-.117-.039-.011-.021-.013-.044-.006-.065l.021-.068c.3-.985.938-1.681 1.641-2.181.702-.514 1.499-.822 2.304-.975.808-.142 1.633-.142 2.445.068.809.191 1.617.537 2.354 1.273l.049.05c.035.034.035.09 0 .124-.017.017-.039.026-.06.026" fill="#384652"></path>
      <path d="m26.9771 30.3915c0 1.099-.413 1.99-.923 1.99s-.923-.891-.923-1.99.413-1.99.923-1.99.923.891.923 1.99" fill="#5a6c7a"></path>
      <path d="m46.2047 34.8021c0 6.064 4.601 10.981 10.275 10.981 5.675 0 10.276-4.917 10.276-10.981s-4.601-10.981-10.276-10.981c-5.674 0-10.275 4.917-10.275 10.981" fill="#92acbf"></path>
      <path d="m22.9527 13.5458c0 5.675 4.601 10.275 10.275 10.275 5.675 0 10.276-4.6 10.276-10.275s-4.601-10.275-10.276-10.275c-5.674 0-10.275 4.6-10.275 10.275" fill="#92acbf"></path>
      <path d="m52.9107 36.3304c-.812 3.565-3.328 6.032-5.619 5.51s-3.489-3.835-2.677-7.4c.813-3.566 3.329-6.032 5.619-5.51 2.291.521 3.49 3.835 2.677 7.4" fill="#fedfb8"></path>
      <path d="m56.3013 53.933s-.005 5.373 1.464 9.333c1.536 4.142 6.958 9.996 6.294 10.234-3.858 1.381-26.804-2.886-34.33-3.098.311-5.282-.572-7.272-.747-8.852-.072-.636.325-1.224.939-1.405l24.704-7.273c.765-.225 1.553.274 1.676 1.061" fill="#edc001"></path>
      <path d="m46.0836 39.66c.416-.75.781-1.383.907-1.954.067-.281.083-.526.061-.76-.015-.117-.027-.233-.061-.351l-.127-.48c-.125-.509-.124-1.094.071-1.615.187-.521.526-.963.938-1.26.409-.305.897-.461 1.372-.489.476-.008.972.126 1.26.469-.836.178-1.256.688-1.526 1.139-.254.477-.279.854-.17 1.29-.004.051.106.401.129.626.029.255.038.519.003.779-.064.523-.276 1.018-.572 1.4-.606.765-1.429 1.153-2.285 1.206" fill="#cf9544"></path>
      <path d="m30.1441 29.9354c-1.066-.089-2.12-.261-3.184-.357-1.054-.166-2.116-.253-3.173-.409-.043-.006-.074-.046-.068-.089.003-.016.01-.029.02-.041l.06-.069c.58-.666 1.162-.989 1.732-1.183.572-.214 1.132-.255 1.675-.193.542.069 1.072.242 1.572.586.503.324.985.772 1.399 1.558l.043.081c.021.039.006.087-.033.107-.014.008-.028.01-.043.009" fill="#17222a"></path>
      <path d="m51.6763 57.245c-.303 1.925-1.281 3.66-2.45 5.181-1.19 1.521-2.65 2.819-4.248 3.891-1.625 1.027-3.369 1.869-5.209 2.379-.905.295-1.861.423-2.791.574-.951.086-1.905.127-2.862.058.797-.579 1.616-.99 2.404-1.458.774-.498 1.584-.87 2.336-1.349 1.548-.864 3.011-1.797 4.477-2.712 1.435-.961 2.842-1.951 4.218-3.032 1.381-1.084 2.734-2.215 4.125-3.532" fill="#a68602"></path>
      <path d="m45.0084 32.8265s1.075 6.125-4.491 8.123c1.048-2.46.791-7.679-.189-9.344 2.166.512 4.68 1.221 4.68 1.221" fill="#6b8295"></path>
      <path d="m32.2379 15.8622c-1.487 8.609 2.298 18.819 13.908 20.256 10.109 1.25 18.443-7.35 18.443-17.536 0-10.185-8.257-18.442-18.443-18.442-10.184 0-12.401 6.997-13.908 15.722" fill="#92acbf"></path>
      <path d="m30.3111 13.101c.61 1.2 1.097 2.267 1.729 3.2.312.462.604.908.966 1.296.156.207.318.403.496.587.173.185.327.378.526.538.726.678 1.479 1.274 2.309 1.773.815.515 1.681.964 2.617 1.334.452.21.95.344 1.426.534.498.137.987.323 1.503.461.539.163.964.262 1.459.33.49.072 1.004.169 1.531.186 1.048.042 2.154.053 3.27-.085 1.129-.121 2.244-.358 3.452-.822l.061-.023c.074-.028.156.008.184.082.022.054.007.113-.031.152-1.765 1.791-4.233 2.657-6.666 2.978-1.223.157-2.49.15-3.706-.073-1.222-.175-2.423-.499-3.58-.942-2.303-.899-4.412-2.426-5.821-4.486-.704-1.026-1.242-2.162-1.591-3.353-.313-1.202-.439-2.437-.4350921-3.667.0010921-.078.0650921-.141.1430921-.141.054 0 .101.032.125.077z" fill="#fff"></path>
      <path d="m11.9986 57.3251-10.066 3.43-1.233-3.619 10.067-3.43z" fill="#6b8295"></path>
    </g>
  </g>
</svg>
