<?xml version="1.0" encoding="UTF-8"?>
<svg xmlns="http://www.w3.org/2000/svg" xmlns:xlink="http://www.w3.org/1999/xlink" height="120" viewBox="0 0 220 120" width="220">
  <mask id="a" fill="#fff">
    <path d="m.8187.3824h79.5753v35.977h-79.5753z" fill="#fff" fill-rule="evenodd"></path>
  </mask>
  <mask id="b" fill="#fff">
    <path d="m0 75.0499h165.394v-75.05h-165.394z" fill="#fff" fill-rule="evenodd"></path>
  </mask>
  <g fill="none" fill-rule="evenodd" transform="translate(27 20)">
    <path d="m47.7301 39.4094h32.414c4.217-4.175 6.831-9.967 6.831-16.371 0-12.724-10.314-23.038-23.038-23.038-12.725 0-23.039 10.314-23.039 23.038 0 6.404 2.614 12.196 6.832 16.371" fill="#edc001"></path>
    <path d="m76.5407 28.6534h-5.315c.006-.171.025-.34.025-.514 0-6.459-5.236-11.695-11.695-11.695-1.744 0-3.391.391-4.876 1.075-.684-5.808-5.617-10.317-11.608-10.317-1.773 0-3.448.407-4.954 1.113-1.567-4.611-5.924-7.933-11.065-7.933-5.55 0-10.188 3.871-11.386 9.058-1.004-.281-2.059-.443-3.152-.443-6.459 0-11.696 5.237-11.696 11.696 0 6.46 5.237 11.696 11.696 11.696l8.473 3.97h38.319 8.564 8.67c2.128 0 3.854-1.725 3.854-3.853s-1.726-3.853-3.854-3.853" fill="#fedfb8" mask="url(#a)" transform="translate(85 4.0499)"></path>
    <path d="m108.5241 25.0817c-.736-.606-1.8-.606-2.536 0l-6.54 5.377-18.227-14.985c-.738-.607-1.801-.607-2.539 0l-30.329 24.936h38.991 24.206 15.617z" fill="#f7f7f6"></path>
    <g transform="translate(133 34.0499)">
      <path d="m.1921.8031h1v40.1969h-1z"></path>
      <path d="m.6921 41.0001v-40.197" fill="#fff"></path>
      <path d="m.6921 41.0001v-40.197" stroke="#384652" stroke-linejoin="round" stroke-width="3"></path>
    </g>
    <path d="m42.321 75.0499h7.206v-18.79h-7.206z" fill="#f7c991" mask="url(#b)"></path>
    <path d="m45.9245 30.7634-14.696 20.09h29.392z" fill="#5a6c7a" mask="url(#b)"></path>
    <path d="m45.9245 39.8088-14.696 22.09h29.392z" fill="#5a6c7a" mask="url(#b)"></path>
    <path d="m42.321 68.3918v-6.493h7.206z" fill="#cf9544" mask="url(#b)"></path>
    <path d="m133.7321 40.4094h-41.76v29.914h18.221c-3.581 3.068-6.016 4.727-6.016 4.727h29.555 29.556s-19.624-13.342-29.556-34.641" fill="#92acbf" mask="url(#b)"></path>
    <path d="m91.9723 40.4094c-9.932 21.299-29.556 34.641-29.556 34.641h29.556 29.556s-19.624-13.342-29.556-34.641" fill="#5a6c7a" mask="url(#b)"></path>
    <g mask="url(#b)">
      <g transform="translate(61 66.0499)">
        <path d="m1.4167 9.0001v-8.795" fill="#fff" fill-rule="evenodd"></path>
        <path d="m1.4167 9.0001v-8.795" fill="none" stroke="#384652" stroke-linejoin="round" stroke-width="3"></path>
      </g>
    </g>
    <g mask="url(#b)">
      <g transform="translate(120 66.0499)">
        <path d="m1.0348 9.0001v-8.795" fill="#fff" fill-rule="evenodd"></path>
        <path d="m1.0348 9.0001v-8.795" fill="none" stroke="#384652" stroke-linejoin="round" stroke-width="3"></path>
      </g>
    </g>
    <g mask="url(#b)">
      <g transform="translate(91 34.0499)">
        <path d="m.9723 41.0001v-40.197" fill="#fff" fill-rule="evenodd"></path>
        <path d="m.9723 41.0001v-40.197" fill="none" stroke="#384652" stroke-linejoin="round" stroke-width="3"></path>
      </g>
    </g>
    <g mask="url(#b)">
      <g transform="translate(162 66.0499)">
        <path d="m1.2878 9.0001v-8.795" fill="#fff" fill-rule="evenodd"></path>
        <path d="m1.2878 9.0001v-8.795" fill="none" stroke="#384652" stroke-linejoin="round" stroke-width="3"></path>
      </g>
    </g>
    <path d="m53.2721 50.8537h-14.692l-7.352 11.045z" fill="#384652" mask="url(#b)"></path>
    <path d="m14.092 75.0499h9.154v-24.572h-9.154z" fill="#f7c991" mask="url(#b)"></path>
    <path d="m18.6691 7.1887-16.097 23.228h32.194z" fill="#384652" mask="url(#b)"></path>
    <path d="m18.6691 16.9465-18.669 26.939h37.338z" fill="#384652" mask="url(#b)"></path>
    <path d="m18.6691 30.4162-18.669 26.938h37.338z" fill="#384652" mask="url(#b)"></path>
    <path d="m14.0925 65.655v-8.3h9.154z" fill="#cf9544" mask="url(#b)"></path>
    <path d="m28.0036 43.8854h-18.669l-9.334 13.469z" fill="#17222a" mask="url(#b)"></path>
    <path d="m115.0837 49.3259c1.784 1.784 3.604 3.348 5.48 4.835 1.871 1.486 3.806 2.852 5.782 4.167 2.007 1.27 4.031 2.524 6.14 3.691.516.318 1.051.598 1.584.887l1.6.896c1.07.603 2.175 1.144 3.246 1.853-1.261-.069-2.512-.244-3.754-.471-1.21-.318-2.466-.557-3.641-1.013-2.395-.812-4.673-1.967-6.817-3.333-2.116-1.411-4.085-3.064-5.767-4.98-1.652-1.926-3.129-4.078-3.853-6.532" fill="#6b8295" mask="url(#b)"></path>
    <g fill="#fedfb8">
      <path d="m91.9723 3.489c0 .979-.793 1.771-1.771 1.771-.98 0-1.773-.792-1.773-1.771s.793-1.772 1.773-1.772c.978 0 1.771.793 1.771 1.772" mask="url(#b)"></path>
      <path d="m144.9772 9.1184c0 .979-.793 1.771-1.771 1.771-.979 0-1.773-.792-1.773-1.771s.794-1.772 1.773-1.772c.978 0 1.771.793 1.771 1.772" mask="url(#b)"></path>
      <path d="m97.7175 7.1887c0 .417-.339.755-.756.755s-.755-.338-.755-.755.338-.755.755-.755.756.338.756.755" mask="url(#b)"></path>
      <path d="m37.276 12.2458c0 .417-.338.755-.755.755s-.755-.338-.755-.755.338-.755.755-.755.755.338.755.755" mask="url(#b)"></path>
      <path d="m31.861 16.1916c0 .417-.338.755-.755.755s-.755-.338-.755-.755.338-.755.755-.755.755.338.755.755" mask="url(#b)"></path>
    </g>
  </g>
</svg>
