<?xml version="1.0" encoding="UTF-8"?>
<svg xmlns="http://www.w3.org/2000/svg" xmlns:xlink="http://www.w3.org/1999/xlink" height="120" viewBox="0 0 220 120" width="220">
  <mask id="a" fill="#fff">
    <path d="m0 95h162.104v-94.377h-162.104z" fill="#fff" fill-rule="evenodd"></path>
  </mask>
  <g fill="none" fill-rule="evenodd" transform="translate(29 12)">
    <path d="m83.5723 2.4999v91.375" stroke="#92acbf" stroke-linecap="round" stroke-width="3"></path>
    <path d="m132.582 58.6444-103.214-49.788 1.526-3.166 103.214 49.788z" fill="#fedfb8"></path>
    <g transform="translate(0 .3768)">
      <path d="m107.2202 50.2549-51.983-25.057c-2.762-1.331-3.922-4.649-2.59-7.411 1.331-2.761 4.649-3.922 7.411-2.59l51.983 25.056c2.762 1.331 3.921 4.649 2.59 7.411s-4.649 3.922-7.411 2.591" fill="#fedfb8"></path>
      <path d="m52.4863 40.4717c0-12.022-9.746-21.768-21.768-21.768s-21.768 9.746-21.768 21.768c0 12.021 9.746 21.768 21.768 21.768s21.768-9.747 21.768-21.768" fill="#fedfb8"></path>
      <path d="m26.628 26.301h7.743v-21.667h-7.743z" fill="#fedfb8" mask="url(#a)"></path>
      <path d="m26.847 88.504h7.743v-6.403h-7.743z" fill="#5a6c7a" mask="url(#a)"></path>
      <path d="m35.2432 4.6377h-9.488c-.97 0-1.757-.787-1.757-1.757 0-.971.787-1.758 1.757-1.758h9.488c.971 0 1.757.787 1.757 1.758 0 .97-.786 1.757-1.757 1.757" fill="#cf9544" mask="url(#a)"></path>
      <path d="m50.729 65.7539h-49.729v-3.515h49.729c.971 0 1.757.786 1.757 1.757s-.786 1.758-1.757 1.758" fill="#5a6c7a" mask="url(#a)"></path>
      <path d="m38.9834 92.0186h-16.529c-.971 0-1.758-.786-1.758-1.757s.787-1.758 1.758-1.758h16.529c.97 0 1.757.787 1.757 1.758s-.787 1.757-1.757 1.757" fill="#384652" mask="url(#a)"></path>
      <path d="m34.3706 16.5498h-33.371v-3.515h33.371c.971 0 1.757.787 1.757 1.758s-.786 1.757-1.757 1.757" fill="#5a6c7a" mask="url(#a)"></path>
      <path d="m160.6035 94.9981h-160.604v-92.875h3v89.875h157.604z" fill="#92acbf" mask="url(#a)"></path>
      <path d="m123.083 73.861h16.947v-19.41h-16.947z" fill="#edc001" mask="url(#a)"></path>
      <path d="m128.9893 60.7198-20.562 25.973c-1.342 2.278.124 5.307 2.568 5.307h41.123c2.445 0 3.911-3.029 2.568-5.307l-20.562-25.973c-1.213-2.06-3.921-2.06-5.135 0" fill="#edc001" mask="url(#a)"></path>
      <path d="m129.7905 79.4541h3.989l-2.003-5.43zm-3.479 4.499c-.094 0-.179-.035-.255-.105-.077-.071-.114-.159-.114-.264 0-.047.011-.1.035-.158l4.235-11.334c.035-.117.102-.22.202-.308s.237-.132.413-.132h1.916c.175 0 .31.044.403.132.094.088.165.191.211.308l4.236 11.334c.011.058.017.111.017.158 0 .105-.035.193-.105.264-.07.07-.153.105-.246.105h-1.529c-.164 0-.284-.038-.36-.114-.077-.076-.126-.15-.15-.22l-.826-2.144h-5.219l-.826 2.144c-.023.07-.073.144-.149.22-.077.076-.197.114-.36.114z" fill="#fff" mask="url(#a)"></path>
      <path d="m27.1665 73.9268c0 3.11 1.336 5.959 3.552 8.174 2.216-2.215 3.552-5.064 3.552-8.174 0-3.109-1.336-5.958-3.552-8.173-2.216 2.215-3.552 5.064-3.552 8.173" fill="#edc001" mask="url(#a)"></path>
      <path d="m140.3047 59.1748h-17.495c-1.304 0-2.362-1.058-2.362-2.361 0-1.305 1.058-2.363 2.362-2.363h17.495c1.304 0 2.362 1.058 2.362 2.363 0 1.303-1.058 2.361-2.362 2.361" fill="#a68602" mask="url(#a)"></path>
      <path d="m52.4863 40.4717c0-4.768-1.537-9.174-4.136-12.759h-35.264c-2.599 3.585-4.136 7.991-4.136 12.759 0 12.021 9.746 21.768 21.768 21.768s21.768-9.747 21.768-21.768" fill="#f7c991" mask="url(#a)"></path>
      <g fill="#fff">
        <path d="m16.9277 36.8555 2.879.81-.343-4.327zm-3.427 2.542c-.067-.02-.12-.062-.161-.128s-.051-.137-.029-.213c.009-.035.029-.07.057-.107l5.359-7.323c.049-.079.118-.139.209-.182.089-.044.197-.047.324-.011l1.383.389c.127.035.215.094.264.177.051.082.081.17.09.264l.758 9.044c-.003.044-.011.083-.02.117-.022.077-.065.133-.13.169-.064.037-.131.045-.198.026l-1.105-.31c-.118-.033-.196-.085-.236-.155s-.061-.134-.063-.19l-.162-1.714-3.768-1.06-1.031 1.38c-.031.046-.082.089-.153.129-.07.039-.165.041-.283.008z" mask="url(#a)"></path>
        <path d="m25.9043 55.2803 1.963-.997c.423-.214.686-.492.787-.836.103-.342.07-.678-.097-1.008-.175-.344-.432-.572-.771-.686-.338-.115-.715-.066-1.13.145l-1.963.996zm-1.831-3.608 1.845-.937c.415-.211.675-.469.782-.773.106-.305.078-.619-.086-.94-.167-.329-.402-.535-.705-.618-.303-.082-.662-.018-1.077.193l-1.845.937zm1.112 5.54c-.078.039-.158.047-.241.019-.083-.027-.144-.08-.184-.158l-3.884-7.65c-.044-.087-.053-.171-.026-.254.028-.082.08-.144.158-.183l3.409-1.73c.634-.323 1.2-.49 1.697-.501s.927.104 1.29.343c.363.24.658.582.885 1.029.151.298.23.586.238.863.008.276-.029.524-.11.742-.081.22-.177.405-.286.559.377-.013.767.084 1.169.294s.718.543.949.996c.239.47.346.943.321 1.419-.024.474-.191.922-.501 1.34-.31.419-.77.783-1.382 1.093z" mask="url(#a)"></path>
        <path d="m31.8955 33.836 1.321 1.068c.383.309.738.506 1.065.591.327.083.646.05.955-.101.309-.152.627-.422.954-.813.173-.2.323-.376.451-.526.128-.151.253-.304.373-.461.12-.156.257-.336.411-.54.439-.572.633-1.098.583-1.579-.051-.483-.367-.958-.947-1.428l-1.27-1.027zm-2.132.225c-.068-.055-.108-.126-.117-.213-.009-.086.015-.163.07-.232l5.395-6.671c.061-.075.135-.118.221-.127s.165.014.233.07l2.5 2.022c.689.558 1.173 1.123 1.45 1.697.275.575.359 1.162.251 1.764-.109.602-.402 1.206-.881 1.813-.23.311-.439.583-.626.815-.188.233-.408.49-.659.773-.528.624-1.068 1.054-1.621 1.291-.553.236-1.131.277-1.734.123-.604-.155-1.247-.509-1.93-1.062z" mask="url(#a)"></path>
        <path d="m40.7529 49.4707h1.924c.51 0 .901-.121 1.173-.362.273-.242.409-.6.409-1.075 0-.439-.128-.792-.382-1.06-.255-.269-.655-.402-1.2-.402h-1.924zm-1.542 4.863c-.088 0-.163-.03-.224-.092-.062-.061-.092-.136-.092-.224v-8.58c0-.097.03-.176.092-.238.061-.061.136-.091.224-.091h3.532c.686 0 1.283.107 1.793.323.509.215.904.54 1.186.975.281.435.422.977.422 1.627 0 .66-.141 1.202-.422 1.628-.282.426-.677.745-1.186.955-.51.211-1.107.317-1.793.317h-1.964v3.084c0 .088-.028.163-.085.224-.057.062-.134.092-.231.092z" mask="url(#a)"></path>
        <path d="m33.1748 41.669c0 .954-.773 1.727-1.726 1.727-.954 0-1.727-.773-1.727-1.727 0-.953.773-1.727 1.727-1.727.953 0 1.726.774 1.726 1.727" mask="url(#a)"></path>
        <path d="m45.9082 38.0117c0 .594-.481 1.074-1.075 1.074-.593 0-1.075-.48-1.075-1.074s.482-1.075 1.075-1.075c.594 0 1.075.481 1.075 1.075" mask="url(#a)"></path>
        <path d="m17.7227 45.6856c0 1.095-.887 1.982-1.982 1.982s-1.982-.887-1.982-1.982c0-1.094.887-1.981 1.982-1.981s1.982.887 1.982 1.981" mask="url(#a)"></path>
        <path d="m35.145 56.4912c0 .657-.533 1.19-1.19 1.19-.658 0-1.191-.533-1.191-1.19 0-.658.533-1.19 1.191-1.19.657 0 1.19.532 1.19 1.19" mask="url(#a)"></path>
        <path d="m25.9614 30.6123c0 .551-.446.998-.998.998-.55 0-.997-.447-.997-.998s.447-.997.997-.997c.552 0 .998.446.998.997" mask="url(#a)"></path>
      </g>
      <path d="m135.1113 39.8623c0 .979-.793 1.771-1.772 1.771-.978 0-1.772-.792-1.772-1.771s.794-1.772 1.772-1.772c.979 0 1.772.793 1.772 1.772" fill="#f7c991" mask="url(#a)"></path>
      <path d="m128.8926 29.7901c0 .979-.793 1.772-1.772 1.772-.978 0-1.772-.793-1.772-1.772s.794-1.771 1.772-1.771c.979 0 1.772.792 1.772 1.771" fill="#f7c991" mask="url(#a)"></path>
      <path d="m136.6211 47.001c0 .417-.338.755-.755.755s-.755-.338-.755-.755.338-.756.755-.756.755.339.755.756" fill="#f7c991" mask="url(#a)"></path>
      <path d="m140.1797 33.0225c0 .417-.338.755-.755.755s-.755-.338-.755-.755.338-.755.755-.755.755.338.755.755" fill="#f7c991" mask="url(#a)"></path>
      <g mask="url(#a)">
        <g transform="translate(80 24)">
          <path d="m.4033.8203 6.338 3.055" fill="#6b8295" fill-rule="evenodd"></path>
          <path d="m.4033.8203 6.338 3.055" fill="none" stroke="#6b8295" stroke-linecap="round" stroke-linejoin="round" stroke-width="3"></path>
        </g>
      </g>
      <g mask="url(#a)">
        <g transform="translate(80 37)">
          <path d="m.4033.545 6.338 3.055" fill="#6b8295" fill-rule="evenodd"></path>
          <path d="m.4033.545 6.338 3.055" fill="none" stroke="#6b8295" stroke-linecap="round" stroke-linejoin="round" stroke-width="3"></path>
        </g>
      </g>
      <path d="m3 2.1231c0 .828-.671 1.5-1.5 1.5s-1.5-.672-1.5-1.5.671-1.5 1.5-1.5 1.5.672 1.5 1.5" fill="#92acbf" mask="url(#a)"></path>
      <path d="m162.1035 93.5c0 .828-.671 1.5-1.5 1.5s-1.5-.672-1.5-1.5.671-1.5 1.5-1.5 1.5.672 1.5 1.5" fill="#92acbf" mask="url(#a)"></path>
    </g>
  </g>
</svg>
