<?xml version="1.0" encoding="UTF-8"?>
<svg xmlns="http://www.w3.org/2000/svg" xmlns:xlink="http://www.w3.org/1999/xlink" height="120" viewBox="0 0 220 120" width="220">
  <mask id="a" fill="#fff">
    <path d="m.8955.1252h40.107v91.8748h-40.107z" fill="#fff" fill-rule="evenodd"></path>
  </mask>
  <mask id="b" fill="#fff">
    <path d="m.4905.1252h34.512v91.8748h-34.512z" fill="#fff" fill-rule="evenodd"></path>
  </mask>
  <g fill="none" fill-rule="evenodd" transform="translate(28 14)">
    <path d="m37.2455.1252h-7.814l.056.058-2.059 2.059-2.06-2.059.057-.058h-20.773c-2.075 0-3.757 1.683-3.757 3.758v88.117h40.107v-88.117c0-2.075-1.682-3.758-3.757-3.758" fill="#cf9544" mask="url(#a)" transform="translate(54 .8746)"></path>
    <path d="m31.2455.1252h-7.814l.056.058-2.059 2.059-2.06-2.059.057-.058h-15.177c-2.075 0-3.758 1.683-3.758 3.758v88.117h34.512v-88.117c0-2.075-1.682-3.758-3.757-3.758" fill="#f7c991" mask="url(#b)" transform="translate(60 .8746)"></path>
    <path d="m59.6547 18.3123-2.061-2.06 2.061-2.06 2.06 2.06z" fill="#cf9544"></path>
    <path d="m68.4965 12.2908v11.196" stroke="#cf9544" stroke-linecap="round" stroke-linejoin="round" stroke-width="2"></path>
    <path d="m74.9496 3.8757v11.196" stroke="#cf9544" stroke-linecap="round" stroke-linejoin="round" stroke-width="2"></path>
    <path d="m74.9496 72.823v14.195" stroke="#cf9544" stroke-linecap="round" stroke-linejoin="round" stroke-width="2"></path>
    <path d="m81.9642 9.4734v11.196" stroke="#cf9544" stroke-linecap="round" stroke-linejoin="round" stroke-width="2"></path>
    <path d="m87.2289 66.6707v11.196" stroke="#cf9544" stroke-linecap="round" stroke-linejoin="round" stroke-width="2"></path>
    <path d="m95.0023 65.573-34.512 17.979-3.467-20.924 37.979-1.759z" fill="#cf9544"></path>
    <path d="m140.1996 15.0808-138.403 13.23c-1.091.105-1.891 1.074-1.787 2.165l3.506 36.823c.066.699.497 1.31 1.132 1.609l5.875 1.914c.17.031.466.089.79.0843035l132.445-15.8573035c.504-.06.965-.312 1.291-.701l16.491-19.835c.671-.806.598-1.995-.164-2.713l-14.716-13.882c-.153-.145-.328-.264-.519-.354l-4.908-2.304c-.322-.151-.679-.213-1.033-.179" fill="#cf9544"></path>
    <path d="m166.8559 34.4656-19.787-16.24c-.41-.337-.938-.497-1.466-.447l-109.707 10.487-1.773 2.129-2.109-1.758-24.505 2.343c-1.105.105-1.915 1.087-1.81 2.191l3.421 35.924c.105 1.106 1.087 1.917 2.193 1.811l117.405-11.223 1.885-2.221 2.16 1.834 16.643-1.591c.528-.051 1.014-.307 1.354-.716l16.367-19.683c.712-.858.591-2.132-.271-2.84" fill="#fedfb8"></path>
    <g fill="#cf9544">
      <path d="m19.414 56.1228c-.112.011-.209-.02-.295-.09-.085-.071-.133-.161-.144-.272l-1.036-10.879c-.011-.123.018-.227.089-.312.07-.086.16-.134.272-.144l1.286-.122c.157-.015.274.01.353.075.08.065.132.114.158.146l5.525 7.028-.699-7.337c-.011-.122.015-.225.081-.31.065-.085.158-.134.281-.145l1.404-.134c.122-.011.226.018.312.089.085.07.134.166.145.289l1.035 10.861c.012.123-.018.227-.089.313-.07.085-.162.132-.273.143l-1.303.124c-.157.016-.271-.013-.346-.085-.074-.071-.129-.116-.164-.135l-5.493-6.863.684 7.186c.011.111-.019.209-.09.295-.07.085-.167.133-.29.145z"></path>
      <path d="m31.8959 54.9343c-.111.011-.21-.02-.295-.09-.086-.071-.134-.161-.144-.273l-1.036-10.879c-.011-.122.018-.226.088-.311.071-.086.161-.134.273-.144l7.352-.7c.122-.011.227.018.313.088.085.071.134.166.145.289l.105 1.103c.011.112-.02.21-.09.295-.07.086-.167.135-.29.146l-5.497.524.281 2.958 5.131-.488c.122-.012.226.014.31.08.085.064.133.158.145.28l.099 1.036c.011.123-.018.225-.089.304-.072.08-.168.125-.29.136l-5.13.49.291 3.057 5.632-.536c.122-.011.225.019.31.088.086.07.134.168.146.29l.105 1.104c.011.111-.019.209-.09.295-.07.085-.167.133-.289.145z"></path>
      <path d="m41.9057 53.9812c-.101.009-.187-.017-.261-.077-.072-.06-.113-.14-.123-.24-.003-.035-.001-.069.007-.103s.017-.068.023-.102l3.229-5.771-4.003-4.847c-.04-.063-.062-.129-.069-.195-.009-.101.016-.187.076-.261.06-.073.141-.114.241-.124l1.705-.162c.133-.013.242.01.326.069.085.061.159.126.222.2l2.8 3.375 2.13-3.845c.037-.082.094-.161.172-.236.076-.075.182-.118.315-.13l1.621-.155c.101-.009.188.015.261.076.072.06.114.141.123.242.007.065-.01.135-.048.206l-2.999 5.513 4.259 5.057c.025.032.046.063.059.096.015.032.024.065.028.099.01.1-.019.187-.085.26-.067.075-.144.116-.233.123l-1.771.169c-.135.013-.244-.01-.327-.07-.085-.059-.153-.12-.203-.183l-3.034-3.521-2.263 4.025c-.038.072-.094.145-.165.218-.072.075-.18.119-.326.133z"></path>
      <path d="m57.2631 52.5183c-.112.011-.211-.02-.296-.09-.086-.07-.134-.161-.144-.272l-.88-9.241-3.091.294c-.112.011-.21-.019-.295-.089-.086-.071-.134-.163-.145-.274l-.118-1.236c-.01-.123.019-.227.089-.312.07-.086.161-.134.273-.144l8.522-.812c.123-.011.227.019.312.089s.133.166.145.289l.118 1.236c.011.112-.019.211-.09.296s-.167.134-.289.146l-3.075.293.88 9.24c.011.112-.02.21-.09.295-.07.086-.168.134-.29.146z"></path>
      <path d="m73.6869 51.1228c-1.035.099-1.931.002-2.684-.292s-1.351-.759-1.794-1.397c-.442-.638-.732-1.428-.866-2.372-.054-.455-.106-.944-.157-1.468-.05-.524-.092-1.026-.127-1.506-.044-.94.094-1.768.413-2.484.32-.716.821-1.289 1.506-1.72.684-.43 1.539-.695 2.563-.792.758-.073 1.447-.036 2.068.107s1.159.369 1.616.68.824.689 1.103 1.135c.278.445.449.941.512 1.486.021.099-.003.185-.068.259-.066.074-.149.116-.249.125l-1.588.151c-.123.012-.226-.01-.31-.063-.084-.054-.149-.152-.196-.293-.248-.719-.602-1.191-1.062-1.417s-1.014-.308-1.659-.246c-.747.071-1.323.336-1.728.796-.406.46-.58 1.171-.522 2.133.052.916.142 1.852.266 2.807.125.955.43 1.62.916 1.994.485.376 1.102.528 1.848.458.645-.061 1.175-.25 1.59-.565.414-.315.67-.842.768-1.582.018-.16.065-.27.137-.334.072-.063.17-.1.293-.112l1.588-.151c.099-.01.188.016.267.076.079.059.118.141.117.241.04.547-.035 1.066-.224 1.556s-.479.931-.868 1.322c-.39.391-.876.715-1.459.974-.583.258-1.252.422-2.01.494"></path>
      <path d="m81.6586 50.1951c-.111.011-.209-.017-.294-.081-.085-.065-.133-.158-.144-.281l-1.037-10.879c-.011-.122.018-.226.088-.311.072-.086.161-.134.274-.144l1.519-.145c.123-.012.225.018.305.089.079.071.125.167.137.29l.411 4.312 4.928-.47-.41-4.312c-.011-.122.018-.225.088-.311.071-.085.162-.133.274-.144l1.503-.143c.124-.012.227.018.312.089.085.07.134.166.146.289l1.036 10.879c.01.111-.02.209-.09.294-.071.085-.167.134-.29.146l-1.503.143c-.111.01-.211-.02-.296-.09-.086-.071-.134-.161-.145-.273l-.425-4.478-4.93.469.427 4.479c.011.111-.017.209-.082.294s-.159.133-.281.144z"></path>
      <path d="m96.2904 44.4851 3.793-.361-2.397-4.982zm-2.901 4.594c-.089.008-.173-.018-.252-.078-.079-.059-.123-.139-.133-.24-.004-.045.002-.095.019-.154l3.001-11.161c.023-.114.078-.218.164-.311.086-.092.214-.146.381-.162l1.822-.174c.168-.015.298.014.396.089.097.075.173.166.228.273l5.053 10.394c.017.056.028.105.032.15.009.1-.016.186-.077.259-.06.074-.135.115-.224.124l-1.453.137c-.158.016-.274-.011-.354-.076-.079-.065-.133-.13-.162-.194l-.979-1.965-4.962.473-.592 2.114c-.017.069-.058.142-.122.221-.067.08-.177.127-.332.142z"></path>
      <path d="m108.1244 41.4539 2.439-.232c.646-.062 1.127-.262 1.444-.602.316-.339.446-.81.388-1.41-.052-.558-.257-.99-.613-1.3-.355-.309-.879-.431-1.568-.364l-2.44.232zm-1.368 6.352c-.111.01-.209-.02-.295-.09-.085-.071-.133-.161-.144-.273l-1.036-10.879c-.011-.122.018-.225.088-.311.071-.085.161-.133.274-.144l4.478-.426c.868-.083 1.639-.019 2.312.192.67.212 1.212.576 1.62 1.094.41.517.653 1.188.731 2.013.08.835-.032 1.54-.338 2.115-.304.574-.767 1.025-1.387 1.353-.622.329-1.367.536-2.235.618l-2.49.238.372 3.91c.011.111-.017.209-.081.294-.065.085-.159.133-.281.144z"></path>
      <path d="m121.0111 46.448c-.111.011-.21-.02-.296-.09-.085-.07-.133-.161-.143-.272l-.88-9.241-3.092.294c-.111.011-.209-.019-.295-.089-.085-.071-.133-.163-.144-.274l-.118-1.236c-.011-.123.018-.227.089-.312.07-.086.161-.134.273-.143l8.522-.813c.122-.011.226.019.312.089.084.07.133.167.145.289l.117 1.236c.011.112-.018.211-.09.296-.07.085-.166.134-.289.146l-3.074.293.88 9.24c.01.112-.02.21-.09.295-.071.086-.168.134-.29.146z"></path>
      <path d="m129.2152 45.6667c-.111.011-.21-.02-.295-.09-.086-.07-.134-.161-.144-.272l-1.036-10.879c-.011-.122.018-.226.088-.312.071-.085.161-.133.273-.143l7.352-.7c.122-.012.227.017.313.087.085.072.134.167.145.289l.105 1.104c.011.111-.02.21-.09.295-.07.086-.167.134-.29.145l-5.497.524.281 2.958 5.131-.488c.122-.012.226.015.31.08.085.065.133.159.145.281l.099 1.036c.011.122-.019.224-.089.303-.072.081-.168.126-.29.137l-5.13.489.291 3.057 5.631-.536c.123-.011.226.019.311.089.086.07.134.167.146.29l.105 1.103c.011.112-.019.21-.09.295-.07.086-.167.133-.289.145z"></path>
      <path d="m141.599 38.1306 2.356-.224c.679-.065 1.171-.266 1.477-.604.305-.339.431-.786.378-1.343-.053-.558-.26-.978-.618-1.265-.359-.286-.884-.396-1.574-.33l-2.356.224zm-1.322 6.483c-.112.011-.209-.019-.295-.089-.085-.072-.133-.162-.144-.274l-1.036-10.879c-.012-.122.018-.225.089-.31.07-.086.161-.134.272-.145l4.329-.412c1.347-.128 2.44.083 3.28.632.839.55 1.315 1.42 1.43 2.612.078.825-.061 1.528-.416 2.113-.354.585-.86 1.033-1.515 1.342l2.845 4.029c.04.064.062.124.067.179.01.101-.019.188-.085.261-.065.073-.144.115-.232.123l-1.521.145c-.189.018-.339-.018-.448-.109-.111-.091-.197-.183-.263-.279l-2.532-3.754-2.323.221.382 4.01c.01.112-.017.209-.082.294s-.16.134-.282.145z"></path>
    </g>
    <path d="m79.6713 29.7498c0-1.063-.861-1.925-1.925-1.925-1.062 0-1.924.862-1.924 1.925 0 1.062.862 1.924 1.924 1.924 1.064 0 1.925-.862 1.925-1.924" fill="#f7c991"></path>
  </g>
</svg>
