<?xml version="1.0" encoding="UTF-8"?>
<svg xmlns="http://www.w3.org/2000/svg" xmlns:xlink="http://www.w3.org/1999/xlink" height="120" viewBox="0 0 220 120" width="220">
  <mask id="a" fill="#fff">
    <path d="m.09307144.22334616h39.70417006v57.77665384h-39.70417006z" fill="#fff" fill-rule="evenodd"></path>
  </mask>
  <mask id="b" fill="#fff">
    <path d="m.0561.0191h44.0469v56.246h-44.0469z" fill="#fff" fill-rule="evenodd"></path>
  </mask>
  <mask id="c" fill="#fff">
    <path d="m.7322.802h4.197v3.5919h-4.197z" fill="#fff" fill-rule="evenodd"></path>
  </mask>
  <g fill="none" fill-rule="evenodd" transform="translate(19 19)">
    <path d="m20.4712 50.6354-10.433 6.6c-1.543.975-3.584.516-4.559-1.027l-4.467-7.06c-.976-1.543-.517-3.584 1.026-4.56l10.433-6.599c1.543-.977 3.584-.517 4.561 1.025l4.465 7.061c.976 1.542.517 3.584-1.026 4.56z" stroke="#92acbf" stroke-width="3"></path>
    <path d="m31.2534 68.7185-10.433 6.6c-1.543.975-3.584.516-4.56-1.027l-4.466-7.06c-.976-1.543-.517-3.584 1.026-4.56l10.433-6.599c1.543-.976 3.584-.517 4.56 1.026l4.466 7.06c.976 1.542.517 3.584-1.026 4.56z" stroke="#92acbf" stroke-width="3"></path>
    <path d="m2.2788 35.5993 26.775 42.091c17.879-11.397 39.108-18.003 61.882-18.003s44.003 6.606 61.881 18.003c13.206-20.759 18.202-28.612 26.776-42.091-25.615-16.328-56.03-25.793-88.657-25.793-32.628 0-63.043 9.465-88.657 25.793" fill="#5a6c7a"></path>
    <path d="m152.8169 77.6906c-17.878-11.397-39.107-18.003-61.881-18.003s-44.003 6.606-61.882 18.003l-13.387-21.046c21.746-13.862 47.568-21.898 75.269-21.898 27.7 0 53.523 8.036 75.269 21.898z" fill="#384652"></path>
    <path d="m4.7759 57.8452-4.213-2.656c-.471-.297-.611-.918-.314-1.388l33.478-53.108c.296-.46985384.917-.611 1.388-.315l4.213 2.656c.4693415.297.611.918.314 1.388l-33.478 53.109c-.296.4688983-.918.61-1.388.314" fill="#384652" mask="url(#a)" transform="translate(139 23.1975)"></path>
    <path d="m14.3101 56.2651-14.254-8.986 29.793-47.26 14.254 8.986z" fill="#6b8295" mask="url(#b)" transform="translate(137 24.1975)"></path>
    <g fill="#17222a">
      <path d="m37.3931 25.2253c-.741 1.167-.961 2.648-.44 4.043l4.128 11.059-1.016.379c-.773.289-1.165 1.149-.877 1.922l9.234 24.743c.049.13.118.245.196.353 4.282-1.692 8.683-3.146 13.199-4.322.117-.322.131-.684.002-1.031l-9.235-24.743c-.288-.773-1.148-1.166-1.921-.877l-1.015.379-4.127-11.059c-.521-1.395-1.655-2.369-2.98-2.766-.697-2.271-.902-4.006-.947-5.974-2.547.797-5.072 1.645-7.564 2.56 1.436 1.696 2.537 3.249 3.363 5.334"></path>
      <path d="m71.9106 32.6906-1.069.148c-.82.113-1.392.869-1.279 1.688l3.617 26.155c.017.129.055.248.103.363 4.525-.696 9.135-1.135 13.818-1.288.197-.294.295-.655.244-1.033l-3.618-26.156c-.113-.818-.869-1.391-1.687-1.277l-1.07.148-2.921-21.125c-3.058.236-6.089.567-9.098.968z"></path>
      <path d="m139.6353 26.8635-5.528-1.183-26.014-5.567-3.019 14.107-.813-.173c-.807-.173-1.601.341-1.773 1.148l-5.336 24.939c-.08.37-.009.735.164 1.042 13.53.098 26.448 3.163 38.563 7.603l5.391-25.286c.173-.806-.341-1.601-1.149-1.773l-.812-.174 3.018-14.107z"></path>
    </g>
    <path d="m30.0913 5.0964s1.965 6.057-1.095 12.76c2.858 3.217 4.795 5.164 6.075 8.432 1.583-.591 2.571-.96 2.571-.96s.986-.368 2.57-.959c-1.167-3.773-.985-6.048-.934-10.35-6.704-3.06-9.187-8.923-9.187-8.923" fill="#6b8295"></path>
    <path d="m58.7466 68.8019c.883 2.366-.319 5-2.686 5.882-2.365.883-4.999-.319-5.881-2.685-.884-2.365.318-4.999 2.684-5.883 2.366-.882 5 .32 5.883 2.686" fill="#17222a"></path>
    <path d="m43.1763 27.0803c.883 2.366-.319 5-2.686 5.883-2.365.883-4.999-.32-5.881-2.685-.884-2.366.318-5 2.684-5.883s5 .319 5.883 2.685" fill="#17222a"></path>
    <path d="m58.7466 68.8019-8.567 3.197-15.571-41.721 8.568-3.198z" fill="#384652"></path>
    <path d="m58.5972 65.3034-10.598 3.955c-.772.288-1.633-.104-1.922-.877l-9.234-24.744c-.288-.773.105-1.633.878-1.922l10.597-3.955c.773-.288 1.633.105 1.922.877l9.234 24.744c.289.773-.105 1.633-.877 1.922" fill="#6b8295"></path>
    <path d="m35.3833 15.4724c.421 1.129.205 2.253-.483 2.51-.689.257-1.588-.45-2.009-1.58-.422-1.129-.205-2.252.483-2.51.688-.256 1.587.451 2.009 1.58" fill="#fff"></path>
    <path d="m30.0913 5.0964 3.833 10.27" fill="#fff"></path>
    <path d="m30.0913 5.0964 3.833 10.27" stroke="#fff" stroke-width=".75"></path>
    <path d="m39.8921 43.7482 8.735 23.24" stroke="#92acbf" stroke-linecap="round" stroke-linejoin="round" stroke-width="2"></path>
    <path d="m126.3384 71.947-26.015-5.567 9.826-45.916 26.014 5.566z" fill="#fff"></path>
    <path d="m120.8101 70.7639-24.739-5.294c-.704-.15-1.154-.843-1.003-1.547l9.279-43.366c.151-.705.845-1.154 1.55-1.003l24.738 5.293z" fill="#92acbf"></path>
    <path d="m100.1802 66.3493-2.692-.576 9.825-45.916 2.692.576z" fill="#6b8295"></path>
    <path d="m129.0298 72.5226-2.691-.576 9.825-45.916 2.691.576z" fill="#92acbf"></path>
    <path d="m130.688 68.7477-35.86-7.673c-.807-.173-1.322-.967-1.149-1.774l5.336-24.939c.173-.806.967-1.321 1.775-1.148l35.86 7.673c.807.173 1.321.967 1.148 1.774l-5.337 24.939c-.171.806-.966 1.32-1.773 1.148" fill="#6b8295"></path>
    <path d="m113.0991 69.1125h-.001l-6.581-1.416h-.001l-1.417 6.583 4-2.584 2.584 4z" fill="#edc001"></path>
    <path d="m101.8501 35.0051-5.199 24.599" stroke="#92acbf" stroke-linecap="round" stroke-linejoin="round" stroke-width="2"></path>
    <path d="m82.7642 64.4226c.346 2.502-1.402 4.812-3.905 5.158s-4.813-1.402-5.158-3.905c-.346-2.503 1.402-4.812 3.905-5.158 2.502-.346 4.811 1.402 5.158 3.905" fill="#f7c991"></path>
    <path d="m82.7593 64.423-9.059 1.252-7.743-55.999 9.059-1.253z" fill="#edc001"></path>
    <path d="m68.8286 1.4538-2.875 8.223 9.067-1.254-4.999-7.134c-.316-.452-1.011-.356-1.193.165" fill="#fedfb8"></path>
    <path d="m4.9292 3.8129-1.906-2.722c-.318-.452-1.013-.356-1.195.165l-1.096 3.138z" fill="#17222a" mask="url(#c)" transform="translate(67 .1975)"></path>
    <path d="m82.7593 64.423-4.529.626-7.743-55.999 4.529-.627z" fill="#a68602"></path>
    <path d="m83.3735 60.9768-11.198 1.548c-.82.114-1.575-.459-1.689-1.278l-3.616-26.155c-.113-.819.459-1.574 1.277-1.688l11.199-1.548c.819-.113 1.575.459 1.688 1.278l3.616 26.155c.114.819-.459 1.575-1.277 1.688" fill="#6b8295"></path>
    <path d="m82.3032 61.1247-9.059 1.252.456 3.299 9.059-1.253z" fill="#92acbf"></path>
    <path d="m69.7964 35.2951 3.648 24.876" stroke="#92acbf" stroke-linecap="round" stroke-linejoin="round" stroke-width="2"></path>
  </g>
</svg>
