<?xml version="1.0" encoding="UTF-8"?>
<svg xmlns="http://www.w3.org/2000/svg" xmlns:xlink="http://www.w3.org/1999/xlink" height="140" viewBox="0 0 220 140" width="220">
  <defs>
    <linearGradient id="a" x1="-.000042%" x2="112.681519%" y1="45.778649%" y2="45.778649%">
      <stop offset="0" stop-color="#fddfb8"></stop>
      <stop offset="1" stop-color="#f6c890"></stop>
    </linearGradient>
    <path id="b" d="m7.0591 63.6953134c-3.1-.607-6.5561-.599766-7.0591-1.460766 3.632-5.144 8.2363-14.098134 9.2443-18.109134l.003.001s9.576 7.917 22.751 10.907c-.175 1.95.1246912 6.938.3926912 8.838-4.21.067-18.3528912 1.1919-25.3318912-.1761z"></path>
    <path id="c" d="m42.0182374 15.018216c-1.737-5.88600004-4.311-11.59500004-5.114-13.12000004-.965-1.832-8.312-2.974-22.77-.386-14.81000004 2.652-13.50800004 5.98-13.94200004 10.59400004-.12 1.28-.098 2.851-.158 4.136-.084 1.803.013 5.144.013 5.144s13.78700004-2.991 24.02000004-4.632c10.232-1.64 17.951-1.736 17.951-1.736"></path>
    <mask id="d" fill="#fff">
      <path d="m0 14.796c3.352 3.142 5.974 6.163 7.352 10.005 1.86-.634 3.019-1.029 3.019-1.029s1.159-.395 3.02-1.029c-1.23-4.426-.76-9.274-.438-12.365-7.688-3.781-10.681-10.378-10.681-10.378s1.507 7.107-2.272 14.796" fill="#fff" fill-rule="evenodd"></path>
    </mask>
    <mask id="e" fill="#fff">
      <path d="m0 14.796c3.352 3.142 5.974 6.163 7.352 10.005 1.86-.634 3.019-1.029 3.019-1.029s1.159-.395 3.02-1.029c-1.23-4.426-.76-9.274-.438-12.365-7.688-3.781-10.681-10.378-10.681-10.378s1.507 7.107-2.272 14.796" fill="#fff" fill-rule="evenodd"></path>
    </mask>
    <mask id="f" fill="#fff">
      <path d="m21.6264808.068c-9.552.965-22.09499999 4.438-21.61299999 15.051.483 10.614 3.088 9.649 5.693 18.236 2.605 8.587-1.93 15.63-3.762 21.805 6.174 2.701 20.54999999 5.885 26.62899999 5.789-.868-6.175 1.02-12.506 1.02-12.506s8.737 2.013 11.379-.272c2.019-1.745.505-4.734 2.46-6.687 1.785-1.786 1.592-2.461 1.592-3.691 1.305-.676.627-2.316.723-3.281.096-.964 1.157-1.64 2.026-2.99.868-1.351.03-1.613-2.22-3.377-2.441-1.916-2.412-2.702-2.121-6.175.289-3.474-.291-7.623-1.447-13.218s-9.803-8.752-18.987-8.752c-.46 0-.917.022-1.372.068" fill="#fff" fill-rule="evenodd"></path>
    </mask>
    <mask id="g" fill="#fff">
      <path d="m4.32018895.56c-2.516-.146-4.534-.291-4.302 1.221.34 2.22 9.864 2.039 14.24199995 1.389-.403-.435-1.148-.932-2.205-1.76-.674-.53-1.16-.972-1.504-1.41-1.76499995.8-4.16599995.68-6.23099995.56" fill="#fff" fill-rule="evenodd"></path>
    </mask>
    <mask id="h" fill="#fff">
      <use fill="#fff" fill-rule="evenodd" xlink:href="#b"></use>
    </mask>
    <mask id="i" fill="#fff">
      <use fill="#fff" fill-rule="evenodd" xlink:href="#c"></use>
    </mask>
    <mask id="j" fill="#fff">
      <path d="m39.0353219 41.7801585 13.6840475 6.7492307 16.2466068-2.960257-3.0174136-9.4920162-14.756024-20.1678474-7.5899967 2.5486559-8.9747005 14.0047915z" fill="#fff" fill-rule="evenodd"></path>
    </mask>
  </defs>
  <g fill="none" fill-rule="evenodd" transform="translate(29.4996 33.272851)">
    <path d="m43.3687236 42.7548699 19.923894 1.7431148c2.2007325.1925392 3.828695 2.1326692 3.6361558 4.3334018l-1.8893122 21.597751c-9.7445398-.6753474-19.0638256-1.9771173-27.7730139-3.817054l1.7688746-20.2210578c.1925391-2.2007326 2.1326692-3.828695 4.3334017-3.6361558z" fill="#384652"></path>
    <path d="m39.0353219 46.3910257c.1925391-2.2007326 2.1326692-3.828695 4.3334017-3.6361558l19.923894 1.7431148c2.2007325.1925392 3.828695 2.1326692 3.6361558 4.3334018l-1.8893122 21.597751" fill="#384652" stroke="#17222a" stroke-linecap="round" stroke-linejoin="round" stroke-width="2"></path>
    <g transform="translate(110.2176 45.90514)">
      <path d="m27.7082 16.2800759 2.859-9.66499998-19.218-5.715-6.613 22.34399998c8.292-1.856 16.005-4.202 22.972-6.964" fill="#fff"></path>
      <path d="m30.1759 15.2527759 2.381-8.04599998-1.989-.591-2.86 9.66399998c.84-.333 1.65-.682 2.468-1.027" fill="#92acbf"></path>
      <path d="m22.716 18.1350759 3.768-12.73399998-17.977-5.347c-.686-.204-1.407.187-1.61.873l-6.897 23.30599998c8.122-1.594 15.739-3.648 22.716-6.098" fill="#92acbf"></path>
      <path d="m4.6125 23.2732759 6.63-22.40499998-1.988-.592-6.95 23.48199998c.77-.161 1.548-.316 2.308-.485" fill="#6b8295"></path>
    </g>
    <g transform="translate(18.52 28.259516)">
      <path d="m2.272.0003s1.508 7.107-2.272 14.795c3.352 3.143 5.974 6.164 7.352 10.006 1.86-.634 3.02-1.03 3.02-1.03s1.159-.395 3.02-1.028c-1.23-4.426-.761-9.274-.438-12.365-7.689-3.781-10.682-10.378-10.682-10.378" fill="#6b8295"></path>
      <path d="m8.3927 12.1311c.55 1.614.198 3.193-.785 3.529-.984.335-2.227-.702-2.778-2.316-.549-1.613-.198-3.193.787-3.528.983-.335 2.226.701 2.776 2.315" fill="#17222a" mask="url(#d)" transform="translate(.0004)"></path>
      <g transform="translate(.0004)">
        <path d="m2.2716.0003 4.111 12.066" fill="#fff" mask="url(#e)"></path>
        <path d="m2.2716.0003 4.111 12.066" mask="url(#e)" stroke="#17222a" stroke-width="2"></path>
      </g>
      <path d="m16.7466 25.9934c.946 2.78-.539 5.801-3.318 6.748-2.781.947-5.801-.539-6.748-3.318-.948-2.78.538-5.801 3.317-6.748 2.78-.948 5.802.538 6.749 3.318" fill="#17222a"></path>
      <path d="m21.605 40.2537-4.858-14.26-10.067 3.429 2.483 7.289c3.963 1.31 8.117 2.493 12.442 3.542" fill="#384652"></path>
    </g>
    <path d="m124.4629 15.114416c-1.027.757-4.264 1.786-8.234 2.799-3.119.796-6.69 1.582-9.999 2.218-7.526 1.447-2.099-8.587-2.099-8.587l17.234 2.087 2.561.945z" fill="#9f6100"></path>
    <path d="m107.9668 15.018216c1.157 5.596 1.736 9.745 1.447 13.218-.29 3.473-.32 4.259 2.122 6.175 2.25 1.764 3.088 2.026 2.219 3.377-.868 1.351-1.93 2.026-2.025 2.991-.097.965.582 2.605-.723 3.28 0 1.23.192 1.905-1.593 3.691-1.954 1.954-.44 4.942-2.459 6.687-2.642 2.286-11.38.273-11.38.273s-1.888 6.33-1.019 12.505c-6.079.096-20.455-3.087-26.63-5.789 1.833-6.175 6.368-13.218 3.763-21.805s-5.21-7.622-5.693-18.235c-.482-10.614 12.061-14.08700004 21.613-15.05200004 9.551-.964 20.358 8.68400004 20.358 8.68400004" fill="#fedfb8"></path>
    <path d="m29.5932808 48.4434s-2.678-.512-8.618-2.45c-3.401-1.109 2.051 7.239 9.721 9.796 3.28-1.544-1.103-7.346-1.103-7.346" fill="#f7c991" mask="url(#f)" transform="translate(65.981919 6.266716)"></path>
    <path d="m4.32018895.56c-2.516-.146-4.534-.291-4.302 1.221.34 2.22 9.864 2.039 14.24199995 1.389-.403-.435-1.148-.932-2.205-1.76-.674-.53-1.16-.972-1.504-1.41-1.76499995.8-4.16599995.68-6.23099995.56" fill="url(#a)" mask="url(#g)" transform="translate(99.480211 33.001716)"></path>
    <g transform="translate(62.5004 6.266803)">
      <path d="m25.108.0678134c4.404-.445 9.074 1.368 12.829 3.45l1.4500165 2.725s.0729835 8.466-9.4790165 10.854c-.289 4.848-2.393 14.256-2.393 14.256s-8.172 6.223-13.382 8.9c-3.671 1.887-4.383 2.061-4.485 2 .005-.027.008-.056.013-.083.004-.005.007-.008.007-.008l-.006-.005c.47-2.752.475-5.673-.474-8.802-2.604-8.587-5.21-7.622-5.692-18.236-.483-10.613 12.06-14.086 21.612-15.051" fill="#384652"></path>
      <path d="m19.2506 30.7553134c.812 3.565 3.328 6.032 5.619 5.51 2.291-.521 3.489-3.835 2.677-7.4-.813-3.565-3.328-6.032-5.619-5.51s-3.489 3.835-2.677 7.4" fill="#fedfb8"></path>
      <use fill="#6b8295" xlink:href="#b"></use>
      <path d="m35.4263 58.2480134c-8.886-1.2-15.084-3.818-19.716-6.021s-10.977-6.696-10.977-6.696" mask="url(#h)" stroke="#5a6c7a" stroke-width="2"></path>
    </g>
    <g transform="translate(65.948563)">
      <path d="m35.4371374 15.382016c-2.778-2.486 6.581-.364 6.581-.364.529 2.559.93 4.804 1.19 6.832-.078-.143-2.937-5.395-7.771-6.468" fill="#17222a"></path>
      <path d="m45.0631374 44.159416c-.695.725-1.45 1.076-2.202 1.283-.756.227-1.52.254-2.269.158-.748-.1-1.487-.346-2.162-.778-.678-.41-1.31-.997-1.734-1.899l-.032-.069c-.02-.043-.001-.094.041-.114.02-.009.042-.011.061-.005 1.344.398 2.705.73 4.099.884 1.383.225 2.789.291 4.189.34.048.002.085.042.0840198.09-.0010198.022-.0100198.042-.0240198.057z" fill="#cf9544"></path>
      <path d="m39.0651374 26.077316.456 2.837-6.368.767s-1.925-1.136-1.775-2.717c.147-1.541 1.015-2.407 1.015-2.407z" fill="#f7c991"></path>
      <path d="m31.6403374 24.687216c.646-.731 1.368-1.076 2.087-1.268.724-.211 1.457-.214 2.17-.082.71.136 1.407.429 2.014.91.609.459 1.15 1.108 1.405 2.032l.02.075c.013.046-.013.092-.059.105-.02.005-.039.003-.057-.004-1.184-.532-2.416-.947-3.699-1.154-1.268-.274-2.573-.366-3.87-.414-.047-.002-.084-.042-.0820775-.089 0-.021.0090775-.04.0200775-.054z" fill="#384652"></path>
      <path d="m33.1363374 29.582716c.414-.786.897-1.234 1.399-1.558.5-.344 1.03-.517 1.573-.586.544-.062 1.103-.021 1.674.193.57.195 1.152.517 1.733 1.183l.06.07c.029.033.026.083-.007.111-.012.011-.027.017-.04.019-1.059.155-2.121.242-3.175.408-1.064.097-2.117.268-3.183.357-.044.004-.082-.029-.086-.072-.001-.016.002-.03.009-.043z" fill="#17222a"></path>
      <path d="m36.3375374 30.236016c0 1.099.413 1.99.923 1.99.509 0 .922-.891.922-1.99s-.413-1.99-.922-1.99c-.51 0-.923.891-.923 1.99" fill="#17222a"></path>
      <path d="m22.4078374 37.763816c-.857-.053-1.68-.442-2.285-1.206-.297-.382-.509-.877-.572-1.4-.036-.26-.026-.524.003-.779.022-.226.133-.575.128-.626.109-.436.085-.814-.169-1.29-.27-.451-.691-.961-1.526-1.139.287-.344.783-.477 1.259-.47.475.029.963.185 1.372.49.413.297.751.739.938 1.259.195.522.196 1.107.071 1.616l-.127.48c-.034.118-.045.234-.061.351-.022.234-.006.479.061.76.126.571.492 1.204.908 1.954" fill="#cf9544"></path>
      <path d="m6.89813736 13.815116c0 5.89 6.50100004 10.665 14.52100004 10.665 8.019 0 14.52-4.775 14.52-10.665 0-5.89000004-6.501-10.66500004-14.52-10.66500004-8.02 0-14.52100004 4.775-14.52100004 10.66500004" fill="#17222a"></path>
      <path d="m18.5729374 19.298016c0 3.904-4.709 7.069-10.51800004 7.069-3.111 0-5.898-.914-7.824-2.358-.077-.79-.139-1.657-.183-2.623-.161-3.531 1.126-6.269 3.259-8.39 1.428-.487 3.038-.767 4.748-.767 5.80900004 0 10.51800004 3.165 10.51800004 7.069" fill="#17222a"></path>
      <use fill="#edac01" xlink:href="#c"></use>
      <path d="m-3.66436264 30.832216 13.71000004-2.326c1.283-.218 2.147-1.435 1.93-2.719l-1.638-9.65c-.218-1.284-1.43500004-2.147-2.71900004-1.93l-13.71 2.327c-1.283.217-2.147 1.435-1.929 2.718l1.637 9.65c.218 1.284 1.435 2.148 2.719 1.93" fill="#d18900" mask="url(#i)"></path>
      <path d="m41.6285374 8.46501596c.656 1.88900004 1.416 4.48500004 2.008 6.51700004.224.77-.324 1.544-1.125 1.587-2.978.163-9.809.623-17.083 1.715-.729.11-2.303.449-2.3050214-.288-.0029786-1.241.3110214-6.451.4430214-7.923.056-.60800004.36-1.15500004.955-1.29400004 2.533-.593 9.898-1.805 16.083-1.146.473.051.869.382 1.024.832" fill="#fff" mask="url(#i)"></path>
      <path d="m41.6285374 8.46501596c.656 1.88900004 1.416 4.48500004 2.008 6.51700004.224.77-.324 1.544-1.125 1.587-2.978.163-9.809.623-17.083 1.715-.729.11-2.303.449-2.3050214-.288-.0029786-1.241.3110214-6.451.4430214-7.923.056-.60800004.36-1.15500004.955-1.29400004 2.533-.593 9.898-1.805 16.083-1.146.473.051.869.382 1.024.832z" mask="url(#i)" stroke="#d18900" stroke-width="2"></path>
    </g>
    <path d="m90.0156 16.754616c8.378-.239 13.45.71 19.166-.469 1.825-.376 4.36-1.182 7.363-1.689 5.409-.912 7.682.386 7.918.518v-.561c-1.174-.579-3.404-1.047-4.159-1.194-4.98-.971-11.59-2.102-16.173-1.815-8.756.548-14.115 5.21-14.115 5.21" fill="#edac01"></path>
    <path d="m62.5004 60.3469441c7.9912667-.4443292 15.3316333 2.7607281 22.0211 9.6151719" stroke="#384652" stroke-width="2"></path>
    <path d="m0 53.522116c19.63 10.691 48.443 17.44 80.56 17.44 32.116 0 60.929-6.749 80.559-17.44" stroke="#edac01" stroke-linecap="round" stroke-linejoin="round" stroke-width="3"></path>
    <path d="m41.9252686 43.2401195 11.0645101 5.2892697 13.5684826-2.4105176-3.2656437-1.6208869z" fill="#17222a"></path>
    <g mask="url(#j)">
      <g transform="matrix(.57357644 -.81915204 .81915204 .57357644 25.774804 47.705785)">
        <path d="m7.66515682 33.1548552c-1.556 1.831-4.301 2.054-6.132.498-1.83-1.556-2.054-4.301-.498-6.132 1.556-1.83 4.302-2.053 6.132-.498 1.831 1.556 2.054 4.301.498 6.132" fill="#f7c991"></path>
        <path d="m7.66225682 33.1519552-6.627-5.631 20.64799998-24.29800003 6.626 5.631z" fill="#d18900"></path>
        <path d="m29.3321568.05035517-7.652 3.17 6.632 5.636 1.894-8.064c.12-.511-.389-.943-.874-.742" fill="#fedfb8"></path>
        <path d="m29.4834568 3.86875517.723-3.076c.12-.511-.389-.943-.874-.742l-2.919 1.209z" fill="#17222a"></path>
        <path d="m7.66225682 33.1519552-3.313-2.815 20.64699998-24.29800003 3.313 2.815z" fill="#edac01"></path>
        <path d="m9.71295682 30.7393552-6.627-5.631-2.051 2.413 6.627 5.631z" fill="#92acbf"></path>
      </g>
    </g>
  </g>
</svg>
