<?xml version="1.0" encoding="UTF-8"?>
<svg xmlns="http://www.w3.org/2000/svg" xmlns:xlink="http://www.w3.org/1999/xlink" height="120" viewBox="0 0 220 120" width="220">
  <mask id="a" fill="#fff">
    <path d="m1.115 25.841c6.544 4.169 11.837 8.364 15.322 14.308 2.889-1.632 4.69-2.65 4.69-2.65s1.8-1.017 4.689-2.649c-3.421-6.96-4.154-15.152-4.583-20.381-13.939-3.875-20.963-13.888-20.963-13.888s4.72 11.322.845 25.26" fill="#fff" fill-rule="evenodd"></path>
  </mask>
  <mask id="b" fill="#fff">
    <path d="m1.115 25.841c6.544 4.169 11.837 8.364 15.322 14.308 2.889-1.632 4.69-2.65 4.69-2.65s1.8-1.017 4.689-2.649c-3.421-6.96-4.154-15.152-4.583-20.381-13.939-3.875-20.963-13.888-20.963-13.888s4.72 11.322.845 25.26" fill="#fff" fill-rule="evenodd"></path>
  </mask>
  <mask id="c" fill="#fff">
    <path d="m.7467.7716h62.1453v41.583h-62.1453z" fill="#fff" fill-rule="evenodd"></path>
  </mask>
  <mask id="d" fill="#fff">
    <path d="m0 .7716h62.1445v41.583h-62.1445z" fill="#fff" fill-rule="evenodd"></path>
  </mask>
  <mask id="e" fill="#fff">
    <path d="m0 84h162.892v-83.438h-162.892z" fill="#fff" fill-rule="evenodd"></path>
  </mask>
  <mask id="f" fill="#fff">
    <path d="m18.513 10.806c-7.914 4.229-18.179 7.508-18.179 7.508 10.646 2.956 22.593 4.954 35.331 5.766v-23.735s-7.965 5.551-17.152 10.461" fill="#fff" fill-rule="evenodd"></path>
  </mask>
  <mask id="g" fill="#fff">
    <path d="m.226 24.08c12.74-.812 24.685-2.81 35.333-5.766s-10.265-3.279-18.18-7.508c-9.187-4.91-17.153-10.461-17.153-10.461" fill="#fff" fill-rule="evenodd"></path>
  </mask>
  <mask id="h" fill="#fff">
    <path d="m0 84h162.892v-83.438h-162.892z" fill="#fff" fill-rule="evenodd"></path>
  </mask>
  <g fill="none" fill-rule="evenodd" transform="translate(29 18)">
    <path d="m27.2703 15.0189s4.72 11.322.845 25.26c6.544 4.169 11.837 8.364 15.321 14.307 2.89-1.631 4.69-2.649 4.69-2.649s1.8-1.017 4.69-2.649c-3.422-6.96-4.154-15.152-4.583-20.381-13.939-3.875-20.963-13.888-20.963-13.888" fill="#6b8295"></path>
    <path d="m14.2117 18.8009c1.416 2.506 1.325 5.237-.202 6.101-1.527.862-3.914-.47-5.33-2.976-1.415-2.507-1.325-5.237.203-6.101 1.527-.863 3.913.469 5.329 2.976" fill="#f7f7f6" mask="url(#a)" transform="translate(27 14.4378)"></path>
    <g transform="translate(27 14.4378)">
      <path d="m.2703.5811 10.587 18.74" fill="#fff" mask="url(#b)"></path>
      <path d="m.2703.5811 10.587 18.74" mask="url(#b)" stroke="#f7f7f6" stroke-width="2"></path>
    </g>
    <g transform="translate(0 .4378)">
      <path d="m59.3973 53.1974c2.438 4.316.916 9.793-3.401 12.232-4.318 2.439-9.794.916-12.233-3.401-2.438-4.316-.916-9.794 3.401-12.232 4.317-2.439 9.794-.916 12.233 3.401" fill="#17222a"></path>
      <path d="m71.908 75.3438-12.511-22.146-15.634 8.831 6.395 11.318c6.982.937 14.246 1.605 21.75 1.997" fill="#384652"></path>
      <path d="m61.7752 57.4073-15.633 8.832-2.379-4.211 15.634-8.831z" fill="#6b8295"></path>
      <path d="m127.2069 43.088h-2.188c-.75 0-1.358-.607-1.358-1.357v-6.131c0-.75.608-1.359 1.358-1.359h2.188c.75 0 1.358.609 1.358 1.359v6.131c0 .75-.608 1.357-1.358 1.357" fill="#f7c991"></path>
      <path d="m2.9637.7716 31.806 15.845s20.555 9.846 28.123 25.738c-5.873-2.033-10.477-1.074-10.477-1.074s-6.481-12.493-18.63-19.379c-10.408-5.899-33.039-16.935-33.039-16.935z" fill="#92acbf" mask="url(#c)" transform="translate(100 20)"></path>
      <path d="m143.1658 41.5636s2.185 4.496 2.836 10.604c-3.726-4.123-5.571-6.021-5.571-6.021z" fill="#6b8295"></path>
      <path d="m105.4949 22.0323s1.739 2.863 2.944 6.729c-3.298-1.632-5.78-2.877-5.78-2.877l.305-5.113z" fill="#6b8295"></path>
      <path d="m125.0233 31.7608s1.92-1.645 3.899-1.078c1.408.402 1.911 1.912 1.911 1.912s1.323-.547 2.533-.227c1.553.412 1.975 2.152 1.975 2.152s1.345-.423 2.5.457c.888.677 1.376 2.021 1.376 2.021s1.115-.441 2.546.587c.862.619 1.431 1.672 1.408 2.813-.022 1.14.003 20.025.003 20.025l5.481 8.944-14.002 5.134-6.132-12.146s-3.498-3.13-2.968-12.234c.311-5.341.751-10.223.702-12.997-.041-2.313-.317-4.759-.317-4.759z" fill="#fedfb8"></path>
      <path d="m145.117 63.5938s-10.856 3.4-16.552 11.75c6.088-.843 20.09-5.977 20.09-5.977z" fill="#6b8295"></path>
      <path d="m35.6854 43.088h2.188c.75 0 1.358-.607 1.358-1.357v-6.131c0-.75-.608-1.359-1.358-1.359h-2.188c-.75 0-1.358.609-1.358 1.359v6.131c0 .75.608 1.357 1.358 1.357" fill="#f7c991"></path>
      <path d="m59.9285.7716-31.807 15.845s-20.554 9.846-28.122 25.738c5.873-2.033 10.477-1.074 10.477-1.074s6.481-12.493 18.63-19.379c10.408-5.899 33.038-16.935 33.038-16.935z" fill="#92acbf" mask="url(#d)" transform="translate(0 20)"></path>
      <path d="m19.7264 41.5636s-2.185 4.496-2.836 10.604c3.726-4.123 5.571-6.021 5.571-6.021z" fill="#6b8295"></path>
      <path d="m57.3973 22.0323s-1.739 2.863-2.944 6.729c3.298-1.632 5.779-2.877 5.779-2.877l-.304-5.113z" fill="#6b8295"></path>
      <path d="m37.869 31.7608s-1.92-1.645-3.9-1.078c-1.407.402-1.91 1.912-1.91 1.912s-1.323-.547-2.533-.227c-1.553.412-1.975 2.152-1.975 2.152s-1.345-.423-2.5.457c-.888.677-1.376 2.021-1.376 2.021s-1.115-.441-2.546.587c-.863.619-1.431 1.672-1.408 2.813.022 1.14-.003 20.025-.003 20.025l-5.481 8.944 14.002 5.134 6.132-12.146s3.498-3.13 2.968-12.234c-.312-5.341-.751-10.223-.702-12.997.041-2.313.317-4.759.317-4.759z" fill="#fedfb8"></path>
      <path d="m17.7742 63.5938s10.857 3.4 16.553 11.75c-6.088-.843-20.09-5.977-20.09-5.977z" fill="#6b8295"></path>
      <path d="m68.665 82.5h25.561v-34.534h-25.561z" fill="#384652" mask="url(#e)"></path>
      <path d="m68.6658 71.8575c3.758 1.19 8.121 1.875 12.78 1.875s9.023-.685 12.781-1.875v-23.893h-25.561z" fill="#f7c991" mask="url(#e)"></path>
      <path d="m58.1199 39.9024c1.258 3.783 4.248 6.194 6.679 5.386 2.43-.808 3.381-4.53 2.123-8.312-1.258-3.783-4.248-6.194-6.679-5.387-2.431.809-3.382 4.531-2.123 8.313" fill="#fedfb8" mask="url(#e)"></path>
      <path d="m59.9285 27.1573c1.3 11.808 3.321 23.449 7.942 27.757 4.621 4.306 8.521 7.672 13.576 7.672 5.054 0 8.953-3.366 13.575-7.672 4.621-4.308 6.642-15.949 7.942-27.757z" fill="#fedfb8" mask="url(#e)"></path>
      <path d="m62.9373 27.5909c.505 1.877 2.193 7.007 6.998 7.519 6.316.672 7.636-3.662 11.511-3.662s5.194 4.334 11.511 3.662c4.804-.512 6.493-5.769 6.998-7.646z" fill="#f7c991" mask="url(#e)"></path>
      <path d="m70.952 27.5763c.767-.668 1.574-.94 2.365-1.06.798-.135 1.587-.062 2.342.15.753.213 1.478.586 2.093 1.141.621.534 1.155 1.256 1.378 2.231l.016.071c.011.047-.018.094-.065.105-.022.005-.044.001-.062-.009-.62-.346-1.247-.67-1.899-.942-.654-.264-1.322-.499-2.008-.674-1.352-.417-2.762-.644-4.167-.813-.048-.006-.082-.049-.077-.096.003-.023.014-.042.029-.056z" fill="#384652" mask="url(#e)"></path>
      <path d="m91.9471 27.7765c-1.405.169-2.814.396-4.167.812-.686.176-1.354.411-2.008.675-.653.272-1.28.596-1.899.942-.042.023-.095.008-.118-.034-.011-.02-.014-.041-.009-.062l.016-.071c.223-.975.756-1.698 1.377-2.231.617-.555 1.341-.928 2.094-1.141.755-.212 1.544-.286 2.342-.15.791.119 1.599.392 2.365 1.06l.054.048c.037.031.04.087.009.123-.015.016-.035.027-.056.029" fill="#384652" mask="url(#e)"></path>
      <path d="m68.6658 82.0802v-23.735s-7.966 5.55-17.152 10.461c-7.915 4.229-18.18 7.507-18.18 7.507 10.646 2.956 22.593 4.955 35.332 5.767" fill="#6c8195" mask="url(#e)"></path>
    </g>
    <path d="m28.6658 2.1827-5.91 19.592" mask="url(#f)" stroke="#5a6c7a" stroke-linecap="round" stroke-width="2" transform="translate(33 58.4378)"></path>
    <path d="m94.2264 82.518v-23.735s7.966 5.55 17.152 10.461c7.915 4.229 18.18 7.507 18.18 7.507-10.647 2.956-22.593 4.955-35.332 5.767" fill="#6c8195"></path>
    <path d="m7.2264 2.1827 5.91 19.592" mask="url(#g)" stroke="#5a6c7a" stroke-linecap="round" stroke-width="2" transform="translate(94 58.4378)"></path>
    <g transform="translate(0 .4378)">
      <path d="m102.9637 20.7716c-.35-2.984-2.009-12.9-2.592-14.433-.522-1.372-2.653-3.014-6.206-4.08-3.852-1.155-8.593-1.696-12.72-1.696s-8.867.541-12.719 1.696c-3.553 1.066-5.768 2.679-6.206 4.08-.509 1.628-2.243 11.449-2.592 14.433" fill="#edc001"></path>
      <path d="m73.1434 32.0714c0-1.197-.972-2.169-2.17-2.169-1.197 0-2.169.972-2.169 2.169 0 1.198.972 2.17 2.169 2.17 1.198 0 2.17-.972 2.17-2.17" fill="#17222a"></path>
      <path d="m66.6805 30.3985c.725-.726 1.471-1.103 2.218-1.354.749-.271 1.502-.367 2.254-.355.752.019 1.506.144 2.247.443.74.282 1.476.695 2.162 1.451l.05.054c.032.035.029.09-.006.122-.017.016-.038.023-.06.023-1.477-.025-2.951-.104-4.428-.094l-4.432-.09c-.047-.001-.085-.04-.0840193-.088.0010193-.022.0100193-.043.0250193-.058z" fill="#17222a"></path>
      <path d="m61.2576 37.5704 3.782-10.413h-5.111z" fill="#384652"></path>
      <path d="m104.7723 39.9024c-1.258 3.783-4.248 6.194-6.679 5.386-2.43-.808-3.381-4.53-2.123-8.312 1.258-3.783 4.248-6.194 6.679-5.387 2.431.809 3.382 4.531 2.123 8.313" fill="#fedfb8"></path>
      <path d="m101.6346 37.5704-3.782-10.413h5.111z" fill="#384652"></path>
      <path d="m89.7489 32.0714c0-1.197.972-2.169 2.169-2.169 1.198 0 2.17.972 2.17 2.169 0 1.198-.972 2.17-2.17 2.17-1.197 0-2.169-.972-2.169-2.17" fill="#17222a"></path>
      <path d="m96.2069 30.5987-4.432.09c-1.477-.01-2.951.069-4.428.0940188-.048.0009812-.0880758-.0380188-.0880758-.0850188-.0009242-.023.0080758-.043.0210758-.06l.051-.055c.686-.755 1.422-1.169 2.162-1.45.741-.3 1.495-.425 2.246-.443.753-.012 1.506.084 2.254.355.748.251 1.494.628 2.219 1.354l.054.054c.033.033.033.087 0 .121-.017.016-.038.024-.059.025" fill="#17222a"></path>
      <path d="m75.827 49.0226c.86.395 1.812.58 2.754.726.947.134 1.907.18 2.865.173.958.007 1.918-.039 2.865-.172.943-.147 1.894-.331 2.754-.727.046-.021.101-.001.122.045.013.027.011.058-.002.082l-.026.05c-.589 1.094-1.624 1.715-2.607 2.119-1.003.428-2.059.593-3.106.602-1.047-.004-2.102-.17-3.106-.597-.984-.404-2.02-1.027-2.607-2.124l-.026-.049c-.024-.046-.007-.102.038-.126.026-.014.057-.014.082-.002" fill="#cf9544"></path>
      <path d="m83.2489 44.7159c.196-.61.333-1.248.41-1.881.067-.635.039-1.279-.141-1.871-.177-.584-.519-1.19-.644-1.865-.153-.673-.062-1.38.175-2.005.016-.042.063-.064.106-.048.019.007.033.021.042.036l.042.072c.483.835.854 1.268 1.186 1.607.341.361.65.618 1.009 1.631.277.966.169 1.887-.193 2.637-.346.75-.9 1.39-1.808 1.764l-.07.029c-.044.018-.093-.002-.112-.046-.008-.02-.009-.041-.002-.06" fill="#cf9544"></path>
      <path d="m94.3377 11.2188c-.067-.336-.331-.597-.67-.655-1.464-.252-5.752-.878-12.222-.878-6.469 0-10.757.626-12.221.878-.339.058-.603.319-.67.655l-1.724 8.565c-.102.513.286.993.809.998h27.613c.522-.005.911-.485.808-.998z" fill="#fff"></path>
      <path d="m94.3377 11.2188c-.067-.336-.331-.597-.67-.655-1.464-.252-5.752-.878-12.222-.878-6.469 0-10.757.626-12.221.878-.339.058-.603.319-.67.655l-1.724 8.565c-.102.513.286.993.809.998h27.613c.522-.005.911-.485.808-.998z" stroke="#a68602" stroke-width="2"></path>
      <path d="m59.929 27.158h43.035v-6.386h-43.035z" fill="#fff" mask="url(#h)"></path>
      <path d="m81.4461 15.3253c-8.893 0-19.045 2.314-21.518 5.446h21.518 21.518c-2.473-3.132-13.08-5.446-21.518-5.446" fill="#edc001" mask="url(#h)"></path>
      <path d="m102.9637 20.7716s-5.618.869-21.518.869c-16.755 0-21.517-.869-21.517-.869" fill="#edc001" mask="url(#h)"></path>
      <path d="m59.9285 27.1573s4.762.868 21.518.868c15.899 0 21.517-.868 21.517-.868" fill="#fff" mask="url(#h)"></path>
      <path d="m108.0057 66.9474s-4.527 8.219-12.65 14.844" mask="url(#h)" stroke="#17222a" stroke-linecap="round" stroke-width="3"></path>
      <path d="m9.3309 66.8878c17.572 9.57 43.366 15.612 72.115 15.612s54.543-6.042 72.115-15.612" mask="url(#h)" stroke="#edc001" stroke-linecap="round" stroke-linejoin="round" stroke-width="3"></path>
      <g fill="#fff">
        <path d="m61.3045 25.5811c0 .894-.48 1.617-1.072 1.617s-1.072-.723-1.072-1.617c0-.893.48-1.617 1.072-1.617s1.072.724 1.072 1.617" mask="url(#h)"></path>
        <path d="m101.5877 25.5811c0 .894.479 1.617 1.071 1.617s1.073-.723 1.073-1.617c0-.893-.481-1.617-1.073-1.617s-1.071.724-1.071 1.617" mask="url(#h)"></path>
      </g>
    </g>
  </g>
</svg>
