<?xml version="1.0" encoding="UTF-8"?>
<svg xmlns="http://www.w3.org/2000/svg" xmlns:xlink="http://www.w3.org/1999/xlink" height="120" viewBox="0 0 220 120" width="220">
  <mask id="a" fill="#fff">
    <path d="m2.488 38.212 20.814 8.192v-38.515l-22.388-7.489z" fill="#fff" fill-rule="evenodd"></path>
  </mask>
  <mask id="b" fill="#fff">
    <path d="m2.488 38.212 20.814 8.192v-38.515l-22.388-7.489z" fill="#fff" fill-rule="evenodd"></path>
  </mask>
  <g fill="none" fill-rule="evenodd">
    <g transform="translate(25 8.709)">
      <path d="m65.0291 39.5471-2.778-.856c-.654-.202-.731-.783-.173-1.298l4.635-4.285c.557-.516 1.539-.77 2.192-.569l2.778.856c.654.201.731.783.173 1.298l-4.635 4.285c-.557.515-1.539.77-2.192.569" fill="#17222a"></path>
      <path d="m41.0183 32.1169-2.778-.856c-.654-.202-.731-.783-.172-1.298l4.634-4.284c.558-.516 1.539-.771 2.192-.57l2.778.857c.654.201.731.782.173 1.297l-4.635 4.285c-.557.516-1.539.771-2.192.569" fill="#17222a"></path>
      <path d="m66.7644 52.3996s1.423-9.949 12.174-12.479l-42.215-13.313c-10.751 2.53-12.174 12.479-12.174 12.479z" fill="#5a6c7a"></path>
      <path d="m24.5496 39.0871 30.255 9.541c-.187-1.188-.426-2.38-.73-3.573-1.541-6.052-4.426-11.346-8.169-15.551l-9.182-2.896c-10.751 2.53-12.174 12.479-12.174 12.479" fill="#384652"></path>
      <path d="m77.4626 70.4426c0 9.401-6.395 17.023-14.282 17.023-7.888 0-14.282-7.622-14.282-17.023 0-9.402 6.394-17.023 14.282-17.023 7.887 0 14.282 7.621 14.282 17.023z" stroke="#384652" stroke-width="3"></path>
      <path d="m44.7869 101.3533-40.313-15.214-1.901-38.102 42.214 14.263z" fill="#6b8295"></path>
      <path d="m66.7644 52.3996-21.978 9.901-42.214-14.264 21.977-8.95z" fill="#17222a"></path>
      <path d="m39.3787 23.4949c-.986-3.172-3.519-5.657-6.713-6.591 3.194-.933 5.727-3.419 6.713-6.59.985 3.171 3.518 5.657 6.712 6.59-3.194.934-5.727 3.419-6.712 6.591" fill="#edc001"></path>
      <path d="m120.5105 45.678c-.986-3.172-3.519-5.657-6.713-6.591 3.194-.933 5.727-3.419 6.713-6.591.985 3.172 3.518 5.658 6.712 6.591-3.194.934-5.727 3.419-6.712 6.591" fill="#edc001"></path>
      <path d="m61.7058 11.9973c-.658-2.117-2.348-3.775-4.479-4.398 2.131-.623 3.821-2.282 4.479-4.398.657 2.116 2.348 3.775 4.479 4.398-2.131.623-3.822 2.281-4.479 4.398" fill="#f7c991"></path>
      <path d="m137.1638 22.613c-.658-2.117-2.348-3.775-4.479-4.398 2.131-.623 3.821-2.281 4.479-4.398.658 2.117 2.348 3.775 4.479 4.398-2.131.623-3.821 2.281-4.479 4.398" fill="#f7c991"></path>
      <path d="m22.2908 31.2019-3.251 1.843-10.53-8.449-4.087 5.093 10.53 8.45-1.096 3.573c-.65 2.326-.709 4.693 1.059 6.112l15.106 12.122 2.285 1.833 2.144 1.721c1.769 1.419 4.352 1.136 5.771-.632l8.433-10.51c1.419-1.768 1.136-4.351-.633-5.77l-2.144-1.721-2.284-1.833-15.107-12.123c-1.767-1.418-4.044-.853-6.196.291" fill="#fedfb8"></path>
      <path d="m22.2908 31.2019-3.251 1.843-10.53-8.449-4.087 5.093 10.53 8.45-1.096 3.573c-.65 2.326-.709 4.693 1.059 6.112l15.106 12.122 2.285 1.833 2.144 1.721c1.769 1.419 4.352 1.136 5.771-.632l8.433-10.51c1.419-1.768 1.136-4.351-.633-5.77l-2.144-1.721-2.284-1.833-15.107-12.123c-1.767-1.418-4.044-.853-6.196.291z" stroke="#fedfb8" stroke-width="2"></path>
      <path d="m8.51 24.5954-4.087 5.093-3.761-3.018c-.762-.612-.884-1.725-.273-2.487l1.873-2.334c.611-.762 1.725-.883 2.487-.272z" fill="#384652"></path>
      <path d="m8.51 24.5954-4.087 5.093-3.761-3.018c-.762-.612-.884-1.725-.273-2.487l1.873-2.334c.611-.762 1.725-.883 2.487-.272z" stroke="#384652" stroke-width="2"></path>
      <path d="m40.2214 62.8674 1.69-2.106-20.012-16.059c-1.466-1.176-3.607-.941-4.783.524-1.177 1.466-.942 3.607.523 4.784l12.383 9.936 2.284 1.833 2.144 1.721c1.769 1.418 4.352 1.135 5.771-.633" fill="#fff"></path>
      <path d="m40.2214 62.8674 1.69-2.106-20.012-16.059c-1.466-1.176-3.607-.941-4.783.524-1.177 1.466-.942 3.607.523 4.784l12.383 9.936 2.284 1.833 2.144 1.721c1.769 1.418 4.352 1.135 5.771-.633z" stroke="#fff" stroke-linecap="round" stroke-linejoin="round" stroke-width="2"></path>
      <path d="m48.655 52.3581-1.69 2.106-20.013-16.059c-1.465-1.176-1.7-3.318-.524-4.783 1.177-1.466 3.318-1.701 4.784-.525l12.381 9.936 2.285 1.833 2.144 1.721c1.769 1.419 2.052 4.003.633 5.771" fill="#cf9544"></path>
      <path d="m48.655 52.3581-1.69 2.106-20.013-16.059c-1.465-1.176-1.7-3.318-.524-4.783 1.177-1.466 3.318-1.701 4.784-.525l12.381 9.936 2.285 1.833 2.144 1.721c1.769 1.419 2.052 4.003.633 5.771z" stroke="#cf9544" stroke-width="2"></path>
      <path d="m22.489 39.9997c-1.395 1.739-1.117 4.28.622 5.675l18.801 15.087 5.053-6.298-18.801-15.086c-1.738-1.396-4.279-1.117-5.675.622" fill="#fedfb8"></path>
      <path d="m22.489 39.9997c-1.395 1.739-1.117 4.28.622 5.675l18.801 15.087 5.053-6.298-18.801-15.086c-1.738-1.396-4.279-1.117-5.675.622z" stroke="#fff" stroke-linecap="round" stroke-linejoin="round" stroke-width="2"></path>
      <path d="m44.7869 101.3533-40.313-15.214-1.901-38.102 42.214 14.263z" fill="#6b8295"></path>
      <path d="m66.7644 52.3996-14.139 4.99-7.839 4.911v39.053l7.839-4.482 14.139-5.419z" fill="#5a6c7a"></path>
      <path d="m52.6257 57.3899-7.839 4.911v39.052l7.839-4.482z" fill="#384652"></path>
      <path d="m117.0798 7.1838 3.646 1.044-.41-5.488zm-4.358 3.201c-.088-.025-.156-.079-.206-.163-.052-.085-.063-.175-.035-.271.012-.043.036-.088.073-.136l6.84-9.251c.062-.099.151-.175.264-.229.114-.054.252-.058.413-.012l1.751.502c.161.046.273.121.334.226.064.105.101.217.112.336l.904 11.471c-.006.056-.014.106-.027.149-.027.096-.082.167-.164.213-.083.046-.168.057-.254.032l-1.396-.401c-.15-.042-.249-.108-.3-.197-.05-.091-.076-.17-.079-.241l-.193-2.176-4.771-1.366-1.316 1.743c-.04.058-.105.111-.195.161-.089.05-.209.053-.359.011z" fill="#edc001"></path>
      <path d="m163.3835 59.3533 2.579-1.066c.556-.23.915-.556 1.078-.98.162-.421.156-.85-.024-1.282-.187-.453-.488-.768-.906-.945-.416-.178-.898-.153-1.444.072l-2.578 1.066zm-1.959-4.741 2.424-1.003c.546-.225.9-.525 1.065-.901.164-.375.159-.773-.015-1.195-.179-.433-.456-.716-.83-.85-.375-.135-.836-.089-1.382.137l-2.424 1.002zm.859 7.112c-.102.043-.205.043-.306 0-.102-.041-.174-.115-.217-.217l-4.155-10.054c-.047-.112-.049-.22-.007-.322.041-.102.114-.174.218-.217l4.478-1.851c.834-.345 1.566-.5 2.194-.465.63.036 1.163.223 1.597.56.436.339.775.802 1.018 1.39.161.39.233.761.216 1.111-.018.353-.089.662-.213.93-.125.267-.264.494-.416.678.478.02.961.181 1.448.486.488.304.855.756 1.102 1.353.255.617.344 1.226.266 1.825-.078.598-.334 1.147-.766 1.646-.433.498-1.051.912-1.854 1.244z" fill="#edc001"></path>
      <path d="m145.99 47.2966c-1.556 1.831-4.301 2.054-6.132.498-1.83-1.556-2.054-4.301-.498-6.132 1.556-1.83 4.302-2.053 6.132-.498 1.831 1.556 2.054 4.301.498 6.132" fill="#f7c991"></path>
      <path d="m145.9871 47.2937-6.627-5.631 20.648-24.298 6.626 5.631z" fill="#edc001"></path>
      <path d="m167.657 14.1921-7.652 3.17 6.632 5.636 1.894-8.064c.12-.511-.389-.943-.874-.742" fill="#fedfb8"></path>
      <path d="m167.8083 18.0105.723-3.076c.12-.511-.389-.943-.874-.742l-2.919 1.209z" fill="#17222a"></path>
      <path d="m145.9871 47.2937-3.313-2.815 20.647-24.298 3.313 2.815z" fill="#a68602"></path>
      <path d="m148.0378 44.8811-6.627-5.631-2.051 2.413 6.627 5.631z" fill="#92acbf"></path>
      <path d="m91.325 36.2707c6.054.11 11.05-4.708 11.16-10.761l-21.921-.398c-.11 6.053 4.708 11.049 10.761 11.159" fill="#edc001"></path>
      <path d="m90.6091 14.134-3.782-10.168-.022.008c.682-.254 1.03-1.012.776-1.694s-1.012-1.03-1.695-.776l-5.488 2.041c-.682.254-1.029 1.012-.775 1.694.254.683 1.011 1.03 1.694.776l-.022.008 3.781 10.169c-3.879 2.818-5.584 7.964-3.831 12.679 2.11 5.675 8.421 8.564 14.095 6.453 5.675-2.11 8.564-8.421 6.454-14.095-1.753-4.715-6.407-7.496-11.185-7.095z" stroke="#92acbf" stroke-linejoin="round" stroke-width="2"></path>
      <path d="m88.9363 9.636-5.511 2.05-1.46-3.927 5.51-2.05z" fill="#384652"></path>
      <path d="m88.9363 9.636-5.511 2.05-1.46-3.927 5.51-2.05z" stroke="#384652" stroke-linecap="round" stroke-width="2"></path>
      <g fill="#fff">
        <path d="m88.99 29.615c0-.463-.375-.838-.838-.838s-.839.375-.839.838.376.838.839.838.838-.375.838-.838"></path>
        <path d="m95.5037 27.6804c0 .83-.672 1.502-1.502 1.502-.829 0-1.502-.672-1.502-1.502s.673-1.502 1.502-1.502c.83 0 1.502.672 1.502 1.502"></path>
        <path d="m96.1365 31.9695c0 .35-.283.633-.633.633-.348 0-.632-.283-.632-.633 0-.349.284-.632.632-.632.35 0 .633.283.633.632"></path>
      </g>
      <path d="m8.51 24.5954-4.087 5.093-1.571-1.26 4.087-5.093z" fill="#5a6c7a"></path>
      <path d="m8.51 24.5954-4.087 5.093-1.571-1.26 4.087-5.093z" stroke="#5a6c7a" stroke-width="2"></path>
      <path d="m72.8337 57.8967c2.846 3.112 4.629 7.581 4.629 12.546 0 5.288-2.024 10.013-5.197 13.136" stroke="#17222a" stroke-linecap="round" stroke-linejoin="round" stroke-width="5"></path>
      <path d="m31.3015 98.404-20.813-8.191-1.574-37.813 22.387 7.488z" fill="#92acbf"></path>
    </g>
    <path d="m25.5173 53.8791-7.824-1.861c-2.333-.555-4.236-2.865-4.252-5.159l-.1820892-26.689c-.0149108-2.295 1.8630892-3.705 4.1950892-3.15l7.825 1.861c2.332.555 4.235 2.865 4.251 5.159l.1821014 26.69c.0158986 2.294-1.8631014 3.704-4.1951014 3.149z" mask="url(#a)" stroke="#6b8295" stroke-width="2" transform="translate(33 60.709)"></path>
    <path d="m4.6311 48.6814-7.775-3.167c-2.318-.945-4.236-3.593-4.284-5.915l-.551-27.014c-.048-2.322 1.793-3.44 4.111-2.495l7.776 3.167c2.318.945 4.236 3.592 4.283 5.915l.551 27.014c.048 2.322-1.793 3.439-4.111 2.495z" mask="url(#b)" stroke="#6b8295" stroke-width="2" transform="translate(33 60.709)"></path>
    <g transform="translate(33 58.709)">
      <path d="m23.3015 48.404 2.373-1.245v-38.613l-21.325-7.205-3.435 1.059 22.387 7.488z" fill="#384652"></path>
      <path d="m115.032 40.8181-20.926-6.223 9.937-33.578 20.926 6.223z" fill="#fff"></path>
      <path d="m110.5857 39.4958-19.646-5.842c-.708-.211-1.111-.955-.901-1.663l9.177-31.011c.21-.71.955-1.114 1.665-.903l19.641 5.841z" fill="#92acbf"></path>
      <path d="m93.991 34.5608-2.166-.644 9.937-33.578 2.166.644z" fill="#6b8295"></path>
      <path d="m117.198 41.4621-2.166-.644 9.937-33.578 2.166.644z" fill="#92acbf"></path>
      <path d="m104.3826 37.6501-5.294-1.581h-.001l-1.577 5.308 3.436-1.864 1.859 3.445z" fill="#edc001"></path>
    </g>
  </g>
</svg>
